<?xml version="1.0" encoding="utf-8"?>
<!-- Generator: Adobe Illustrator 18.1.1, SVG Export Plug-In . SVG Version: 6.00 Build 0)  -->
<svg version="1.1" xmlns="http://www.w3.org/2000/svg" xmlns:xlink="http://www.w3.org/1999/xlink" x="0px" y="0px"
	 viewBox="0 0 780.1 615" enable-background="new 0 0 780.1 615" xml:space="preserve">
<g id="Background">
	<path fill="#FFFFFF" d="M594,613V488h54v-20h-6V308h35.5l21.5-64.3V230h-32v-26h34v-10.8c0,0,48.1-6.1,61.4-30.5
		c13.3-24.4,27.5-51.8-0.3-92.1c-24.7-29-58.1-26.9-58.1-26.9V30.3L71,30.5V205H35v112h36v203H2v35h7v58H594z"/>
</g>
<g id="Shapes">
	<ellipse fill="none" cx="704.2" cy="117.2" rx="74.8" ry="73.5"/>
	<polygon fill="none" points="591,253.6 591,230 699,230 699,243.7 677.5,308 642,308 641.8,255.8 	"/>
	<rect x="608" y="256" fill="none" width="34" height="46"/>
	<rect x="608" y="302" fill="none" width="34" height="26"/>
	<rect x="608" y="328" fill="none" width="34" height="24"/>
	<rect x="608" y="352" fill="none" width="34" height="28"/>
	<rect x="608" y="380" fill="none" width="34" height="25"/>
	<rect x="608" y="405" fill="none" width="34" height="27"/>
	<rect x="573" y="432" fill="none" width="69" height="36"/>
	<polygon fill="none" points="562,423 576,423 576,380 502,380 502,503 115,503 115,532 158,532 158,587 562,587 	"/>
	<rect x="115" y="274" fill="none" width="186" height="222"/>
	<rect x="80" y="40" fill="none" width="130" height="159"/>
	<rect x="250" y="40" fill="none" width="261" height="86"/>
	<rect x="230" y="175" fill="none" width="73" height="32"/>
	<rect x="177" y="233" fill="none" width="14" height="21"/>
	<rect x="231" y="233" fill="none" width="14" height="21"/>
	<rect x="287" y="233" fill="none" width="14" height="21"/>
	<rect x="525" y="233" fill="none" width="14" height="21"/>
	<polyline fill="none" points="355,299 331,299 331,277 355,277 355,299 377,299 377,277 355,277 355,299 	"/>
	<rect x="331" y="311" fill="none" width="24" height="26"/>
	<rect x="377" y="277" fill="none" width="23" height="22"/>
	<rect x="400" y="276" fill="none" width="24" height="23"/>
	<rect x="424" y="276" fill="none" width="21" height="23"/>
	<polygon fill="none" points="444.8,276 468,276 468,299 445.2,299 	"/>
	<polygon fill="none" points="467.7,299 491,299 491,276 467.6,276 	"/>
	<rect x="355" y="311" fill="none" width="22" height="26"/>
	<rect x="377" y="311" fill="none" width="25" height="26"/>
	<polyline fill="none" points="424,311 402,311 402,337 424,337 424,311 	"/>
	<polyline fill="none" points="445,311 424,311 424,337 445,337 445,311 	"/>
	<polygon fill="none" points="444.7,311 468,311 468,337 444.8,337 	"/>
	<rect x="468" y="311" fill="none" width="23" height="26"/>
	<rect x="331" y="337" fill="none" width="78" height="46"/>
	<polygon fill="none" points="438,395 462,395 462,408 491,408 491,366 438,366 	"/>
	<rect x="383" y="383" fill="none" width="26" height="24"/>
	<rect x="358" y="383" fill="none" width="25" height="25"/>
	<rect x="331" y="383" fill="none" width="27" height="25"/>
	<rect x="409" y="423" fill="none" width="38" height="65"/>
	<polygon fill="none" points="447.3,463 491,463 491,438 447,438 	"/>
	<rect x="8" y="526" fill="none" width="26" height="22"/>
	<rect x="71" y="545" fill="none" width="36" height="59"/>
	<path fill="none" d="M71,317c1,0,0-112,0-112H35v112H71z"/>
	<polygon fill="none" points="543,178 543,162 505,162 505,209 577,209 577,178 	"/>
	<polygon fill="none" points="587.1,150 526,150 526,94 587.4,94 	"/>
	<polygon fill="none" points="573.4,94 551,94 551,65 573.5,65 	"/>
	<rect x="551" y="31" fill="none" width="61" height="34"/>
	<rect x="523" y="271" fill="none" width="67" height="102"/>
</g>
<g id="Major_Lines">
	<polygon fill="#030302" stroke="#030302" stroke-width="3" stroke-miterlimit="10" points="703.5,43.9 703.5,30.5 526.5,30.5 
		526.5,1.5 703.5,1.5 	"/>
	<path fill="none" stroke="#030302" stroke-width="3" stroke-miterlimit="10" d="M696.5,44c113,0,106,148,0,148"/>
	<polyline fill="none" stroke="#030302" stroke-width="3" stroke-miterlimit="10" points="701.5,193 701.5,204.5 667.5,204.5 
		667.5,212 	"/>
	<rect x="448" y="153" fill="#030302" width="28" height="54"/>
	<rect x="303.5" y="40.5" fill="none" stroke="#030302" stroke-miterlimit="10" width="120" height="85"/>
	<rect x="423.5" y="40.5" fill="none" stroke="#030302" stroke-miterlimit="10" width="88" height="85"/>
	<rect x="79.5" y="40.5" fill="none" stroke="#030302" stroke-miterlimit="10" width="131" height="158"/>
	<rect x="249.5" y="40.5" fill="none" stroke="#030302" stroke-miterlimit="10" width="50" height="85"/>
	<g>
		<g>
			<line fill="none" stroke="#030302" stroke-miterlimit="10" x1="210" y1="40.5" x2="213" y2="40.5"/>
			<line fill="none" stroke="#030302" stroke-miterlimit="10" stroke-dasharray="6,6" x1="219" y1="40.5" x2="239" y2="40.5"/>
			<polyline fill="none" stroke="#030302" stroke-miterlimit="10" points="242,40.5 245.5,40.5 245.5,43 			"/>
			<line fill="none" stroke="#030302" stroke-miterlimit="10" stroke-dasharray="6,6" x1="245.5" y1="49" x2="245.5" y2="153"/>
			<polyline fill="none" stroke="#030302" stroke-miterlimit="10" points="245.5,156 245.5,158.5 242,158.5 			"/>
			<line fill="none" stroke="#030302" stroke-miterlimit="10" stroke-dasharray="6,6" x1="237" y1="158.5" x2="216" y2="158.5"/>
			<line fill="none" stroke="#030302" stroke-miterlimit="10" x1="213" y1="158.5" x2="210" y2="158.5"/>
		</g>
	</g>
	<rect x="230.5" y="175.5" fill="none" stroke="#030302" stroke-miterlimit="10" width="24" height="32"/>
	<rect x="279.5" y="175.5" fill="none" stroke="#030302" stroke-miterlimit="10" width="24" height="32"/>
	<line fill="none" stroke="#030302" stroke-miterlimit="10" x1="254" y1="175.5" x2="280" y2="175.5"/>
	<polyline fill="none" stroke="#030302" stroke-miterlimit="10" points="35,258.5 53.5,258.5 53.5,299.5 72.5,299.5 72.5,317 	"/>
	<polyline fill="none" stroke="#030302" stroke-miterlimit="10" points="72.5,299 72.5,232.5 141.5,232.5 141.5,254.5 123,254.5 	
		"/>
	<line fill="none" stroke="#030302" stroke-miterlimit="10" x1="109.5" y1="232" x2="109.5" y2="255"/>
	<line fill="none" stroke="#030302" stroke-miterlimit="10" x1="97" y1="253.5" x2="72" y2="253.5"/>
	<line fill="none" stroke="#030302" stroke-width="2" stroke-miterlimit="10" x1="71" y1="205" x2="142" y2="205"/>
	<line fill="none" stroke="#030302" stroke-width="2" stroke-miterlimit="10" x1="351" y1="232" x2="380" y2="232"/>
	<path fill="none" stroke="#030302" stroke-width="2" stroke-miterlimit="10" d="M364.1,232.1"/>
	<line fill="none" stroke="#030302" stroke-width="2" stroke-miterlimit="10" x1="364" y1="232" x2="364" y2="255"/>
	<line fill="none" stroke="#030302" stroke-width="2" stroke-miterlimit="10" x1="380" y1="254" x2="351" y2="254"/>
	<line fill="none" stroke="#030302" stroke-width="2" stroke-miterlimit="10" x1="449" y1="232" x2="478" y2="232"/>
	<path fill="none" stroke="#030302" stroke-width="2" stroke-miterlimit="10" d="M462.3,232.1"/>
	<line fill="none" stroke="#030302" stroke-width="2" stroke-miterlimit="10" x1="462" y1="232" x2="462" y2="255"/>
	<line fill="none" stroke="#030302" stroke-width="2" stroke-miterlimit="10" x1="478" y1="254" x2="449" y2="254"/>
	<polyline fill="none" stroke="#030302" stroke-width="2" stroke-miterlimit="10" points="562,255 562,232 591,232 591,254 	"/>
	<polyline fill="none" stroke="#030302" stroke-width="3" stroke-miterlimit="10" points="576,254.5 642.5,254.5 642.5,307.5 
		677.5,307.5 698.5,243.7 698.5,228.5 684,228.5 	"/>
	<line fill="none" stroke="#030302" stroke-miterlimit="10" x1="475.5" y1="153" x2="475.5" y2="142"/>
	<line fill="none" stroke="#030302" stroke-miterlimit="10" x1="448.5" y1="153" x2="448.5" y2="142"/>
	<rect x="351" y="153" fill="#030302" width="29" height="54"/>
	<line fill="none" stroke="#030302" stroke-miterlimit="10" x1="378.5" y1="153" x2="378.5" y2="142"/>
	<line fill="none" stroke="#030302" stroke-miterlimit="10" x1="351.5" y1="153" x2="351.5" y2="142"/>
	<polygon fill="none" stroke="#030302" stroke-miterlimit="10" points="576.5,177.5 576.5,209.5 504.5,209.5 504.5,162.5 
		543.5,162.5 543.5,177.5 	"/>
	<polyline fill="none" stroke="#030302" stroke-width="2" stroke-miterlimit="10" points="667,225 667,229 629,229 629,232.1 
		629,203 643,203 	"/>
	<polyline fill="none" stroke="#030302" stroke-width="2" stroke-miterlimit="10" points="629,207 584.5,207 587,207 587,133.9 
		587,150 526,150 526,123 576,123 576,132.8 576,114.2 576,123 526,123 526,94 587,94 587,113 	"/>
	<polyline fill="none" stroke="#030302" stroke-miterlimit="10" points="175,232.5 184.2,232.5 193,232.5 	"/>
	<polyline fill="none" stroke="#030302" stroke-miterlimit="10" points="175,233.5 184.2,233.5 193,233.5 	"/>
	<polyline fill="none" stroke="#030302" stroke-miterlimit="10" points="175,254.5 184.2,254.5 193,254.5 	"/>
	<polyline fill="none" stroke="#030302" stroke-miterlimit="10" points="175,255.5 184.2,255.5 193,255.5 	"/>
	<line fill="none" stroke="#030302" stroke-miterlimit="10" x1="184.5" y1="256" x2="184.5" y2="232"/>
	<line fill="none" stroke="#030302" stroke-miterlimit="10" x1="191.5" y1="233" x2="191.5" y2="254"/>
	<line fill="none" stroke="#030302" stroke-miterlimit="10" x1="177.5" y1="233" x2="177.5" y2="254"/>
	<line fill="none" stroke="#030302" stroke-miterlimit="10" x1="191" y1="238.5" x2="177" y2="238.5"/>
	<line fill="none" stroke="#030302" stroke-miterlimit="10" x1="191" y1="244.5" x2="177" y2="244.5"/>
	<line fill="none" stroke="#030302" stroke-miterlimit="10" x1="191" y1="248.5" x2="177" y2="248.5"/>
	<polyline fill="none" stroke="#030302" stroke-miterlimit="10" points="229,232.5 237.9,232.5 247,232.5 	"/>
	<polyline fill="none" stroke="#030302" stroke-miterlimit="10" points="229,233.5 237.9,233.5 247,233.5 	"/>
	<polyline fill="none" stroke="#030302" stroke-miterlimit="10" points="229,254.5 237.9,254.5 247,254.5 	"/>
	<polyline fill="none" stroke="#030302" stroke-miterlimit="10" points="229,255.5 237.9,255.5 247,255.5 	"/>
	<line fill="none" stroke="#030302" stroke-miterlimit="10" x1="237.5" y1="256" x2="237.5" y2="232"/>
	<line fill="none" stroke="#030302" stroke-miterlimit="10" x1="244.5" y1="233" x2="244.5" y2="254"/>
	<line fill="none" stroke="#030302" stroke-miterlimit="10" x1="231.5" y1="233" x2="231.5" y2="254"/>
	<line fill="none" stroke="#030302" stroke-miterlimit="10" x1="245" y1="238.5" x2="231" y2="238.5"/>
	<line fill="none" stroke="#030302" stroke-miterlimit="10" x1="245" y1="244.5" x2="231" y2="244.5"/>
	<line fill="none" stroke="#030302" stroke-miterlimit="10" x1="245" y1="248.5" x2="231" y2="248.5"/>
	<polyline fill="none" stroke="#030302" stroke-miterlimit="10" points="285,232.5 293.8,232.5 303,232.5 	"/>
	<polyline fill="none" stroke="#030302" stroke-miterlimit="10" points="285,233.5 293.8,233.5 303,233.5 	"/>
	<polyline fill="none" stroke="#030302" stroke-miterlimit="10" points="285,254.5 293.8,254.5 303,254.5 	"/>
	<polyline fill="none" stroke="#030302" stroke-miterlimit="10" points="285,255.5 293.8,255.5 303,255.5 	"/>
	<line fill="none" stroke="#030302" stroke-miterlimit="10" x1="293.5" y1="256" x2="293.5" y2="232"/>
	<line fill="none" stroke="#030302" stroke-miterlimit="10" x1="300.5" y1="233" x2="300.5" y2="254"/>
	<line fill="none" stroke="#030302" stroke-miterlimit="10" x1="286.5" y1="233" x2="286.5" y2="254"/>
	<line fill="none" stroke="#030302" stroke-miterlimit="10" x1="301" y1="238.5" x2="287" y2="238.5"/>
	<line fill="none" stroke="#030302" stroke-miterlimit="10" x1="301" y1="244.5" x2="287" y2="244.5"/>
	<line fill="none" stroke="#030302" stroke-miterlimit="10" x1="301" y1="248.5" x2="287" y2="248.5"/>
	<polyline fill="none" stroke="#030302" stroke-miterlimit="10" points="523,232.5 532,232.5 541,232.5 	"/>
	<polyline fill="none" stroke="#030302" stroke-miterlimit="10" points="523,233.5 532,233.5 541,233.5 	"/>
	<polyline fill="none" stroke="#030302" stroke-miterlimit="10" points="523,254.5 532,254.5 541,254.5 	"/>
	<polyline fill="none" stroke="#030302" stroke-miterlimit="10" points="523,255.5 532,255.5 541,255.5 	"/>
	<line fill="none" stroke="#030302" stroke-miterlimit="10" x1="531.5" y1="256" x2="531.5" y2="232"/>
	<line fill="none" stroke="#030302" stroke-miterlimit="10" x1="538.5" y1="233" x2="538.5" y2="254"/>
	<line fill="none" stroke="#030302" stroke-miterlimit="10" x1="525.5" y1="233" x2="525.5" y2="254"/>
	<line fill="none" stroke="#030302" stroke-miterlimit="10" x1="539" y1="238.5" x2="525" y2="238.5"/>
	<line fill="none" stroke="#030302" stroke-miterlimit="10" x1="539" y1="244.5" x2="525" y2="244.5"/>
	<line fill="none" stroke="#030302" stroke-miterlimit="10" x1="539" y1="248.5" x2="525" y2="248.5"/>
	<polygon fill="none" stroke="#030302" stroke-miterlimit="10" points="115.5,322.7 115.5,274.5 300.5,274.5 300.5,322.7 
		300.5,495.5 115.5,495.5 	"/>
	<polyline fill="none" stroke="#030302" stroke-miterlimit="10" points="608.5,268 608.5,301.5 642,301.5 	"/>
	<line fill="none" stroke="#030302" stroke-miterlimit="10" x1="525.5" y1="53" x2="525.5" y2="23"/>
	<line fill="none" stroke="#030302" stroke-miterlimit="10" x1="525.5" y1="65" x2="525.5" y2="96"/>
	<line fill="none" stroke="#030302" stroke-miterlimit="10" x1="550.5" y1="31" x2="550.5" y2="94"/>
	<line fill="none" stroke="#030302" stroke-miterlimit="10" x1="551" y1="64.5" x2="612" y2="64.5"/>
	<line fill="none" stroke="#030302" stroke-miterlimit="10" x1="573.5" y1="65" x2="573.5" y2="94"/>
	<line fill="none" stroke="#030302" stroke-miterlimit="10" x1="642.5" y1="31" x2="642.5" y2="73"/>
	<path fill="none" stroke="#030302" stroke-width="3" stroke-linecap="round" stroke-linejoin="round" stroke-miterlimit="10" d="
		M650.4,64.8c-6.4,6.4-9.3,11.7-9.3,11.7"/>
	<path fill="none" stroke="#030302" stroke-width="3" stroke-linecap="round" stroke-linejoin="round" stroke-miterlimit="10" d="
		M629.3,106.8c0,0-2.9,13.6,1.2,25.6"/>
	<path fill="none" stroke="#030302" stroke-width="3" stroke-linecap="round" stroke-linejoin="round" stroke-miterlimit="10" d="
		M639.4,155.4c0,0,2.6,7.9,11,13.6"/>
	<path fill="none" stroke="#030302" stroke-width="3" stroke-linecap="round" stroke-linejoin="round" stroke-miterlimit="10" d="
		M668,182.2c0,0,3.9,3.6,13,5.8"/>
	
		<line fill="none" stroke="#030302" stroke-linecap="round" stroke-linejoin="round" stroke-miterlimit="10" x1="678.5" y1="204" x2="678.5" y2="189"/>
	<line fill="none" stroke="#030302" stroke-miterlimit="10" x1="331.5" y1="348" x2="331.5" y2="369"/>
	<rect x="523.5" y="271.5" fill="none" stroke="#030302" stroke-miterlimit="10" width="66" height="101"/>
	<line fill="none" stroke="#030302" stroke-miterlimit="10" x1="575.5" y1="373" x2="575.5" y2="271"/>
	<polyline fill="none" stroke="#030302" stroke-width="3" stroke-miterlimit="10" points="649,466.5 642.5,466.5 642.5,308 	"/>
	<polyline fill="none" stroke="#030302" stroke-width="3" stroke-miterlimit="10" points="648,487.5 593.5,487.5 593.5,613.5 
		9.5,613.5 9.5,555.5 1.5,555.5 1.5,519.5 71.5,519.5 71.5,325 71.5,317.5 35.5,317.5 35.5,204.5 71.5,204.5 71.5,30.5 526,30.5 	
		"/>
	<polygon fill="none" stroke="#030302" stroke-miterlimit="10" points="415.5,502.5 115.5,502.5 115.5,532.5 157.5,532.5 
		157.5,587.5 415.5,587.5 	"/>
	<polygon fill="none" stroke="#030302" stroke-miterlimit="10" points="420.5,587.5 420.5,502.5 501.5,502.5 501.5,380.5 
		525.5,380.5 525.5,587.5 	"/>
	<polygon fill="none" stroke="#030302" stroke-miterlimit="10" points="531.5,587.5 562.5,587.5 562.5,423.5 589.5,423.5 
		589.5,380.5 531.5,380.5 	"/>
	<polyline fill="none" stroke="#030302" stroke-miterlimit="10" points="127,544.5 143.5,544.5 143.5,613 	"/>
	<polyline fill="none" stroke="#030302" stroke-miterlimit="10" points="106.5,613 106.5,544.5 111,544.5 	"/>
	<polyline fill="none" stroke="#030302" stroke-miterlimit="10" points="71.5,613 71.5,544.5 87,544.5 	"/>
	<polyline fill="none" stroke="#030302" stroke-miterlimit="10" points="9,554.5 35.5,554.5 35.5,565 	"/>
	<line fill="none" stroke="#030302" stroke-miterlimit="10" x1="9" y1="575.5" x2="54" y2="575.5"/>
	<polygon fill="#030302" points="9,613.4 9,595 71,595 71,613.4 	"/>
	<polygon points="662.9,292 674.5,256 659,256 659,292 	"/>
	<line stroke="#000000" stroke-linecap="round" stroke-miterlimit="10" x1="674.4" y1="256.2" x2="691" y2="262.3"/>
	<line fill="#FFFFFF" stroke="#000000" stroke-miterlimit="10" x1="672.3" y1="259.2" x2="690.1" y2="266.6"/>
	<line fill="#FFFFFF" stroke="#000000" stroke-miterlimit="10" x1="671.2" y1="262.1" x2="689.1" y2="269.4"/>
	<line fill="#FFFFFF" stroke="#000000" stroke-miterlimit="10" x1="670" y1="265.1" x2="687.8" y2="272.4"/>
	<line fill="#FFFFFF" stroke="#000000" stroke-miterlimit="10" x1="670" y1="268.3" x2="687.8" y2="275.7"/>
	<line fill="#FFFFFF" stroke="#000000" stroke-miterlimit="10" x1="669" y1="271" x2="686.9" y2="278.3"/>
	<line fill="#FFFFFF" stroke="#000000" stroke-miterlimit="10" x1="644" y1="257.5" x2="661" y2="257.5"/>
	<line fill="#FFFFFF" stroke="#000000" stroke-miterlimit="10" x1="644" y1="262.5" x2="661" y2="262.5"/>
	<line fill="#FFFFFF" stroke="#000000" stroke-miterlimit="10" x1="644" y1="265.5" x2="661" y2="265.5"/>
	<line fill="#FFFFFF" stroke="#000000" stroke-miterlimit="10" x1="644" y1="267.5" x2="661" y2="267.5"/>
	<line fill="#FFFFFF" stroke="#000000" stroke-miterlimit="10" x1="644" y1="270.5" x2="661" y2="270.5"/>
	<line fill="#FFFFFF" stroke="#000000" stroke-miterlimit="10" x1="644" y1="273.5" x2="661" y2="273.5"/>
	<line fill="#FFFFFF" stroke="#000000" stroke-miterlimit="10" x1="644" y1="276.5" x2="661" y2="276.5"/>
	<line fill="#FFFFFF" stroke="#000000" stroke-miterlimit="10" x1="644" y1="278.5" x2="661" y2="278.5"/>
	<line fill="#FFFFFF" stroke="#000000" stroke-miterlimit="10" x1="644" y1="281.5" x2="661" y2="281.5"/>
	<line fill="#FFFFFF" stroke="#000000" stroke-miterlimit="10" x1="644" y1="284.5" x2="661" y2="284.5"/>
	<line fill="#FFFFFF" stroke="#000000" stroke-miterlimit="10" x1="644" y1="287.5" x2="661" y2="287.5"/>
	<line fill="#FFFFFF" stroke="#000000" stroke-miterlimit="10" x1="644" y1="290.5" x2="661" y2="290.5"/>
	<path fill="#FFFFFF" stroke="#000000" stroke-miterlimit="10" d="M35.4,263.2"/>
	<line fill="#FFFFFF" stroke="#000000" stroke-miterlimit="10" x1="54" y1="263.5" x2="35" y2="263.5"/>
	<line fill="#FFFFFF" stroke="#000000" stroke-miterlimit="10" x1="54" y1="266.5" x2="35" y2="266.5"/>
	<line fill="#FFFFFF" stroke="#000000" stroke-miterlimit="10" x1="54" y1="269.5" x2="35" y2="269.5"/>
	<line fill="#FFFFFF" stroke="#000000" stroke-miterlimit="10" x1="54" y1="272.5" x2="35" y2="272.5"/>
	<polyline fill="#FFFFFF" stroke="#000000" stroke-miterlimit="10" points="54,275.5 38.7,275.5 35,275.5 	"/>
	<polyline fill="none" stroke="#000000" stroke-miterlimit="10" points="54,281.5 46,281.5 41.5,281.5 41.5,279 	"/>
	<polyline fill="none" stroke="#000000" stroke-miterlimit="10" points="38.5,276 38.5,278.5 43.8,278.5 54,278.5 	"/>
	<line stroke="#030302" stroke-miterlimit="10" x1="611.5" y1="65" x2="611.5" y2="31"/>
	<line stroke="#030302" stroke-miterlimit="10" x1="608.5" y1="65" x2="608.5" y2="31"/>
	<line stroke="#030302" stroke-miterlimit="10" x1="603.5" y1="65" x2="603.5" y2="31"/>
	<line stroke="#030302" stroke-miterlimit="10" x1="598.5" y1="65" x2="598.5" y2="31"/>
	<line stroke="#030302" stroke-miterlimit="10" x1="593.5" y1="65" x2="593.5" y2="31"/>
	<line stroke="#030302" stroke-miterlimit="10" x1="589.5" y1="65" x2="589.5" y2="31"/>
	<line stroke="#030302" stroke-miterlimit="10" x1="583.5" y1="65" x2="583.5" y2="31"/>
	<polyline fill="none" stroke="#030302" stroke-miterlimit="10" points="579.5,31 579.5,57.5 584,57.5 	"/>
	<polyline fill="none" stroke="#030302" stroke-miterlimit="10" points="575.5,31 575.5,48.5 580,48.5 	"/>
	<polyline fill="none" stroke="#030302" stroke-miterlimit="10" points="571.5,32 571.5,36.5 575,36.5 	"/>
	<polyline fill="none" stroke="#030302" stroke-miterlimit="10" points="331.5,310 331.5,336.5 491,336.5 	"/>
	<polyline fill="none" stroke="#030302" stroke-miterlimit="10" points="491.5,310 491.5,337 491.5,407.5 474,407.5 	"/>
	<line fill="none" stroke="#030302" stroke-miterlimit="10" x1="491.5" y1="299" x2="491.5" y2="272"/>
	<line fill="none" stroke="#030302" stroke-miterlimit="10" x1="331.5" y1="299" x2="331.5" y2="272"/>
	<polyline fill="none" stroke="#030302" stroke-miterlimit="10" points="347,299.5 355.5,299.5 355.5,278 	"/>
	<polyline fill="none" stroke="#030302" stroke-miterlimit="10" points="369,299.5 377.5,299.5 377.5,277 	"/>
	<polyline fill="none" stroke="#030302" stroke-miterlimit="10" points="392,299.5 400.5,299.5 400.5,277 	"/>
	<polyline fill="none" stroke="#030302" stroke-miterlimit="10" points="415,299.5 423.5,299.5 423.5,277 	"/>
	<polyline fill="none" stroke="#030302" stroke-miterlimit="10" points="436,299.5 444.5,299.5 444.5,277 	"/>
	<polyline fill="none" stroke="#030302" stroke-miterlimit="10" points="459,299.5 467.5,299.5 467.5,277 	"/>
	<line fill="none" stroke="#030302" stroke-miterlimit="10" x1="468" y1="299.5" x2="474" y2="299.5"/>
	<polyline fill="none" stroke="#030302" stroke-miterlimit="10" points="355.5,337 355.5,311.5 347,311.5 	"/>
	<polyline fill="none" stroke="#030302" stroke-miterlimit="10" points="377.5,337 377.5,311.5 369,311.5 	"/>
	<polyline fill="none" stroke="#030302" stroke-miterlimit="10" points="401.5,337 401.5,311.5 393,311.5 	"/>
	<polyline fill="none" stroke="#030302" stroke-miterlimit="10" points="423.5,337 423.5,311.5 415,311.5 	"/>
	<polyline fill="none" stroke="#030302" stroke-miterlimit="10" points="444.5,337 444.5,311.5 436,311.5 	"/>
	<polyline fill="none" stroke="#030302" stroke-miterlimit="10" points="467.5,337 467.5,311.5 459,311.5 	"/>
	<line fill="none" stroke="#030302" stroke-miterlimit="10" x1="468" y1="311.5" x2="474" y2="311.5"/>
	<line fill="none" stroke="#030302" stroke-width="2" stroke-miterlimit="10" x1="331" y1="276" x2="491" y2="276"/>
	<line fill="none" stroke="#030302" stroke-width="2" stroke-miterlimit="10" x1="351" y1="277" x2="351" y2="268"/>
	<polyline fill="none" stroke="#030302" stroke-miterlimit="10" points="352,270.5 393.5,270.5 393.5,276 	"/>
	<rect x="406" y="247" fill="#030302" width="15" height="10"/>
	<polyline fill="none" stroke="#030302" stroke-miterlimit="10" points="587,166.5 550.5,166.5 550.5,159 	"/>
	<rect x="409" y="337" fill="#030302" width="82" height="29"/>
	<polyline fill="none" stroke="#030302" stroke-miterlimit="10" points="408.5,366 408.5,407.9 408.5,382.5 331.5,382.5 
		331.5,407.5 343,407.5 	"/>
	<polyline fill="none" stroke="#030302" stroke-miterlimit="10" points="371,407.5 358.5,407.5 358.5,383 	"/>
	<polyline fill="none" stroke="#030302" stroke-miterlimit="10" points="398,407.5 382.5,407.5 382.5,383 	"/>
	<polyline fill="none" stroke="#030302" stroke-miterlimit="10" points="459,407.5 462.5,407.5 462.5,395.5 470.9,395.5 
		423.5,395.5 423.5,407.5 429.5,407.5 429.5,401.5 436.5,401.5 436.5,407.5 449,407.5 	"/>
	<line fill="none" stroke="#030302" stroke-miterlimit="10" x1="437.5" y1="395" x2="437.5" y2="359"/>
	<polyline fill="none" stroke="#030302" stroke-miterlimit="10" points="436,423.5 408.5,423.5 408.5,487.5 449.8,487.5 
		447.5,487.5 447.5,423 	"/>
	<polyline fill="none" stroke="#030302" stroke-miterlimit="10" points="447,438.5 491.5,438.5 491.5,423.1 491.5,487.5 468,487.5 	
		"/>
	<line fill="none" stroke="#030302" stroke-miterlimit="10" x1="447" y1="462.5" x2="491" y2="462.5"/>
	<line fill="none" stroke="#030302" stroke-miterlimit="10" x1="467.5" y1="464" x2="467.5" y2="438"/>
	<rect x="71" y="604" fill="#030302" width="36" height="9"/>
	<line fill="none" stroke="#030302" stroke-miterlimit="10" x1="88.5" y1="560" x2="88.5" y2="595"/>
	<line fill="none" stroke="#030302" stroke-miterlimit="10" x1="71" y1="563.5" x2="107" y2="563.5"/>
	<line fill="none" stroke="#030302" stroke-miterlimit="10" x1="71" y1="567.5" x2="107" y2="567.5"/>
	<line fill="none" stroke="#030302" stroke-miterlimit="10" x1="71" y1="572.5" x2="107" y2="572.5"/>
	<line fill="none" stroke="#030302" stroke-miterlimit="10" x1="71" y1="578.5" x2="107" y2="578.5"/>
	<line fill="none" stroke="#030302" stroke-miterlimit="10" x1="71" y1="583.5" x2="107" y2="583.5"/>
	<line fill="none" stroke="#030302" stroke-miterlimit="10" x1="71" y1="588.5" x2="107" y2="588.5"/>
	<line fill="none" stroke="#030302" stroke-miterlimit="10" x1="71" y1="593.5" x2="107" y2="593.5"/>
	<line fill="none" stroke="#030302" stroke-miterlimit="10" x1="575.5" y1="380" x2="575.5" y2="423"/>
	<polyline fill="none" stroke="#030302" stroke-miterlimit="10" points="608.5,311 608.5,328.5 642,328.5 	"/>
	<polyline fill="none" stroke="#030302" stroke-miterlimit="10" points="608.5,341 608.5,352.5 642,352.5 	"/>
	<polyline fill="none" stroke="#030302" stroke-miterlimit="10" points="608.5,366 608.5,380.5 642,380.5 	"/>
	<polyline fill="none" stroke="#030302" stroke-miterlimit="10" points="608.5,392 608.5,404.5 642,404.5 	"/>
	<line fill="none" stroke="#030302" stroke-miterlimit="10" x1="573" y1="431.5" x2="641" y2="431.5"/>
	<polyline fill="none" stroke="#030302" stroke-miterlimit="10" points="628,448.5 573.5,448.5 573.5,466 	"/>
	<line fill="none" stroke="#030302" stroke-miterlimit="10" x1="591" y1="467.5" x2="642" y2="467.5"/>
	<line fill="none" stroke="#030302" stroke-miterlimit="10" x1="624.5" y1="432" x2="624.5" y2="468"/>
	<line fill="none" stroke="#030302" stroke-miterlimit="10" x1="619.5" y1="432" x2="619.5" y2="468"/>
	<line fill="none" stroke="#030302" stroke-miterlimit="10" x1="613.5" y1="432" x2="613.5" y2="468"/>
	<line fill="none" stroke="#030302" stroke-miterlimit="10" x1="609.5" y1="432" x2="609.5" y2="468"/>
	<line fill="none" stroke="#030302" stroke-miterlimit="10" x1="605.5" y1="432" x2="605.5" y2="468"/>
	<line fill="none" stroke="#030302" stroke-miterlimit="10" x1="600.5" y1="432" x2="600.5" y2="468"/>
	<line fill="none" stroke="#030302" stroke-miterlimit="10" x1="595.5" y1="432" x2="595.5" y2="468"/>
	<line fill="none" stroke="#030302" stroke-miterlimit="10" x1="641.5" y1="468" x2="641.5" y2="487"/>
	<line fill="none" stroke="#030302" stroke-miterlimit="10" x1="647.5" y1="468" x2="647.5" y2="487"/>
	<line fill="none" stroke="#000000" stroke-miterlimit="10" x1="608.5" y1="419" x2="608.5" y2="432"/>
	<rect x="7.5" y="525.5" fill="none" stroke="#000000" stroke-miterlimit="10" width="26" height="23"/>
</g>
</svg>
