<?xml version="1.0" encoding="utf-8"?>
<!-- Generator: Adobe Illustrator 18.1.1, SVG Export Plug-In . SVG Version: 6.00 Build 0)  -->
<svg version="1.1" xmlns="http://www.w3.org/2000/svg" xmlns:xlink="http://www.w3.org/1999/xlink" x="0px" y="0px"
	 viewBox="0 0 779.6 612" enable-background="new 0 0 779.6 612" xml:space="preserve">
<g id="Layer_4">
	<polyline fill="none" points="379.6,137.9 447.7,137.9 447.7,107.6 475.9,107.6 475.9,26.1 463.1,26.1 463.1,12.7 361.5,12.7 
		361.5,26.1 351.6,26.1 351.6,107.6 379.1,107.6 379.1,139.6 	"/>
	<rect x="496" y="39.5" fill="none" width="53" height="156.6"/>
	<rect x="551.9" y="39.5" fill="none" width="57.6" height="156.6"/>
	<path fill="none" d="M703.7,41.2c-41.7,0-76,37.5-71.1,76.3c5.7,45.4,29.5,69.8,71.1,69.8c41.7,0,75.4-32.7,75.4-73.1
		C779.1,73.9,745.3,41.2,703.7,41.2z M730.1,137.9h-48V89.5h48V137.9z"/>
	<polygon fill="none" points="643.3,305 643.3,225.8 700.4,225.8 700.4,239 678.8,305 	"/>
	<rect x="228.1" y="171.5" fill="none" width="75.7" height="30.8"/>
	<rect x="175.1" y="230.4" fill="none" width="13.9" height="21"/>
	<rect x="229" y="228.2" fill="none" width="13.9" height="23.3"/>
	<rect x="283.8" y="228.2" fill="none" width="13.9" height="23.3"/>
	<rect x="526" y="229.3" fill="none" width="13.9" height="22.1"/>
	<path fill="none" d="M32.5,313.8"/>
	<rect x="32.5" y="201.2" fill="none" width="38.2" height="112.6"/>
	<rect x="5.9" y="520.5" fill="none" width="18.9" height="24.2"/>
	<polygon fill="none" points="9.4,610 9.4,548.9 27.2,548.3 27.2,516.9 69.7,516.9 69.7,610 	"/>
	<polygon fill="none" points="69.6,539.1 105.9,539.1 105.9,610 69.7,610 	"/>
	<rect x="114.6" y="496.8" fill="none" width="389.3" height="84.6"/>
	<rect x="114.6" y="378" fill="none" width="70.1" height="103.5"/>
	<rect x="190.9" y="378" fill="none" width="112.9" height="103.5"/>
	<rect x="306.3" y="378" fill="none" width="9.5" height="103.5"/>
	<rect x="114.6" y="268.3" fill="none" width="170.7" height="99"/>
	<polygon fill="none" points="510,581.4 563.6,581.4 563.6,421.1 609.6,421.1 609.6,268.3 549,268.3 549,349.6 510,349.6 	"/>
	<rect x="510" y="268.3" fill="none" width="34.9" height="73.6"/>
	<rect x="574.8" y="424.8" fill="none" width="68.4" height="36.1"/>
	<polyline fill="none" points="333,481.4 409.8,481.4 409.8,449.8 333,449.8 333,481.4 	"/>
	<polyline fill="none" points="359.6,449.8 359.6,418.2 333,418.2 333,449.8 359.6,449.8 	"/>
	<polyline fill="none" points="384.7,449.8 384.7,418.2 359.6,418.2 359.6,449.8 384.7,449.8 	"/>
	<polyline fill="none" points="410.3,449.8 410.3,418.2 385.2,418.2 385.2,449.8 410.3,449.8 	"/>
	<polygon fill="none" points="409.8,481.4 450.9,481.4 450.9,418.2 410.3,418.2 	"/>
	<rect x="450.2" y="418.2" fill="none" width="41.7" height="40.2"/>
	<polygon fill="none" points="463.4,402.2 492,402.2 492,360.2 440.6,360.2 440.6,390.7 463.4,390.7 	"/>
	<rect x="384.7" y="379.1" fill="none" width="25.1" height="23.1"/>
	<rect x="360" y="379.1" fill="none" width="25.1" height="23.1"/>
	<rect x="333" y="379.1" fill="none" width="26.6" height="23.1"/>
	<rect x="333" y="332.4" fill="none" width="76.8" height="46.7"/>
	<polygon fill="none" points="355.4,331.8 355.4,309.6 333,309.6 333,332.4 	"/>
	<polygon fill="none" points="355.4,298.3 355.4,274.7 333,274.7 333,298.9 	"/>
	<polygon fill="none" points="377.3,298.3 377.3,274.7 354.8,274.7 354.8,298.9 	"/>
	<polygon fill="none" points="401.2,298.3 401.2,274.7 378.7,274.7 378.7,298.9 	"/>
	<polygon fill="none" points="422.4,298.3 422.4,274.7 402.5,274.7 402.5,298.9 	"/>
	<polygon fill="none" points="446.5,298.3 446.5,274.7 422.8,274.7 422.8,298.9 	"/>
	<polygon fill="none" points="468.4,298.3 468.4,274.7 445.6,274.7 445.6,298.9 	"/>
	<polygon fill="none" points="491.6,298.3 491.6,274.7 468.8,274.7 468.8,298.9 	"/>
	<polygon fill="none" points="377.3,331.8 377.3,309.6 354.8,309.6 354.8,332.4 	"/>
	<polygon fill="none" points="402.1,331.8 402.1,309.6 377.9,309.6 377.9,332.4 	"/>
	<polygon fill="none" points="422.4,331.8 422.4,309.6 402.1,309.6 402.1,332.4 	"/>
	<polygon fill="none" points="446.5,331.8 446.5,309.6 422.4,309.6 422.4,332.4 	"/>
	<polygon fill="none" points="468.4,331.8 468.4,309.6 446.5,309.6 446.5,332.4 	"/>
	<polygon fill="none" points="492,331.8 492,309.6 468.4,309.6 468.4,332.4 	"/>
</g>
<g id="Major_Lines">
	<path fill="none" stroke="#030302" stroke-width="3.4065" stroke-miterlimit="10" d="M695.7,39.5c113,0,106,148.5,0,148.5"/>
	<path fill="none" stroke="#030302" stroke-width="2.271" stroke-miterlimit="10" d="M349.3,228.2"/>
	<polyline fill="none" stroke="#030302" stroke-width="3.4065" stroke-miterlimit="10" points="700.4,189.2 700.4,200.2 
		666.1,200.2 666.1,208.3 666.1,225.8 685.5,225.8 700.4,225.8 700.4,240.9 678.8,305 643.3,305 643.3,319.1 643.3,252 643.3,228.2 
		628.2,228.2 	"/>
	<path fill="none" stroke="#030302" stroke-width="2.271" stroke-miterlimit="10" d="M628.2,228.2"/>
	<polyline fill="none" stroke="#030302" stroke-width="1.1355" stroke-miterlimit="10" points="173.2,229.3 182,229.3 190.9,229.3 	
		"/>
	<polyline fill="none" stroke="#030302" stroke-width="1.1355" stroke-miterlimit="10" points="173.2,230.4 182,230.4 190.9,230.4 	
		"/>
	<polyline fill="none" stroke="#030302" stroke-width="1.1355" stroke-miterlimit="10" points="173.2,251.4 182,251.4 190.9,251.4 	
		"/>
	<polyline fill="none" stroke="#030302" stroke-width="1.1355" stroke-miterlimit="10" points="173.2,252.5 182,252.5 190.9,252.5 	
		"/>
	<line fill="none" stroke="#030302" stroke-width="1.1355" stroke-miterlimit="10" x1="182" y1="252.9" x2="182" y2="229.3"/>
	<line fill="none" stroke="#030302" stroke-width="1.1355" stroke-miterlimit="10" x1="189" y1="230.4" x2="189" y2="251.4"/>
	<line fill="none" stroke="#030302" stroke-width="1.1355" stroke-miterlimit="10" x1="175.1" y1="230.4" x2="175.1" y2="251.4"/>
	<line fill="none" stroke="#030302" stroke-width="1.1355" stroke-miterlimit="10" x1="188.8" y1="235.8" x2="175.2" y2="235.8"/>
	<line fill="none" stroke="#030302" stroke-width="1.1355" stroke-miterlimit="10" x1="188.8" y1="241.4" x2="175.2" y2="241.4"/>
	<line fill="none" stroke="#030302" stroke-width="1.1355" stroke-miterlimit="10" x1="188.8" y1="245.6" x2="175.2" y2="245.6"/>
	<polyline fill="none" stroke="#030302" stroke-width="1.1355" stroke-miterlimit="10" points="227,228.2 235.9,228.2 244.8,228.2 	
		"/>
	<polyline fill="none" stroke="#030302" stroke-width="1.1355" stroke-miterlimit="10" points="227,229.3 235.9,229.3 244.8,229.3 	
		"/>
	<polyline fill="none" stroke="#030302" stroke-width="1.1355" stroke-miterlimit="10" points="227,250.3 235.9,250.3 244.8,250.3 	
		"/>
	<polyline fill="none" stroke="#030302" stroke-width="1.1355" stroke-miterlimit="10" points="227,251.4 235.9,251.4 244.8,251.4 	
		"/>
	<line fill="none" stroke="#030302" stroke-width="1.1355" stroke-miterlimit="10" x1="235.9" y1="251.8" x2="235.9" y2="228.2"/>
	<line fill="none" stroke="#030302" stroke-width="1.1355" stroke-miterlimit="10" x1="242.8" y1="229.3" x2="242.8" y2="250.3"/>
	<line fill="none" stroke="#030302" stroke-width="1.1355" stroke-miterlimit="10" x1="229" y1="229.3" x2="229" y2="250.3"/>
	<line fill="none" stroke="#030302" stroke-width="1.1355" stroke-miterlimit="10" x1="283.9" y1="234.7" x2="229.1" y2="234.7"/>
	<line fill="none" stroke="#030302" stroke-width="1.1355" stroke-miterlimit="10" x1="283.9" y1="240.3" x2="229.1" y2="240.3"/>
	<line fill="none" stroke="#030302" stroke-width="1.1355" stroke-miterlimit="10" x1="283.9" y1="244.5" x2="229.1" y2="244.5"/>
	<polyline fill="none" stroke="#030302" stroke-width="1.1355" stroke-miterlimit="10" points="281.9,228.2 290.7,228.2 
		299.6,228.2 	"/>
	<polyline fill="none" stroke="#030302" stroke-width="1.1355" stroke-miterlimit="10" points="281.9,229.3 290.7,229.3 
		299.6,229.3 	"/>
	<polyline fill="none" stroke="#030302" stroke-width="1.1355" stroke-miterlimit="10" points="281.9,250.3 290.7,250.3 
		299.6,250.3 	"/>
	<polyline fill="none" stroke="#030302" stroke-width="1.1355" stroke-miterlimit="10" points="281.9,251.4 290.7,251.4 
		299.6,251.4 	"/>
	<line fill="none" stroke="#030302" stroke-width="1.1355" stroke-miterlimit="10" x1="290.7" y1="251.8" x2="290.7" y2="228.2"/>
	<line fill="none" stroke="#030302" stroke-width="1.1355" stroke-miterlimit="10" x1="297.7" y1="229.3" x2="297.7" y2="250.3"/>
	<line fill="none" stroke="#030302" stroke-width="1.1355" stroke-miterlimit="10" x1="283.8" y1="229.3" x2="283.8" y2="250.3"/>
	<line fill="none" stroke="#030302" stroke-width="1.1355" stroke-miterlimit="10" x1="297.5" y1="234.7" x2="283.9" y2="234.7"/>
	<line fill="none" stroke="#030302" stroke-width="1.1355" stroke-miterlimit="10" x1="297.5" y1="240.3" x2="283.9" y2="240.3"/>
	<line fill="none" stroke="#030302" stroke-width="1.1355" stroke-miterlimit="10" x1="297.5" y1="244.5" x2="283.9" y2="244.5"/>
	<polyline fill="none" stroke="#030302" stroke-width="1.1355" stroke-miterlimit="10" points="524.1,229.3 533,229.3 541.8,229.3 	
		"/>
	<polyline fill="none" stroke="#030302" stroke-width="1.1355" stroke-miterlimit="10" points="524.1,230.4 533,230.4 541.8,230.4 	
		"/>
	<polyline fill="none" stroke="#030302" stroke-width="1.1355" stroke-miterlimit="10" points="524.1,251.4 533,251.4 541.8,251.4 	
		"/>
	<polyline fill="none" stroke="#030302" stroke-width="1.1355" stroke-miterlimit="10" points="524.1,252.5 533,252.5 541.8,252.5 	
		"/>
	<line fill="none" stroke="#030302" stroke-width="1.1355" stroke-miterlimit="10" x1="533" y1="252.9" x2="533" y2="229.3"/>
	<line fill="none" stroke="#030302" stroke-width="1.1355" stroke-miterlimit="10" x1="539.9" y1="230.4" x2="539.9" y2="251.4"/>
	<line fill="none" stroke="#030302" stroke-width="1.1355" stroke-miterlimit="10" x1="526" y1="230.4" x2="526" y2="251.4"/>
	<line fill="none" stroke="#030302" stroke-width="1.1355" stroke-miterlimit="10" x1="539.7" y1="235.8" x2="526.2" y2="235.8"/>
	<line fill="none" stroke="#030302" stroke-width="1.1355" stroke-miterlimit="10" x1="539.7" y1="241.4" x2="526.2" y2="241.4"/>
	<line fill="none" stroke="#030302" stroke-width="1.1355" stroke-miterlimit="10" x1="539.7" y1="245.6" x2="526.2" y2="245.6"/>
	
		<path fill="none" stroke="#030302" stroke-width="3.4065" stroke-linecap="round" stroke-linejoin="round" stroke-miterlimit="10" d="
		M649.4,60.4"/>
	
		<path fill="none" stroke="#030302" stroke-width="1.1355" stroke-linecap="round" stroke-linejoin="round" stroke-miterlimit="10" d="
		M678,185.1"/>
	
		<path fill="none" stroke="#030302" stroke-width="1.1355" stroke-linecap="round" stroke-linejoin="round" stroke-miterlimit="10" d="
		M678,200.2"/>
	<polyline fill="none" stroke="#030302" stroke-width="3.4065" stroke-miterlimit="10" points="706.1,39.5 706.1,26.1 463.1,26.1 
		463.1,12.7 436.6,12.7 388.2,12.7 361.5,12.7 361.5,26.1 68.6,26.1 68.6,201.2 32.5,201.1 32.5,313.8 68.6,313.8 68.6,321.3 
		68.6,516.9 1.7,516.9 1.7,548.9 53.5,548.9 9.4,548.9 9.4,610 595.5,610 595.5,480.9 649.4,480.9 638.7,480.9 638.7,461.9 
		647.1,461.9 643.3,461.9 643.3,319.1 	"/>
	<polyline fill="none" stroke="#030302" stroke-width="1.1355" stroke-miterlimit="10" points="120.6,250.3 142,250.3 142,234.7 
		142,229.3 69.8,229.3 69.8,295.7 69.8,313.8 	"/>
	<path fill="none" stroke="#030302" stroke-width="1.1355" stroke-miterlimit="10" d="M184.7,253"/>
	<path fill="none" stroke="#030302" stroke-width="1.1355" stroke-miterlimit="10" d="M192.6,319.1"/>
	<path fill="none" stroke="#030302" stroke-width="2.271" stroke-miterlimit="10" d="M463.1,26.1"/>
	<polygon fill="none" stroke="#030302" stroke-width="1.1355" stroke-miterlimit="10" points="114.6,319.1 114.6,268.3 285.3,268.3 
		285.3,319.1 285.3,367.3 114.6,367.3 	"/>
	<polygon fill="none" stroke="#030302" stroke-width="1.1355" stroke-miterlimit="10" points="544.9,319.1 544.9,268.3 510,268.3 
		510,319.1 510,341.9 544.9,341.9 	"/>
	<polygon fill="none" stroke="#030302" stroke-width="1.1355" stroke-miterlimit="10" points="549,319.1 549,268.3 609.6,268.3 
		609.6,319.1 609.6,421.1 563.6,421.1 563.6,581.4 510,581.4 510,349 549,349 	"/>
	<polyline fill="#FFFFFF" stroke="#030302" stroke-width="1.1355" stroke-miterlimit="10" points="576.4,251.4 592.7,251.4 
		592.7,229.3 563.6,229.3 563.6,251.4 	"/>
	<rect x="682.1" y="89.5" fill="none" stroke="#030302" stroke-width="1.1355" stroke-miterlimit="10" width="48" height="48.4"/>
	<polyline fill="none" stroke="#030302" stroke-width="1.1355" stroke-miterlimit="10" points="179.8,26.1 179.8,84.9 351.6,84.9 
		351.6,81.9 351.6,202.3 303.8,202.3 303.8,171.5 179.8,171.5 179.8,202.3 69.8,202.3 	"/>
	<polyline fill="none" stroke="#030302" stroke-width="1.1355" stroke-miterlimit="10" points="210.7,26.1 210.7,69.1 239.3,69.1 	
		"/>
	<line fill="none" stroke="#030302" stroke-width="1.1355" stroke-miterlimit="10" x1="239.3" y1="26.1" x2="239.3" y2="55.5"/>
	<line fill="none" stroke="#030302" stroke-width="1.1355" stroke-miterlimit="10" x1="351.6" y1="26.1" x2="351.6" y2="71.5"/>
	<polygon fill="none" stroke="#030302" stroke-width="1.1355" stroke-miterlimit="10" points="496,185.1 496,196.1 549,196.1 
		549,39.5 496,39.5 496,147.7 	"/>
	
		<rect x="551.9" y="39.5" fill="none" stroke="#030302" stroke-width="1.1355" stroke-miterlimit="10" width="57.6" height="156.6"/>
	<polyline fill="none" stroke="#030302" stroke-width="1.1355" stroke-miterlimit="10" points="448.9,229.3 478,229.3 463.4,229.3 
		463.4,250.8 478,250.8 448.9,250.8 	"/>
	<polyline fill="none" stroke="#030302" stroke-width="1.1355" stroke-miterlimit="10" points="379.6,250.3 351.6,250.3 
		365.6,250.3 365.6,229.3 351.6,229.3 379.6,229.3 	"/>
	<line fill="none" stroke="#030302" stroke-width="1.1355" stroke-miterlimit="10" x1="69.8" y1="250.8" x2="94.2" y2="250.8"/>
	<polyline fill="none" stroke="#030302" stroke-width="1.1355" stroke-miterlimit="10" points="333,309.6 333,319.1 333,332.4 
		492,332.4 	"/>
	<line fill="none" stroke="#030302" stroke-width="1.1355" stroke-miterlimit="10" x1="333" y1="298.6" x2="333" y2="268.3"/>
	<polyline fill="none" stroke="#030302" stroke-width="1.1355" stroke-miterlimit="10" points="492,309.6 492,319.1 492,402.2 
		478,402.2 	"/>
	<polyline fill="none" stroke="#030302" stroke-width="1.1355" stroke-miterlimit="10" points="492,298.6 492,272.2 492,268.3 	"/>
	<path fill="none" stroke="#030302" stroke-width="1.1355" stroke-miterlimit="10" d="M333,274.1"/>
	<polyline fill="none" stroke="#030302" stroke-width="1.1355" stroke-miterlimit="10" points="393.5,274.1 393.5,268.3 
		351.6,268.3 351.6,273.4 	"/>
	<line fill="none" stroke="#030302" stroke-width="1.1355" stroke-miterlimit="10" x1="333" y1="274.1" x2="492" y2="274.1"/>
	<polyline fill="none" stroke="#030302" stroke-width="1.1355" stroke-miterlimit="10" points="303.8,202.3 277.6,202.3 
		277.6,171.5 254.9,171.5 254.9,202.3 228.1,202.3 228.1,171.5 228.1,202.3 179.8,202.3 	"/>
	<rect x="351.6" y="150.1" fill="#030302" width="28" height="52.8"/>
	<rect x="449.1" y="150.6" fill="#030302" width="28" height="52.8"/>
	<polyline fill="none" stroke="#030302" stroke-width="1.1355" stroke-miterlimit="10" points="351.6,107.6 379.6,107.6 379.6,97.1 
		401.5,97.1 	"/>
	<polyline fill="none" stroke="#030302" stroke-width="1.1355" stroke-miterlimit="10" points="401.5,137.9 379.6,137.9 
		379.6,107.6 	"/>
	<polyline fill="none" stroke="#030302" stroke-width="1.1355" stroke-miterlimit="10" points="424.3,137.9 447.7,137.9 447.7,97.1 
		424.3,97.1 447.7,97.1 447.7,107.6 475.9,107.6 	"/>
	<line fill="none" stroke="#030302" stroke-width="1.1355" stroke-miterlimit="10" x1="476.5" y1="26.1" x2="476.5" y2="150.9"/>
	<polyline fill="none" stroke="#030302" stroke-width="1.1355" stroke-miterlimit="10" points="666.1,199.1 628.2,199.1 
		643.3,199.1 643.3,155.3 	"/>
	<path fill="#030302" stroke="#000000" stroke-width="2.271" stroke-miterlimit="10" d="M635.8,137.9c12.5,33.7,37.2,42.5,37.2,42.5
		h-28.5v-25"/>
	<path fill="#030302" stroke="#000000" stroke-width="2.271" stroke-miterlimit="10" d="M633,94.2c0,0,3.9-20.3,26.1-38.7h-14.5
		l0,15.1"/>
	<line fill="#030302" stroke="#000000" stroke-width="2.271" stroke-miterlimit="10" x1="644.4" y1="26.1" x2="644.4" y2="55.5"/>
	<polygon fill="#030302" points="661.4,254.1 678,254.1 666.1,290.4 661.4,290.4 	"/>
	<rect x="409.8" y="332.4" fill="#030302" width="82.1" height="27.8"/>
	<polyline fill="none" stroke="#030302" stroke-width="1.1355" stroke-miterlimit="10" points="409.8,360.2 409.8,405.7 
		409.8,379.1 333,379.1 333,402.2 345.4,402.2 	"/>
	<polyline fill="none" stroke="#030302" stroke-width="1.1355" stroke-miterlimit="10" points="359.6,379.1 359.6,402.2 
		372.6,402.2 	"/>
	<polyline fill="none" stroke="#030302" stroke-width="1.1355" stroke-miterlimit="10" points="384.7,379.1 384.7,402.2 
		397.7,402.2 	"/>
	<polyline fill="none" stroke="#030302" stroke-width="1.1355" stroke-miterlimit="10" points="440.6,360.2 440.6,390.7 
		475.9,390.7 428.2,390.7 428.2,402.2 432.9,402.2 432.9,397.5 441.8,397.5 441.8,402.2 454.8,402.2 	"/>
	<polyline fill="none" stroke="#030302" stroke-width="1.1355" stroke-miterlimit="10" points="460.7,402.2 463.4,402.2 
		463.4,390.7 	"/>
	<polyline fill="none" stroke="#030302" stroke-width="1.1355" stroke-miterlimit="10" points="369,481.4 455.4,481.4 450.9,481.4 
		450.9,418.2 450.9,434.1 492,434.1 492,418.2 492,481.4 469,481.4 	"/>
	<polyline fill="none" stroke="#030302" stroke-width="1.1355" stroke-miterlimit="10" points="345.4,418.2 333,418.2 333,481.4 
		356.6,481.4 	"/>
	<polyline fill="none" stroke="#030302" stroke-width="1.1355" stroke-miterlimit="10" points="492,458.4 452,458.4 469.6,458.4 
		469.6,434.1 	"/>
	<polyline fill="none" stroke="#030302" stroke-width="1.1355" stroke-miterlimit="10" points="333,449.8 359.6,449.8 359.6,418.2 
		372.6,418.2 	"/>
	<polyline fill="none" stroke="#030302" stroke-width="1.1355" stroke-miterlimit="10" points="359.6,449.8 384.7,449.8 
		384.7,418.2 401.5,418.2 	"/>
	<polyline fill="none" stroke="#030302" stroke-width="1.1355" stroke-miterlimit="10" points="384.7,449.8 409.8,449.8 
		409.8,481.4 409.8,418.2 438.2,418.2 	"/>
	<line fill="none" stroke="#030302" stroke-width="1.1355" stroke-miterlimit="10" x1="333" y1="341.9" x2="333" y2="363.2"/>
	<polyline fill="none" stroke="#030302" stroke-width="1.1355" stroke-miterlimit="10" points="574.8,463.1 574.8,424.8 
		643.3,424.8 	"/>
	<line fill="none" stroke="#030302" stroke-width="1.1355" stroke-miterlimit="10" x1="592.7" y1="460.8" x2="638.7" y2="460.8"/>
	<line fill="none" stroke="#030302" stroke-width="1.1355" stroke-miterlimit="10" x1="592.7" y1="444" x2="628.2" y2="444"/>
	
		<rect x="114.6" y="496.8" fill="none" stroke="#030302" stroke-width="1.1355" stroke-miterlimit="10" width="389.3" height="84.6"/>
	<rect x="306.3" y="378" fill="none" stroke="#030302" stroke-width="1.1355" stroke-miterlimit="10" width="9.5" height="103.5"/>
	
		<rect x="190.9" y="378" fill="none" stroke="#030302" stroke-width="1.1355" stroke-miterlimit="10" width="112.9" height="103.5"/>
	<rect x="114.6" y="378" fill="none" stroke="#030302" stroke-width="1.1355" stroke-miterlimit="10" width="70.1" height="103.5"/>
	<line fill="none" stroke="#030302" stroke-width="1.1355" stroke-miterlimit="10" x1="105.9" y1="610" x2="105.9" y2="539.1"/>
	<polyline fill="none" stroke="#030302" stroke-width="1.1355" stroke-miterlimit="10" points="88.7,539.1 69.8,539.1 69.8,533.5 
		69.8,610 	"/>
	<line fill="none" stroke="#030302" stroke-width="1.1355" stroke-miterlimit="10" x1="69.7" y1="516.9" x2="69.7" y2="524"/>
	<line fill="none" stroke="#030302" stroke-width="1.1355" stroke-miterlimit="10" x1="69.7" y1="548.3" x2="63.8" y2="548.3"/>
	<line fill="none" stroke="#030302" stroke-width="1.1355" stroke-miterlimit="10" x1="88.7" y1="589.1" x2="88.7" y2="555.4"/>
	<line fill="none" stroke="#030302" stroke-width="1.1355" stroke-miterlimit="10" x1="108.8" y1="229.3" x2="108.8" y2="250.3"/>
	<polyline fill="none" stroke="#030302" stroke-width="1.1355" stroke-miterlimit="10" points="468.4,332.4 468.4,309.6 
		460.7,309.6 475.9,309.6 	"/>
	<polyline fill="none" stroke="#030302" stroke-width="1.1355" stroke-miterlimit="10" points="475.9,298.6 460.7,298.6 
		468.3,298.6 468.3,275 	"/>
	<polyline fill="none" stroke="#030302" stroke-width="1.1355" stroke-miterlimit="10" points="446.5,332.4 446.5,309.6 
		438.2,309.6 	"/>
	<polyline fill="none" stroke="#030302" stroke-width="1.1355" stroke-miterlimit="10" points="422.4,332.4 422.4,309.6 
		414.2,309.6 	"/>
	<polyline fill="none" stroke="#030302" stroke-width="1.1355" stroke-miterlimit="10" points="401.9,332.4 401.9,309.6 
		393.6,309.6 	"/>
	<polyline fill="none" stroke="#030302" stroke-width="1.1355" stroke-miterlimit="10" points="377.9,332.4 377.9,309.6 
		369.6,309.6 	"/>
	<polyline fill="none" stroke="#030302" stroke-width="1.1355" stroke-miterlimit="10" points="355.8,332.4 355.8,309.6 
		347.5,309.6 	"/>
	<polyline fill="none" stroke="#030302" stroke-width="1.1355" stroke-miterlimit="10" points="438.2,298.6 446.5,298.6 
		446.5,274.1 	"/>
	<polyline fill="none" stroke="#030302" stroke-width="1.1355" stroke-miterlimit="10" points="414.2,298.6 422.4,298.6 
		422.4,274.1 	"/>
	<polyline fill="none" stroke="#030302" stroke-width="1.1355" stroke-miterlimit="10" points="393.6,298.6 401.9,298.6 
		401.9,274.1 	"/>
	<polyline fill="none" stroke="#030302" stroke-width="1.1355" stroke-miterlimit="10" points="369.6,298.6 377.9,298.6 
		377.9,274.1 	"/>
	<polyline fill="none" stroke="#030302" stroke-width="1.1355" stroke-miterlimit="10" points="347.5,298.6 355.8,298.6 
		355.8,274.1 	"/>
	<line fill="none" stroke="#030302" stroke-width="1.1355" stroke-miterlimit="10" x1="598.5" y1="460.8" x2="598.5" y2="424.8"/>
	<line fill="none" stroke="#030302" stroke-width="1.1355" stroke-miterlimit="10" x1="603.7" y1="460.8" x2="603.7" y2="424.8"/>
	<line fill="none" stroke="#030302" stroke-width="1.1355" stroke-miterlimit="10" x1="609" y1="460.8" x2="609" y2="424.8"/>
	<line fill="none" stroke="#030302" stroke-width="1.1355" stroke-miterlimit="10" x1="614.6" y1="460.8" x2="614.6" y2="424.8"/>
	<line fill="none" stroke="#030302" stroke-width="1.1355" stroke-miterlimit="10" x1="619.7" y1="460.8" x2="619.7" y2="424.8"/>
	<line fill="none" stroke="#030302" stroke-width="1.1355" stroke-miterlimit="10" x1="625.1" y1="460.8" x2="625.1" y2="424.8"/>
	<line fill="none" stroke="#030302" stroke-width="1.1355" stroke-miterlimit="10" x1="69.6" y1="558.9" x2="105.6" y2="558.9"/>
	<line fill="none" stroke="#030302" stroke-width="1.1355" stroke-miterlimit="10" x1="69.6" y1="564.1" x2="105.6" y2="564.1"/>
	<line fill="none" stroke="#030302" stroke-width="1.1355" stroke-miterlimit="10" x1="69.6" y1="569.5" x2="105.6" y2="569.5"/>
	<line fill="none" stroke="#030302" stroke-width="1.1355" stroke-miterlimit="10" x1="69.6" y1="575" x2="105.6" y2="575"/>
	<line fill="none" stroke="#030302" stroke-width="1.1355" stroke-miterlimit="10" x1="69.6" y1="580.1" x2="105.6" y2="580.1"/>
	<line fill="none" stroke="#030302" stroke-width="1.1355" stroke-miterlimit="10" x1="69.6" y1="585.5" x2="105.6" y2="585.5"/>
	<rect x="5.9" y="520.5" fill="none" stroke="#000000" stroke-width="1.1355" stroke-miterlimit="10" width="18.9" height="24.2"/>
	<path fill="#FFFFFF" stroke="#000000" stroke-width="1.1355" stroke-miterlimit="10" d="M32.9,259.4"/>
	<path fill="none" stroke="#030302" stroke-width="2.271" stroke-miterlimit="10" d="M489.6,272.2"/>
	<rect x="405.5" y="241.6" fill="#030302" width="15" height="10.3"/>
	<path fill="none" stroke="#000000" stroke-width="2.271" stroke-miterlimit="10" d="M678,198.8"/>
	<polygon fill="#030302" points="659.6,253.4 677.5,253.4 664.6,290.6 659.6,290.6 	"/>
	<line fill="none" stroke="#000000" stroke-width="1.1355" stroke-miterlimit="10" x1="644.4" y1="254.6" x2="659.6" y2="254.6"/>
	<line fill="none" stroke="#000000" stroke-width="1.1355" stroke-miterlimit="10" x1="644.4" y1="259.8" x2="659.6" y2="259.8"/>
	<line fill="none" stroke="#000000" stroke-width="1.1355" stroke-miterlimit="10" x1="644.4" y1="264.8" x2="659.6" y2="264.8"/>
	<line fill="none" stroke="#000000" stroke-width="1.1355" stroke-miterlimit="10" x1="644.4" y1="269.5" x2="659.6" y2="269.5"/>
	<line fill="none" stroke="#000000" stroke-width="1.1355" stroke-miterlimit="10" x1="644.4" y1="275" x2="659.6" y2="275"/>
	<line fill="none" stroke="#000000" stroke-width="1.1355" stroke-miterlimit="10" x1="644.4" y1="280.2" x2="659.6" y2="280.2"/>
	<line fill="none" stroke="#000000" stroke-width="1.1355" stroke-miterlimit="10" x1="644.4" y1="285.7" x2="659.6" y2="285.7"/>
	<line fill="none" stroke="#000000" stroke-width="1.1355" stroke-miterlimit="10" x1="674.9" y1="259.5" x2="692.7" y2="268"/>
	<line fill="none" stroke="#000000" stroke-width="1.1355" stroke-miterlimit="10" x1="673.6" y1="264.2" x2="691.4" y2="272.6"/>
	<line fill="none" stroke="#000000" stroke-width="1.1355" stroke-miterlimit="10" x1="671.6" y1="268.5" x2="689.4" y2="276.9"/>
	<line fill="none" stroke="#000000" stroke-width="1.1355" stroke-miterlimit="10" x1="670.1" y1="273" x2="687.9" y2="281.4"/>
	<line fill="none" stroke="#000000" stroke-width="1.1355" stroke-miterlimit="10" x1="668" y1="277.3" x2="685.8" y2="285.7"/>
	<line fill="none" stroke="#000000" stroke-width="1.1355" stroke-miterlimit="10" x1="666.8" y1="281.9" x2="684.6" y2="290.3"/>
	<line fill="none" stroke="#000000" stroke-width="1.1355" stroke-miterlimit="10" x1="664.8" y1="286.3" x2="682.6" y2="294.7"/>
	<line fill="none" stroke="#000000" stroke-width="1.1355" stroke-miterlimit="10" x1="53.5" y1="250.3" x2="53.5" y2="291.6"/>
	<line fill="none" stroke="#000000" stroke-width="1.1355" stroke-miterlimit="10" x1="69.8" y1="252.5" x2="32.9" y2="252.5"/>
	<line fill="none" stroke="#000000" stroke-width="1.1355" stroke-miterlimit="10" x1="69.8" y1="255.8" x2="32.9" y2="255.8"/>
	<line fill="none" stroke="#000000" stroke-width="1.1355" stroke-miterlimit="10" x1="69.8" y1="258.7" x2="32.9" y2="258.7"/>
	<line fill="none" stroke="#000000" stroke-width="1.1355" stroke-miterlimit="10" x1="69.8" y1="262.2" x2="32.9" y2="262.2"/>
	<line fill="none" stroke="#000000" stroke-width="1.1355" stroke-miterlimit="10" x1="69.8" y1="265.5" x2="32.9" y2="265.5"/>
	<line fill="none" stroke="#000000" stroke-width="1.1355" stroke-miterlimit="10" x1="69.8" y1="268.4" x2="32.9" y2="268.4"/>
	<line fill="none" stroke="#000000" stroke-width="1.1355" stroke-miterlimit="10" x1="69.8" y1="271.6" x2="32.9" y2="271.6"/>
	<line fill="none" stroke="#000000" stroke-width="1.1355" stroke-miterlimit="10" x1="69.8" y1="274.9" x2="32.9" y2="274.9"/>
	<line fill="none" stroke="#000000" stroke-width="1.1355" stroke-miterlimit="10" x1="69.8" y1="277.8" x2="32.9" y2="277.8"/>
	<line fill="none" stroke="#000000" stroke-width="1.1355" stroke-miterlimit="10" x1="69.8" y1="281.3" x2="32.9" y2="281.3"/>
	<line fill="none" stroke="#000000" stroke-width="1.1355" stroke-miterlimit="10" x1="69.8" y1="284.6" x2="32.9" y2="284.6"/>
	<line fill="none" stroke="#000000" stroke-width="1.1355" stroke-miterlimit="10" x1="69.8" y1="287.5" x2="32.9" y2="287.5"/>
</g>
</svg>
