<?xml version="1.0" encoding="utf-8"?>
<!-- Generator: Adobe Illustrator 18.1.1, SVG Export Plug-In . SVG Version: 6.00 Build 0)  -->
<svg version="1.1" xmlns="http://www.w3.org/2000/svg" xmlns:xlink="http://www.w3.org/1999/xlink" x="0px" y="0px"
	 viewBox="0 0 780.8 612" enable-background="new 0 0 780.8 612" xml:space="preserve">
<g id="Layer_2">
	<rect x="231.6" y="169.6" fill="none" width="73.6" height="30.8"/>
	<rect x="513.9" y="134" fill="none" width="93.7" height="66.6"/>
	<polygon fill="none" points="643.4,227.1 643.4,304 676.4,304 699.7,239.7 699.7,226.2 	"/>
	<rect x="33.8" y="199.2" fill="none" width="36.6" height="112.6"/>
	<rect x="101.1" y="266.5" fill="none" width="95.9" height="103.6"/>
	<rect x="203.1" y="266.5" fill="none" width="83.2" height="103.6"/>
	<rect x="177.6" y="228.5" fill="none" width="13.9" height="21"/>
	<rect x="231.4" y="227.4" fill="none" width="13.9" height="22.1"/>
	<rect x="286.2" y="227.4" fill="none" width="13.9" height="22.1"/>
	<rect x="528.4" y="227.4" fill="none" width="13.9" height="22.1"/>
	<rect x="71.1" y="538.8" fill="none" width="35.2" height="71.2"/>
	<polyline fill="none" points="8,544.6 27.9,544.6 27.9,520.1 8,520.1 8.2,544.6 	"/>
	<polygon fill="none" points="8,549.6 8,610 71.1,610 71.1,516.3 30.8,516.3 30.8,549.6 	"/>
	<rect x="135.7" y="504.4" fill="none" width="36.7" height="85.6"/>
	<rect x="175.6" y="504.4" fill="none" width="235.8" height="85.6"/>
	<rect x="414.3" y="504.4" fill="none" width="155.1" height="85.6"/>
	<rect x="101.1" y="381.3" fill="none" width="50.8" height="102.2"/>
	<rect x="156" y="381.3" fill="none" width="157.5" height="102.2"/>
	<polygon fill="none" points="562.5,417.7 597.8,417.7 597.8,362.3 513.9,362.3 513.9,481.1 562.5,481.1 	"/>
	<rect x="527.9" y="269" fill="none" width="27.9" height="86.2"/>
	<rect x="559.9" y="269" fill="none" width="37.9" height="86.2"/>
	<rect x="613.1" y="248.4" fill="none" width="28.5" height="37.2"/>
	<rect x="613.1" y="286" fill="none" width="28.5" height="26.7"/>
	<rect x="613.1" y="312.8" fill="none" width="28.5" height="28.3"/>
	<rect x="613.1" y="341.1" fill="none" width="28.5" height="28.3"/>
	<rect x="613.1" y="369.5" fill="none" width="28.5" height="28.3"/>
	<rect x="613.1" y="396.6" fill="none" width="28.5" height="28.3"/>
	<rect x="578.1" y="425.2" fill="none" width="65.3" height="37.3"/>
	<rect x="451.2" y="417.7" fill="none" width="39.7" height="40.2"/>
	<rect x="411.7" y="417.7" fill="none" width="39.5" height="63.5"/>
	<rect x="385.1" y="449.4" fill="none" width="26.6" height="31.7"/>
	<rect x="359.3" y="449.4" fill="none" width="26.6" height="31.7"/>
	<rect x="332.5" y="449.4" fill="none" width="26.6" height="31.7"/>
	<rect x="332.5" y="417.8" fill="none" width="26.6" height="31.7"/>
	<rect x="332.9" y="379" fill="none" width="27.6" height="22"/>
	<rect x="332.9" y="271.2" fill="none" width="23.4" height="23"/>
	<rect x="332.9" y="309" fill="none" width="23.4" height="23"/>
	<rect x="356.3" y="309" fill="none" width="24.4" height="23"/>
	<rect x="380.7" y="309" fill="none" width="21.2" height="23"/>
	<rect x="401.9" y="309" fill="none" width="22.8" height="23"/>
	<rect x="424.7" y="309" fill="none" width="22.8" height="23"/>
	<rect x="447.8" y="309" fill="none" width="20.6" height="23"/>
	<rect x="468.4" y="309" fill="none" width="22.5" height="23"/>
	<rect x="356.3" y="271.2" fill="none" width="24.4" height="23"/>
	<rect x="380.7" y="271.2" fill="none" width="21.2" height="23"/>
	<rect x="401.9" y="271.2" fill="none" width="22.8" height="23"/>
	<rect x="424.7" y="271.2" fill="none" width="22.8" height="23"/>
	<rect x="447.8" y="271.2" fill="none" width="20.6" height="23"/>
	<rect x="468.4" y="271.2" fill="none" width="22.6" height="23"/>
	<rect x="360.3" y="379.3" fill="none" width="24.6" height="21.7"/>
	<rect x="385.3" y="379.3" fill="none" width="26.7" height="21.7"/>
	<rect x="359.3" y="417.8" fill="none" width="26.3" height="31.7"/>
	<rect x="385.3" y="417.8" fill="none" width="26.3" height="31.7"/>
	<polygon fill="none" points="464.4,401 464.4,390 412.5,390 412.5,359.3 491,359.3 491,401 	"/>
	<rect x="332.5" y="332" fill="none" width="79.5" height="46.6"/>
</g>
<g id="Lines">
	<path fill="#FFFFFF" stroke="#000000" stroke-width="1.1354" stroke-miterlimit="10" d="M34.2,257.4"/>
	<path fill="none" stroke="#030302" stroke-width="1.1354" stroke-miterlimit="10" d="M490.9,270.3"/>
	<rect x="406.8" y="239.7" fill="#030302" width="15" height="10.3"/>
	<path fill="none" stroke="#000000" stroke-width="2.2707" stroke-miterlimit="10" d="M679.2,196.8"/>
	<polyline fill="none" stroke="#030302" stroke-width="3.4061" stroke-miterlimit="10" points="662.7,198.3 607.7,198.3 607.7,134 
		513.9,134 513.9,199.4 305.5,199.4 305.5,134 230.4,134 230.4,199.4 33.8,199.4 	"/>
	<polyline fill="none" stroke="#000000" stroke-width="1.1354" stroke-miterlimit="10" points="380,248.9 353.1,248.9 366.6,248.9 
		366.6,227.1 353.1,227.1 380,227.1 	"/>
	<polyline fill="none" stroke="#000000" stroke-width="1.1354" stroke-miterlimit="10" points="475.5,248.9 448.6,248.9 
		462.1,248.9 462.1,227.1 448.6,227.1 475.5,227.1 	"/>
	<line fill="none" stroke="#000000" stroke-width="1.1354" stroke-miterlimit="10" x1="53.7" y1="248.4" x2="53.7" y2="289.6"/>
	<line fill="none" stroke="#000000" stroke-width="1.1354" stroke-miterlimit="10" x1="70.5" y1="250.6" x2="33.1" y2="250.6"/>
	<line fill="none" stroke="#000000" stroke-width="1.1354" stroke-miterlimit="10" x1="70.5" y1="253.9" x2="33.1" y2="253.9"/>
	<line fill="none" stroke="#000000" stroke-width="1.1354" stroke-miterlimit="10" x1="70.5" y1="256.8" x2="33.1" y2="256.8"/>
	<line fill="none" stroke="#000000" stroke-width="1.1354" stroke-miterlimit="10" x1="70.5" y1="260.3" x2="33.1" y2="260.3"/>
	<line fill="none" stroke="#000000" stroke-width="1.1354" stroke-miterlimit="10" x1="70.5" y1="263.6" x2="33.1" y2="263.6"/>
	<line fill="none" stroke="#000000" stroke-width="1.1354" stroke-miterlimit="10" x1="70.2" y1="266.5" x2="33.1" y2="266.5"/>
	<line fill="none" stroke="#000000" stroke-width="1.1354" stroke-miterlimit="10" x1="70" y1="269.7" x2="33.1" y2="269.7"/>
	<line fill="none" stroke="#000000" stroke-width="1.1354" stroke-miterlimit="10" x1="70" y1="273" x2="33.1" y2="273"/>
	<line fill="none" stroke="#000000" stroke-width="1.1354" stroke-miterlimit="10" x1="70" y1="275.9" x2="33.1" y2="275.9"/>
	<line fill="none" stroke="#000000" stroke-width="1.1354" stroke-miterlimit="10" x1="70" y1="279.4" x2="33.1" y2="279.4"/>
	<line fill="none" stroke="#000000" stroke-width="1.1354" stroke-miterlimit="10" x1="70" y1="282.7" x2="33.1" y2="282.7"/>
	<line fill="none" stroke="#000000" stroke-width="1.1354" stroke-miterlimit="10" x1="70" y1="285.6" x2="33.1" y2="285.6"/>
	<polyline fill="none" stroke="#030302" stroke-width="1.1354" stroke-miterlimit="10" points="175.6,227.4 184.5,227.4 
		193.4,227.4 	"/>
	<polyline fill="none" stroke="#030302" stroke-width="1.1354" stroke-miterlimit="10" points="175.6,228.5 184.5,228.5 
		193.4,228.5 	"/>
	<polyline fill="none" stroke="#030302" stroke-width="1.1354" stroke-miterlimit="10" points="175.6,249.5 184.5,249.5 
		193.4,249.5 	"/>
	<polyline fill="none" stroke="#030302" stroke-width="1.1354" stroke-miterlimit="10" points="175.6,250.6 184.5,250.6 
		193.4,250.6 	"/>
	<line fill="none" stroke="#030302" stroke-width="1.1354" stroke-miterlimit="10" x1="184.5" y1="250.9" x2="184.5" y2="227.4"/>
	<line fill="none" stroke="#030302" stroke-width="1.1354" stroke-miterlimit="10" x1="191.4" y1="228.5" x2="191.4" y2="249.5"/>
	<line fill="none" stroke="#030302" stroke-width="1.1354" stroke-miterlimit="10" x1="177.6" y1="228.5" x2="177.6" y2="249.5"/>
	<line fill="none" stroke="#030302" stroke-width="1.1354" stroke-miterlimit="10" x1="191.2" y1="233.9" x2="177.7" y2="233.9"/>
	<line fill="none" stroke="#030302" stroke-width="1.1354" stroke-miterlimit="10" x1="191.2" y1="239.5" x2="177.7" y2="239.5"/>
	<line fill="none" stroke="#030302" stroke-width="1.1354" stroke-miterlimit="10" x1="191.2" y1="243.7" x2="177.7" y2="243.7"/>
	<polyline fill="none" stroke="#030302" stroke-width="1.1354" stroke-miterlimit="10" points="229.5,226.2 238.3,226.2 
		247.2,226.2 	"/>
	<polyline fill="none" stroke="#030302" stroke-width="1.1354" stroke-miterlimit="10" points="229.5,227.3 238.3,227.3 
		247.2,227.3 	"/>
	<polyline fill="none" stroke="#030302" stroke-width="1.1354" stroke-miterlimit="10" points="229.5,248.4 238.3,248.4 
		247.2,248.4 	"/>
	<polyline fill="none" stroke="#030302" stroke-width="1.1354" stroke-miterlimit="10" points="229.5,249.5 238.3,249.5 
		247.2,249.5 	"/>
	<line fill="none" stroke="#030302" stroke-width="1.1354" stroke-miterlimit="10" x1="238.3" y1="249.8" x2="238.3" y2="226.2"/>
	<line fill="none" stroke="#030302" stroke-width="1.1354" stroke-miterlimit="10" x1="245.3" y1="227.3" x2="245.3" y2="248.4"/>
	<line fill="none" stroke="#030302" stroke-width="1.1354" stroke-miterlimit="10" x1="231.4" y1="227.3" x2="231.4" y2="248.4"/>
	<line fill="none" stroke="#030302" stroke-width="1.1354" stroke-miterlimit="10" x1="245.4" y1="232.8" x2="231.6" y2="232.8"/>
	<line fill="none" stroke="#030302" stroke-width="1.1354" stroke-miterlimit="10" x1="245.4" y1="238.3" x2="231.6" y2="238.3"/>
	<line fill="none" stroke="#030302" stroke-width="1.1354" stroke-miterlimit="10" x1="245.4" y1="242.5" x2="231.6" y2="242.5"/>
	<line fill="none" stroke="#030302" stroke-width="1.1354" stroke-miterlimit="10" x1="300.1" y1="232.8" x2="286.2" y2="232.8"/>
	<line fill="none" stroke="#030302" stroke-width="1.1354" stroke-miterlimit="10" x1="300.1" y1="238.3" x2="286.2" y2="238.3"/>
	<line fill="none" stroke="#030302" stroke-width="1.1354" stroke-miterlimit="10" x1="300.1" y1="242.5" x2="286.2" y2="242.5"/>
	<polyline fill="none" stroke="#030302" stroke-width="1.1354" stroke-miterlimit="10" points="284.3,226.2 293.2,226.2 302,226.2 	
		"/>
	<polyline fill="none" stroke="#030302" stroke-width="1.1354" stroke-miterlimit="10" points="284.3,227.3 293.2,227.3 302,227.3 	
		"/>
	<polyline fill="none" stroke="#030302" stroke-width="1.1354" stroke-miterlimit="10" points="284.3,248.4 293.2,248.4 302,248.4 	
		"/>
	<polyline fill="none" stroke="#030302" stroke-width="1.1354" stroke-miterlimit="10" points="284.3,249.5 293.2,249.5 302,249.5 	
		"/>
	<line fill="none" stroke="#030302" stroke-width="1.1354" stroke-miterlimit="10" x1="293.2" y1="249.8" x2="293.2" y2="226.2"/>
	<line fill="none" stroke="#030302" stroke-width="1.1354" stroke-miterlimit="10" x1="300.1" y1="227.3" x2="300.1" y2="248.4"/>
	<line fill="none" stroke="#030302" stroke-width="1.1354" stroke-miterlimit="10" x1="286.3" y1="227.3" x2="286.3" y2="248.4"/>
	<line fill="none" stroke="#030302" stroke-width="1.1354" stroke-miterlimit="10" x1="299.9" y1="232.8" x2="286.4" y2="232.8"/>
	<line fill="none" stroke="#030302" stroke-width="1.1354" stroke-miterlimit="10" x1="299.9" y1="238.3" x2="286.4" y2="238.3"/>
	<line fill="none" stroke="#030302" stroke-width="1.1354" stroke-miterlimit="10" x1="299.9" y1="242.5" x2="286.4" y2="242.5"/>
	<line fill="none" stroke="#030302" stroke-width="1.1354" stroke-miterlimit="10" x1="542.2" y1="232.8" x2="528.3" y2="232.8"/>
	<line fill="none" stroke="#030302" stroke-width="1.1354" stroke-miterlimit="10" x1="542.2" y1="238.3" x2="528.3" y2="238.3"/>
	<line fill="none" stroke="#030302" stroke-width="1.1354" stroke-miterlimit="10" x1="542.2" y1="242.5" x2="528.3" y2="242.5"/>
	<polyline fill="none" stroke="#030302" stroke-width="1.1354" stroke-miterlimit="10" points="526.4,226.2 535.3,226.2 
		544.2,226.2 	"/>
	<polyline fill="none" stroke="#030302" stroke-width="1.1354" stroke-miterlimit="10" points="526.4,227.3 535.3,227.3 
		544.2,227.3 	"/>
	<polyline fill="none" stroke="#030302" stroke-width="1.1354" stroke-miterlimit="10" points="526.4,248.4 535.3,248.4 
		544.2,248.4 	"/>
	<polyline fill="none" stroke="#030302" stroke-width="1.1354" stroke-miterlimit="10" points="526.4,249.5 535.3,249.5 
		544.2,249.5 	"/>
	<line fill="none" stroke="#030302" stroke-width="1.1354" stroke-miterlimit="10" x1="535.3" y1="249.8" x2="535.3" y2="226.2"/>
	<line fill="none" stroke="#030302" stroke-width="1.1354" stroke-miterlimit="10" x1="542.2" y1="227.3" x2="542.2" y2="248.4"/>
	<line fill="none" stroke="#030302" stroke-width="1.1354" stroke-miterlimit="10" x1="528.4" y1="227.3" x2="528.4" y2="248.4"/>
	<line fill="none" stroke="#030302" stroke-width="1.1354" stroke-miterlimit="10" x1="542" y1="232.8" x2="528.5" y2="232.8"/>
	<line fill="none" stroke="#030302" stroke-width="1.1354" stroke-miterlimit="10" x1="542" y1="238.3" x2="528.5" y2="238.3"/>
	<line fill="none" stroke="#030302" stroke-width="1.1354" stroke-miterlimit="10" x1="542" y1="242.5" x2="528.5" y2="242.5"/>
	<path fill="none" stroke="#030302" stroke-width="1.1354" stroke-miterlimit="10" d="M187.1,251.1"/>
	<polygon fill="none" stroke="#030302" stroke-width="1.1354" stroke-miterlimit="10" points="101.1,317.7 101.1,266.5 197,266.5 
		197,317.1 197,370 101.1,370 	"/>
	<polygon fill="none" stroke="#030302" stroke-width="1.1354" stroke-miterlimit="10" points="286.4,317.1 286.4,266.5 203.1,266.5 
		203.1,317.1 203.1,370 286.2,370 	"/>
	<polygon fill="none" stroke="#030302" stroke-width="1.1354" stroke-miterlimit="10" points="527.9,317.1 527.9,269 555.9,269 
		555.9,317.1 555.9,355.2 527.9,355.2 	"/>
	<polygon fill="none" stroke="#030302" stroke-width="1.1354" stroke-miterlimit="10" points="559.9,317.7 559.9,269 597.8,269 
		597.8,317.1 597.8,355.2 559.9,355.2 	"/>
	<polyline fill="none" stroke="#030302" stroke-width="1.1354" stroke-miterlimit="10" points="332.5,296.4 332.5,263.9 332.5,271 
		490.9,271 490.9,265.2 490.9,294.8 	"/>
	<polyline fill="none" stroke="#030302" stroke-width="1.1354" stroke-miterlimit="10" points="305.1,200.4 278.9,200.4 
		278.9,169.6 256.2,169.6 256.2,200.4 229.4,200.4 229.4,169.6 229.4,200.4 181.2,200.4 	"/>
	<line fill="none" stroke="#030302" stroke-width="1.1354" stroke-miterlimit="10" x1="305.1" y1="169.6" x2="229.4" y2="169.6"/>
	<line fill="none" stroke="#030302" stroke-width="1.1354" stroke-miterlimit="10" x1="513.9" y1="200.5" x2="527.9" y2="200.5"/>
	<line fill="none" stroke="#030302" stroke-width="1.1354" stroke-miterlimit="10" x1="593.7" y1="199.4" x2="607.7" y2="199.4"/>
	<polyline fill="none" stroke="#030302" stroke-width="1.1354" stroke-miterlimit="10" points="643.4,312.4 613.1,312.4 
		613.1,292.1 	"/>
	<polyline fill="none" stroke="#030302" stroke-width="1.1354" stroke-miterlimit="10" points="643.4,341 613.1,341 613.1,320.7 	
		"/>
	<polyline fill="none" stroke="#030302" stroke-width="1.1354" stroke-miterlimit="10" points="643.4,369.5 613.1,369.5 
		613.1,349.2 	"/>
	<polyline fill="none" stroke="#030302" stroke-width="1.1354" stroke-miterlimit="10" points="643.4,396.9 613.1,396.9 
		613.1,376.6 	"/>
	<polyline fill="none" stroke="#030302" stroke-width="1.1354" stroke-miterlimit="10" points="643.4,286 613.1,286 613.1,265.7 	
		"/>
	<line fill="none" stroke="#030302" stroke-width="1.1354" stroke-miterlimit="10" x1="614.3" y1="248.4" x2="641.6" y2="248.4"/>
	<polyline fill="#FFFFFF" stroke="#030302" stroke-width="1.1354" stroke-miterlimit="10" points="562.5,249.5 562.5,227.3 
		593.7,227.3 593.7,248.9 578.1,248.9 	"/>
	<polyline fill="none" stroke="#000000" stroke-width="1.1354" stroke-miterlimit="10" points="95.3,250.2 70.8,250.2 70.8,228.7 
		141.8,228.7 141.8,249.8 121.5,249.8 	"/>
	<line fill="none" stroke="#000000" stroke-width="1.1354" stroke-miterlimit="10" x1="69.9" y1="311.8" x2="71.1" y2="228.5"/>
	<line fill="none" stroke="#030302" stroke-width="1.1354" stroke-miterlimit="10" x1="109.1" y1="249.5" x2="109.1" y2="228.5"/>
	
		<rect x="101.1" y="381.3" fill="none" stroke="#000000" stroke-width="1.1354" stroke-miterlimit="10" width="50.8" height="102.2"/>
	
		<rect x="156" y="381.3" fill="none" stroke="#000000" stroke-width="1.1354" stroke-miterlimit="10" width="157.5" height="102.2"/>
	<line fill="none" stroke="#000000" stroke-width="1.1354" stroke-miterlimit="10" x1="332.5" y1="342.1" x2="332.5" y2="362.3"/>
	<polyline fill="none" stroke="#000000" stroke-width="1.1354" stroke-miterlimit="10" points="412.1,359.3 412.1,379 333.2,379 
		333.2,401 346.3,401 	"/>
	<polyline fill="none" stroke="#000000" stroke-width="1.1354" stroke-miterlimit="10" points="360.5,379 360.5,401 373.1,401 	"/>
	<polyline fill="none" stroke="#000000" stroke-width="1.1354" stroke-miterlimit="10" points="384.9,379 384.9,401 400.4,401 	"/>
	<polyline fill="none" stroke="#000000" stroke-width="1.1354" stroke-miterlimit="10" points="412.1,379 412.1,401 417.5,401 
		417.5,395.5 430.7,395.5 430.7,401 448.6,401 	"/>
	<polyline fill="none" stroke="#000000" stroke-width="1.1354" stroke-miterlimit="10" points="457,401 464.4,401 464.4,390 
		475.5,390 412.1,390 	"/>
	<polyline fill="none" stroke="#000000" stroke-width="1.1354" stroke-miterlimit="10" points="345.3,417.7 333.2,417.7 
		333.2,449.4 333.2,481.1 348.3,481.1 	"/>
	<polyline fill="none" stroke="#000000" stroke-width="1.1354" stroke-miterlimit="10" points="371.3,417.7 359.3,417.7 
		359.3,481.1 374.3,481.1 	"/>
	<polyline fill="none" stroke="#000000" stroke-width="1.1354" stroke-miterlimit="10" points="397.2,417.7 385.1,417.7 
		385.1,481.1 400.2,481.1 	"/>
	<polyline fill="none" stroke="#000000" stroke-width="1.1354" stroke-miterlimit="10" points="437.3,417.7 411.7,417.7 
		411.7,481.1 455.3,481.1 	"/>
	<line fill="none" stroke="#000000" stroke-width="1.1354" stroke-miterlimit="10" x1="333.2" y1="449.4" x2="411.4" y2="449.4"/>
	<polyline fill="none" stroke="#000000" stroke-width="1.1354" stroke-miterlimit="10" points="451.2,417.7 451.2,481.1 
		451.2,457.8 490.9,457.8 490.9,481.1 471,481.1 	"/>
	<polyline fill="none" stroke="#000000" stroke-width="1.1354" stroke-miterlimit="10" points="451.2,432.5 491,432.5 491,417.7 
		491,457.8 471,457.8 471,432.5 	"/>
	<polygon fill="none" stroke="#000000" stroke-width="1.1354" stroke-miterlimit="10" points="513.9,362.3 597.8,362.3 597.8,417.7 
		562.5,417.7 562.5,481.1 513.9,481.1 	"/>
	
		<rect x="414.3" y="504.4" fill="none" stroke="#000000" stroke-width="1.1354" stroke-miterlimit="10" width="155.1" height="85.6"/>
	
		<rect x="175.6" y="504.4" fill="none" stroke="#000000" stroke-width="1.1354" stroke-miterlimit="10" width="235.8" height="85.6"/>
	
		<rect x="135.7" y="504.4" fill="none" stroke="#000000" stroke-width="1.1354" stroke-miterlimit="10" width="36.7" height="85.6"/>
	<polyline fill="none" stroke="#030302" stroke-width="1.1354" stroke-miterlimit="10" points="578.1,462.5 578.1,425.2 
		643.4,425.2 613.1,425.2 613.1,404.9 	"/>
	<line fill="none" stroke="#030302" stroke-width="1.1354" stroke-miterlimit="10" x1="593.7" y1="461.4" x2="640.5" y2="461.4"/>
	<line fill="none" stroke="#030302" stroke-width="1.1354" stroke-miterlimit="10" x1="578.1" y1="480" x2="597.8" y2="480"/>
	<line fill="none" stroke="#030302" stroke-width="1.1354" stroke-miterlimit="10" x1="597.8" y1="443.9" x2="629.5" y2="443.9"/>
	<polyline fill="none" stroke="#030302" stroke-width="1.1354" stroke-miterlimit="10" points="106.3,610 106.3,538.8 111.8,538.8 	
		"/>
	<polyline fill="none" stroke="#030302" stroke-width="1.1354" stroke-miterlimit="10" points="71.1,610 71.1,534.7 71.1,538.8 
		88.5,538.8 	"/>
	<line fill="none" stroke="#030302" stroke-width="1.1354" stroke-miterlimit="10" x1="88.5" y1="590" x2="88.5" y2="555.7"/>
	<line fill="none" stroke="#030302" stroke-width="1.1354" stroke-miterlimit="10" x1="71.1" y1="556.1" x2="106.3" y2="556.1"/>
	<line fill="none" stroke="#030302" stroke-width="1.1354" stroke-miterlimit="10" x1="71.1" y1="562.5" x2="106.3" y2="562.5"/>
	<line fill="none" stroke="#030302" stroke-width="1.1354" stroke-miterlimit="10" x1="71.1" y1="568.6" x2="106.3" y2="568.6"/>
	<line fill="none" stroke="#030302" stroke-width="1.1354" stroke-miterlimit="10" x1="71.1" y1="574.9" x2="106.3" y2="574.9"/>
	<line fill="none" stroke="#030302" stroke-width="1.1354" stroke-miterlimit="10" x1="71.1" y1="581.3" x2="106.3" y2="581.3"/>
	<line fill="none" stroke="#030302" stroke-width="1.1354" stroke-miterlimit="10" x1="71.1" y1="587.4" x2="106.3" y2="587.4"/>
	<line fill="none" stroke="#030302" stroke-width="1.1354" stroke-miterlimit="10" x1="597.5" y1="461.5" x2="597.5" y2="426.3"/>
	<line fill="none" stroke="#030302" stroke-width="1.1354" stroke-miterlimit="10" x1="603.9" y1="461.5" x2="603.9" y2="426.3"/>
	<line fill="none" stroke="#030302" stroke-width="1.1354" stroke-miterlimit="10" x1="610" y1="461.5" x2="610" y2="426.3"/>
	<line fill="none" stroke="#030302" stroke-width="1.1354" stroke-miterlimit="10" x1="616.3" y1="461.5" x2="616.3" y2="426.3"/>
	<line fill="none" stroke="#030302" stroke-width="1.1354" stroke-miterlimit="10" x1="622.7" y1="461.5" x2="622.7" y2="426.3"/>
	<line fill="none" stroke="#030302" stroke-width="1.1354" stroke-miterlimit="10" x1="628.8" y1="461.5" x2="628.8" y2="426.3"/>
	<line fill="none" stroke="#030302" stroke-width="1.1354" stroke-miterlimit="10" x1="645.1" y1="254" x2="662.7" y2="254"/>
	<line fill="none" stroke="#030302" stroke-width="1.1354" stroke-miterlimit="10" x1="645.1" y1="260.4" x2="662.7" y2="260.4"/>
	<line fill="none" stroke="#030302" stroke-width="1.1354" stroke-miterlimit="10" x1="645.1" y1="266.5" x2="662.7" y2="266.5"/>
	<line fill="none" stroke="#030302" stroke-width="1.1354" stroke-miterlimit="10" x1="645.1" y1="272.8" x2="662.7" y2="272.8"/>
	<line fill="none" stroke="#030302" stroke-width="1.1354" stroke-miterlimit="10" x1="645.1" y1="279.2" x2="662.7" y2="279.2"/>
	<line fill="none" stroke="#030302" stroke-width="1.1354" stroke-miterlimit="10" x1="645.1" y1="285.3" x2="662.7" y2="285.3"/>
	<line fill="none" stroke="#030302" stroke-width="1.1354" stroke-miterlimit="10" x1="677" y1="255.4" x2="692.4" y2="261.2"/>
	<line fill="none" stroke="#030302" stroke-width="1.1354" stroke-miterlimit="10" x1="674.7" y1="261.4" x2="690.2" y2="267.2"/>
	<line fill="none" stroke="#030302" stroke-width="1.1354" stroke-miterlimit="10" x1="672.6" y1="267.1" x2="688.1" y2="272.9"/>
	<line fill="none" stroke="#030302" stroke-width="1.1354" stroke-miterlimit="10" x1="670.4" y1="273" x2="685.9" y2="278.8"/>
	<line fill="none" stroke="#030302" stroke-width="1.1354" stroke-miterlimit="10" x1="668.2" y1="279" x2="683.6" y2="284.8"/>
	<line fill="none" stroke="#030302" stroke-width="1.1354" stroke-miterlimit="10" x1="666" y1="284.7" x2="681.5" y2="290.5"/>
	<line fill="none" stroke="#030302" stroke-width="1.1354" stroke-miterlimit="10" x1="8" y1="549.6" x2="70.7" y2="549.6"/>
	<rect x="8" y="520.1" fill="none" stroke="#030302" stroke-width="1.1354" stroke-miterlimit="10" width="19.9" height="24.5"/>
	<polyline fill="none" stroke="#030302" stroke-width="1.1354" stroke-miterlimit="10" points="351.9,270.3 351.9,261.4 
		351.9,265.7 392.6,265.7 392.6,271 	"/>
	<polyline fill="none" stroke="#030302" stroke-width="1.1354" stroke-miterlimit="10" points="356.3,332 356.3,309 348.3,309 	"/>
	<polyline fill="none" stroke="#030302" stroke-width="1.1354" stroke-miterlimit="10" points="380.7,332 380.7,309 372.6,309 	"/>
	<polyline fill="none" stroke="#030302" stroke-width="1.1354" stroke-miterlimit="10" points="401.9,332 401.9,309 393.9,309 	"/>
	<polyline fill="none" stroke="#030302" stroke-width="1.1354" stroke-miterlimit="10" points="424.7,332 424.7,309 416.6,309 	"/>
	<polyline fill="none" stroke="#030302" stroke-width="1.1354" stroke-miterlimit="10" points="447.8,332 447.8,309 439.8,309 	"/>
	<polyline fill="none" stroke="#030302" stroke-width="1.1354" stroke-miterlimit="10" points="468.4,332 468.4,309 460.3,309 	"/>
	<line fill="none" stroke="#030302" stroke-width="1.1354" stroke-miterlimit="10" x1="475.5" y1="309" x2="468.4" y2="309"/>
	<polyline fill="none" stroke="#030302" stroke-width="1.1354" stroke-miterlimit="10" points="356.3,271.2 356.3,294.2 
		348.3,294.2 	"/>
	<polyline fill="none" stroke="#030302" stroke-width="1.1354" stroke-miterlimit="10" points="380.7,271.2 380.7,294.2 
		372.6,294.2 	"/>
	<polyline fill="none" stroke="#030302" stroke-width="1.1354" stroke-miterlimit="10" points="401.9,271.2 401.9,294.2 
		393.9,294.2 	"/>
	<polyline fill="none" stroke="#030302" stroke-width="1.1354" stroke-miterlimit="10" points="424.7,271.2 424.7,294.2 
		416.6,294.2 	"/>
	<polyline fill="none" stroke="#030302" stroke-width="1.1354" stroke-miterlimit="10" points="447.8,271.2 447.8,294.2 
		439.8,294.2 	"/>
	<polyline fill="none" stroke="#030302" stroke-width="1.1354" stroke-miterlimit="10" points="468.4,271.2 468.4,294.2 
		460.3,294.2 	"/>
	<line fill="none" stroke="#030302" stroke-width="1.1354" stroke-miterlimit="10" x1="475.5" y1="294.2" x2="468.4" y2="294.2"/>
	<path fill="none" stroke="#030302" stroke-width="3.4061" stroke-miterlimit="10" d="M697,37.6c113,0,106,148.5,0,148.5"/>
	<path fill="none" stroke="#030302" stroke-width="2.2707" stroke-miterlimit="10" d="M629.5,226.2"/>
	
		<path fill="none" stroke="#030302" stroke-width="1.1354" stroke-linecap="round" stroke-linejoin="round" stroke-miterlimit="10" d="
		M679.2,183.2"/>
	
		<path fill="none" stroke="#030302" stroke-width="1.1354" stroke-linecap="round" stroke-linejoin="round" stroke-miterlimit="10" d="
		M679.2,198.3"/>
	<polyline fill="none" stroke="#030302" stroke-width="3.4061" stroke-miterlimit="10" points="707.3,37.6 707.3,24.2 464.4,24.2 
		464.4,10.8 437.9,10.8 389.5,10.8 362.8,10.8 362.8,24.2 69.9,24.2 70,199.2 33.8,199.2 33.8,311.8 69.9,311.8 70.5,317.7 	"/>
	<path fill="none" stroke="#030302" stroke-width="1.1354" stroke-miterlimit="10" d="M194,317.1"/>
	<path fill="none" stroke="#030302" stroke-width="2.2707" stroke-miterlimit="10" d="M464.4,24.2"/>
	<path fill="none" stroke="#030302" stroke-width="1.1354" stroke-miterlimit="10" d="M95.6,248.9"/>
	<path fill="none" stroke="#030302" stroke-width="1.1354" stroke-miterlimit="10" d="M71.1,248.9"/>
	<polygon fill="#030302" points="662.7,252.2 679.2,252.2 667.3,288.5 662.7,288.5 	"/>
	<polyline fill="none" stroke="#030302" stroke-width="3.4061" stroke-miterlimit="10" points="702,186 702,198.3 662.7,198.3 
		662.7,226.2 699.7,226.2 699.7,239.7 676.4,304 643.4,304 643.4,317.1 643.4,462.2 649.4,462.2 640.5,462.2 640.5,481.2 650,481.2 
		597.8,481.2 597.8,610 8,610 8,550.8 1.7,550.8 1.7,516.3 70.5,516.3 70.5,311.8 56.5,311.8 	"/>
	<polyline fill="none" stroke="#030302" stroke-width="3.4061" stroke-miterlimit="10" points="643.4,304 643.4,227.1 626.8,227.1 	
		"/>
	<polyline fill="none" stroke="#030302" stroke-width="1.1354" stroke-miterlimit="10" points="478.2,401 491,401 491,332 	"/>
	<polygon fill="#030302" points="491,359.3 411.4,359.3 411.4,332 490.9,332 	"/>
	<polyline fill="none" stroke="#030302" stroke-width="1.1354" stroke-miterlimit="10" points="332.5,309 332.5,332 491,332 
		491,309 	"/>
	<path fill="#030302" d="M412.5,376.6"/>
	<path fill="#030302" d="M430.7,370"/>
</g>
</svg>
