<?xml version="1.0" encoding="utf-8"?>
<!-- Generator: Adobe Illustrator 18.1.1, SVG Export Plug-In . SVG Version: 6.00 Build 0)  -->
<svg version="1.1" xmlns="http://www.w3.org/2000/svg" xmlns:xlink="http://www.w3.org/1999/xlink" x="0px" y="0px"
	 viewBox="0 0 780.8 612" enable-background="new 0 0 780.8 612" xml:space="preserve">
<g id="Layer_2">
	<rect x="117.1" y="50.3" fill="none" width="201.7" height="107.2"/>
	<rect x="96.5" y="50.3" fill="none" width="20.6" height="107.2"/>
	<rect x="318.7" y="50.3" fill="none" width="18.6" height="107.2"/>
	<rect x="510.9" y="56.1" fill="none" width="86.6" height="137.1"/>
	<rect x="495.6" y="56.1" fill="none" width="15.3" height="108.8"/>
	<rect x="495.6" y="164.9" fill="none" width="15.3" height="27.8"/>
	<polygon fill="none" points="527.2,253.7 527.2,253.7 538.9,253.7 538.9,232.2 527.2,232.2 	"/>
	<polygon fill="none" points="289.1,255.8 289.1,255.8 300.8,255.8 300.8,234.2 289.1,234.2 	"/>
	<polygon fill="none" points="234.7,255.8 234.7,255.8 246.4,255.8 246.4,234.2 234.7,234.2 	"/>
	<polygon fill="none" points="180.9,255.8 180.9,255.8 192.6,255.8 192.6,234.2 180.9,234.2 	"/>
	<rect x="34.5" y="208" fill="none" width="38.2" height="112.4"/>
	<path fill="none" d="M72.7,251.5"/>
	<polygon fill="none" points="234.7,255.8 72.7,255.8 72.7,418.9 360.4,418.9 360.4,334.3 235.1,334.3 	"/>
	<polygon fill="none" points="360.4,334.3 235.1,334.3 235.1,255.8 300.8,255.8 300.8,234.2 360.4,234.2 	"/>
	<rect x="360.4" y="252.1" fill="none" width="130.1" height="82.2"/>
	<polygon fill="none" points="591.1,372.6 591.1,351.6 507.7,351.6 507.7,292.4 642.3,292.4 642.3,372.6 	"/>
	<polygon fill="none" points="507.7,351.6 507.7,405.2 541,405.2 541,416.3 575,416.3 575,425.7 643.4,425.7 643.4,372.6 
		591.1,372.6 591.1,351.6 	"/>
	<polygon fill="none" points="643.4,464.1 576.9,464.1 576.9,425.7 642.2,425.7 	"/>
	<path fill="none" d="M541,416.3v-11h-33.3v24.7h-17.1v29.4H452V482h-91.6v-63.1h-28.7v33.6h-15.9v-34.2H93v119.3h13.7
		c0,0-2.1,72.4,0,72.4c2.1,0,488.3,0,488.3,0V482h-18.5v-65.7H541z"/>
	<rect x="452" y="433.6" fill="none" width="38.5" height="25.7"/>
	<rect x="411.1" y="418.9" fill="none" width="40.9" height="63.1"/>
	<rect x="360.4" y="418.9" fill="none" width="50.7" height="63.1"/>
	<rect x="360.4" y="334.3" fill="none" width="50.7" height="84.6"/>
	<rect x="411.1" y="362.1" fill="none" width="30.8" height="41.5"/>
	<polygon fill="none" points="465.2,403.6 465.2,391 441.5,391 441.5,362.1 490.5,362.1 490.5,403.6 	"/>
	<rect x="452" y="418.9" fill="none" width="38.5" height="14.2"/>
	<polyline fill="none" points="643.4,309.6 676.6,309.6 700.9,246.7 700.9,229.2 642.3,229.2 642.3,309.9 	"/>
	<rect x="230.6" y="176.4" fill="none" width="72.3" height="32.6"/>
	<rect x="71.7" y="537.6" fill="none" width="35.1" height="72.4"/>
	<polygon fill="none" points="9.1,610 71.7,610 71.7,516.1 26.5,516.1 26.5,544.5 9.1,544.5 	"/>
	<rect x="8" y="524.4" fill="none" width="18.5" height="20.7"/>
</g>
<g id="Lines">
	<path fill="#FFFFFF" stroke="#000000" stroke-width="1.1404" stroke-miterlimit="10" d="M101.5,246.7"/>
	<polyline fill="none" stroke="#000000" stroke-width="1.1404" stroke-miterlimit="10" points="575.8,252.1 591.1,252.1 
		591.1,231.1 562.6,231.1 562.6,252.1 	"/>
	<rect x="495" y="56.1" fill="none" stroke="#000000" stroke-width="1.1404" stroke-miterlimit="10" width="102.4" height="137.1"/>
	<polyline fill="none" stroke="#000000" stroke-width="1.1404" stroke-miterlimit="10" points="510.9,193.3 510.9,164.9 495,164.9 
		510.9,164.9 510.9,56.1 	"/>
	<polyline fill="none" stroke="#000000" stroke-width="3.4213" stroke-miterlimit="10" points="700.4,196.4 700.4,207 666.1,207 
		666.1,229.2 700.9,229.2 700.9,246.7 677.2,309.9 674.5,309.9 643.4,309.9 643.4,347.2 643.4,465.1 638.9,465.1 638.9,483 
		649.9,483 595.1,483 595.1,610 9.1,610 9.1,551.3 1.7,551.3 1.7,516.1 71.7,516.1 71.7,347.2 71.7,320.4 34.5,320.4 34.5,207 
		71.7,207 71.7,32.5 361,32.5 361,20.4 462.3,20.4 462.3,32.5 705.7,32.5 705.7,45.3 	"/>
	<ellipse fill="none" stroke="#000000" stroke-width="3.4213" stroke-miterlimit="10" cx="703.6" cy="120.4" rx="75.5" ry="75.1"/>
	<rect x="352" y="151.7" width="28" height="55.2"/>
	<rect x="449.1" y="151.7" width="28" height="55.2"/>
	<polyline fill="none" stroke="#000000" stroke-width="1.1404" stroke-miterlimit="10" points="628.1,252.1 623.3,252.1 
		623.3,231.1 642.3,231.1 642.3,309.9 	"/>
	<polygon fill="none" stroke="#000000" stroke-width="1.1404" stroke-miterlimit="10" points="337.7,157.5 318.2,157.5 96.5,157.5 
		96.5,50.3 337.7,50.3 	"/>
	<line fill="none" stroke="#000000" stroke-width="1.1404" stroke-miterlimit="10" x1="318.7" y1="50.3" x2="318.7" y2="157.5"/>
	<line fill="none" stroke="#000000" stroke-width="1.1404" stroke-miterlimit="10" x1="117.1" y1="50.3" x2="117.1" y2="157.5"/>
	<polygon fill="none" stroke="#000000" stroke-width="1.1404" stroke-miterlimit="10" points="302.9,176.4 230.6,176.4 230.6,209 
		254.8,209 254.8,176.4 280.2,176.4 280.2,209 302.9,209 	"/>
	<line fill="none" stroke="#000000" stroke-width="2.2809" stroke-miterlimit="10" x1="302.9" y1="209" x2="302.9" y2="165.4"/>
	<line fill="none" stroke="#000000" stroke-width="1.1404" stroke-miterlimit="10" x1="71.7" y1="208" x2="141.9" y2="208"/>
	<line fill="none" stroke="#000000" stroke-width="1.1404" stroke-miterlimit="10" x1="235.1" y1="304.3" x2="235.1" y2="234.2"/>
	<line fill="none" stroke="#000000" stroke-width="2.2809" stroke-miterlimit="10" x1="178.8" y1="255.8" x2="194.7" y2="255.8"/>
	<line fill="none" stroke="#000000" stroke-width="2.2809" stroke-miterlimit="10" x1="178.8" y1="234.2" x2="194.7" y2="234.2"/>
	<line fill="none" stroke="#000000" stroke-width="1.1404" stroke-miterlimit="10" x1="180.9" y1="234.2" x2="180.9" y2="255.8"/>
	<line fill="none" stroke="#000000" stroke-width="1.1404" stroke-miterlimit="10" x1="186.7" y1="234.2" x2="186.7" y2="255.8"/>
	<line fill="none" stroke="#000000" stroke-width="1.1404" stroke-miterlimit="10" x1="192.6" y1="234.2" x2="192.6" y2="255.8"/>
	<line fill="none" stroke="#000000" stroke-width="2.2809" stroke-miterlimit="10" x1="232.6" y1="255.8" x2="248.5" y2="255.8"/>
	<line fill="none" stroke="#000000" stroke-width="2.2809" stroke-miterlimit="10" x1="232.6" y1="234.2" x2="248.5" y2="234.2"/>
	<line fill="none" stroke="#000000" stroke-width="1.1404" stroke-miterlimit="10" x1="234.7" y1="234.2" x2="234.7" y2="255.8"/>
	<line fill="none" stroke="#000000" stroke-width="1.1404" stroke-miterlimit="10" x1="240.5" y1="234.2" x2="240.5" y2="255.8"/>
	<line fill="none" stroke="#000000" stroke-width="1.1404" stroke-miterlimit="10" x1="246.4" y1="234.2" x2="246.4" y2="255.8"/>
	<line fill="none" stroke="#000000" stroke-width="2.2809" stroke-miterlimit="10" x1="287" y1="255.8" x2="302.9" y2="255.8"/>
	<line fill="none" stroke="#000000" stroke-width="2.2809" stroke-miterlimit="10" x1="287" y1="234.2" x2="302.9" y2="234.2"/>
	<line fill="none" stroke="#000000" stroke-width="1.1404" stroke-miterlimit="10" x1="289.2" y1="234.2" x2="289.2" y2="255.8"/>
	<line fill="none" stroke="#000000" stroke-width="1.1404" stroke-miterlimit="10" x1="295" y1="234.2" x2="295" y2="255.8"/>
	<line fill="none" stroke="#000000" stroke-width="1.1404" stroke-miterlimit="10" x1="300.8" y1="234.2" x2="300.8" y2="255.8"/>
	<line fill="none" stroke="#000000" stroke-width="2.2809" stroke-miterlimit="10" x1="525.1" y1="253.7" x2="541" y2="253.7"/>
	<line fill="none" stroke="#000000" stroke-width="2.2809" stroke-miterlimit="10" x1="525.1" y1="232.2" x2="541" y2="232.2"/>
	<line fill="none" stroke="#000000" stroke-width="1.1404" stroke-miterlimit="10" x1="527.2" y1="232.2" x2="527.2" y2="253.7"/>
	<line fill="none" stroke="#000000" stroke-width="1.1404" stroke-miterlimit="10" x1="533.1" y1="232.2" x2="533.1" y2="253.7"/>
	<line fill="none" stroke="#000000" stroke-width="1.1404" stroke-miterlimit="10" x1="538.9" y1="232.2" x2="538.9" y2="253.7"/>
	<line fill="none" stroke="#000000" stroke-width="1.1404" stroke-miterlimit="10" x1="234.7" y1="240.6" x2="300.8" y2="240.6"/>
	<line fill="none" stroke="#000000" stroke-width="1.1404" stroke-miterlimit="10" x1="234.7" y1="245.6" x2="300.8" y2="245.6"/>
	<line fill="none" stroke="#000000" stroke-width="1.1404" stroke-miterlimit="10" x1="234.7" y1="251.5" x2="300.8" y2="251.5"/>
	<rect x="322.6" y="296.8" fill="none" stroke="#000000" stroke-width="1.1404" stroke-miterlimit="10" width="8.3" height="23.6"/>
	<polygon fill="none" stroke="#000000" stroke-width="1.1404" stroke-miterlimit="10" points="330.9,289.9 322.6,289.9 322.6,261 
		330.9,231.2 340.9,231.2 340.9,242.6 337.7,242.6 330.9,264.1 	"/>
	<line fill="none" stroke="#000000" stroke-width="1.1404" stroke-miterlimit="10" x1="628.1" y1="205.9" x2="671.6" y2="205.9"/>
	<polyline fill="none" stroke="#000000" stroke-width="1.1404" stroke-miterlimit="10" points="360.4,246.7 360.4,278.9 
		377.6,278.9 	"/>
	<polyline fill="none" stroke="#000000" stroke-width="1.1404" stroke-miterlimit="10" points="360.4,234.2 360.4,231.1 
		384.7,231.1 384.7,252.1 466,252.1 466,231.1 490.5,231.1 490.5,236.9 	"/>
	<line fill="none" stroke="#000000" stroke-width="1.1404" stroke-miterlimit="10" x1="490.5" y1="249.5" x2="490.5" y2="293.1"/>
	<line fill="none" stroke="#000000" stroke-width="1.1404" stroke-miterlimit="10" x1="192.6" y1="240.6" x2="180.9" y2="240.6"/>
	<line fill="none" stroke="#000000" stroke-width="1.1404" stroke-miterlimit="10" x1="192.6" y1="245.6" x2="180.9" y2="245.6"/>
	<line fill="none" stroke="#000000" stroke-width="1.1404" stroke-miterlimit="10" x1="192.6" y1="251.5" x2="180.9" y2="251.5"/>
	<line fill="none" stroke="#000000" stroke-width="1.1404" stroke-miterlimit="10" x1="538.9" y1="238.5" x2="527.2" y2="238.5"/>
	<line fill="none" stroke="#000000" stroke-width="1.1404" stroke-miterlimit="10" x1="538.9" y1="243.6" x2="527.2" y2="243.6"/>
	<line fill="none" stroke="#000000" stroke-width="1.1404" stroke-miterlimit="10" x1="538.9" y1="249.5" x2="527.2" y2="249.5"/>
	<line fill="none" stroke="#000000" stroke-width="1.1404" stroke-miterlimit="10" x1="54.1" y1="296.8" x2="54.1" y2="255.8"/>
	<line fill="none" stroke="#000000" stroke-width="1.1404" stroke-miterlimit="10" x1="34.5" y1="255.8" x2="72.7" y2="255.8"/>
	<line fill="none" stroke="#000000" stroke-width="1.1404" stroke-miterlimit="10" x1="34.5" y1="261.6" x2="72.7" y2="261.6"/>
	<line fill="none" stroke="#000000" stroke-width="1.1404" stroke-miterlimit="10" x1="33.9" y1="267.6" x2="72.7" y2="267.6"/>
	<line fill="none" stroke="#000000" stroke-width="1.1404" stroke-miterlimit="10" x1="34.5" y1="278.4" x2="72.7" y2="278.4"/>
	<line fill="none" stroke="#000000" stroke-width="1.1404" stroke-miterlimit="10" x1="34.5" y1="273.2" x2="72.7" y2="273.2"/>
	<line fill="none" stroke="#000000" stroke-width="1.1404" stroke-miterlimit="10" x1="34.5" y1="284.5" x2="72.7" y2="284.5"/>
	<line fill="none" stroke="#000000" stroke-width="1.1404" stroke-miterlimit="10" x1="34.5" y1="290.9" x2="72.7" y2="290.9"/>
	<line fill="none" stroke="#000000" stroke-width="1.1404" stroke-miterlimit="10" x1="34.5" y1="296.5" x2="72.7" y2="296.5"/>
	<polygon points="658,255.8 675.1,255.8 662.2,292.4 658,292.4 	"/>
	<line fill="none" stroke="#000000" stroke-width="1.1404" stroke-miterlimit="10" x1="674.6" y1="257.2" x2="693" y2="266.1"/>
	<line fill="none" stroke="#000000" stroke-width="1.1404" stroke-miterlimit="10" x1="672" y1="260.8" x2="691.8" y2="270.5"/>
	<line fill="none" stroke="#000000" stroke-width="1.1404" stroke-miterlimit="10" x1="669.9" y1="265.1" x2="689.7" y2="274.8"/>
	<line fill="none" stroke="#000000" stroke-width="1.1404" stroke-miterlimit="10" x1="667.6" y1="269.9" x2="687.4" y2="279.6"/>
	<line fill="none" stroke="#000000" stroke-width="1.1404" stroke-miterlimit="10" x1="666.3" y1="273.9" x2="686.1" y2="283.6"/>
	<line fill="none" stroke="#000000" stroke-width="1.1404" stroke-miterlimit="10" x1="665.2" y1="278.5" x2="684.9" y2="288.2"/>
	<line fill="none" stroke="#000000" stroke-width="1.1404" stroke-miterlimit="10" x1="664.7" y1="283.6" x2="684.5" y2="293.3"/>
	<line fill="none" stroke="#000000" stroke-width="1.1404" stroke-miterlimit="10" x1="662.7" y1="287.9" x2="682.4" y2="297.6"/>
	<line fill="none" stroke="#000000" stroke-width="1.1404" stroke-miterlimit="10" x1="642.3" y1="256.4" x2="659.2" y2="256.4"/>
	<line fill="none" stroke="#000000" stroke-width="1.1404" stroke-miterlimit="10" x1="642.2" y1="261.6" x2="659.1" y2="261.6"/>
	<line fill="none" stroke="#000000" stroke-width="1.1404" stroke-miterlimit="10" x1="642.2" y1="267.1" x2="659.1" y2="267.1"/>
	<line fill="none" stroke="#000000" stroke-width="1.1404" stroke-miterlimit="10" x1="642.2" y1="271.8" x2="659.1" y2="271.8"/>
	<line fill="none" stroke="#000000" stroke-width="1.1404" stroke-miterlimit="10" x1="642.2" y1="277.1" x2="659.1" y2="277.1"/>
	<line fill="none" stroke="#000000" stroke-width="1.1404" stroke-miterlimit="10" x1="642.2" y1="282.1" x2="659.1" y2="282.1"/>
	<line fill="none" stroke="#000000" stroke-width="1.1404" stroke-miterlimit="10" x1="642.2" y1="287.9" x2="659.1" y2="287.9"/>
	<polyline fill="none" stroke="#000000" stroke-width="1.1404" stroke-miterlimit="10" points="642.3,292.4 507.7,292.4 
		507.7,351.6 580.8,351.6 	"/>
	<polyline fill="none" stroke="#000000" stroke-width="3.4213" stroke-miterlimit="10" points="643.4,372.6 591.1,372.6 
		591.1,351.6 	"/>
	<polyline fill="none" stroke="#000000" stroke-width="1.1404" stroke-miterlimit="10" points="575,416.3 541,416.3 541,405.2 
		507.7,405.2 507.7,365.8 507.7,429.9 	"/>
	<polyline fill="none" stroke="#000000" stroke-width="1.1404" stroke-miterlimit="10" points="643.4,425.7 576.9,425.7 576.9,463 	
		"/>
	<line fill="none" stroke="#000000" stroke-width="1.1404" stroke-miterlimit="10" x1="595.1" y1="482" x2="576.9" y2="482"/>
	<line fill="none" stroke="#000000" stroke-width="1.1404" stroke-miterlimit="10" x1="93" y1="517.1" x2="93" y2="438.3"/>
	<polyline fill="none" stroke="#000000" stroke-width="1.1404" stroke-miterlimit="10" points="93,418.9 315.8,418.9 315.8,452.5 
		302.9,452.5 	"/>
	<line fill="none" stroke="#000000" stroke-width="1.1404" stroke-miterlimit="10" x1="289.2" y1="452.5" x2="289.2" y2="418.9"/>
	<polyline fill="none" stroke="#000000" stroke-width="1.1404" stroke-miterlimit="10" points="277.3,452.5 243,452.5 260.1,452.5 
		260.1,418.9 	"/>
	<polyline fill="none" stroke="#000000" stroke-width="1.1404" stroke-miterlimit="10" points="219.2,452.5 184.8,452.5 202,452.5 
		202,418.9 	"/>
	<line fill="none" stroke="#000000" stroke-width="1.1404" stroke-miterlimit="10" x1="230.6" y1="452.5" x2="230.6" y2="418.9"/>
	<line fill="none" stroke="#000000" stroke-width="1.1404" stroke-miterlimit="10" x1="172.2" y1="452.5" x2="172.2" y2="418.9"/>
	<line fill="none" stroke="#000000" stroke-width="1.1404" stroke-miterlimit="10" x1="106.8" y1="610" x2="106.8" y2="537.6"/>
	<polyline fill="none" stroke="#000000" stroke-width="1.1404" stroke-miterlimit="10" points="71.7,610 71.7,537.6 88.8,537.6 	"/>
	<rect x="8" y="524.4" fill="none" stroke="#000000" stroke-width="1.1404" stroke-miterlimit="10" width="18.5" height="20.5"/>
	<line fill="none" stroke="#000000" stroke-width="1.1404" stroke-miterlimit="10" x1="88.8" y1="555" x2="88.8" y2="587"/>
	<line fill="none" stroke="#000000" stroke-width="1.1404" stroke-miterlimit="10" x1="71.7" y1="557.6" x2="106.8" y2="557.6"/>
	<line fill="none" stroke="#000000" stroke-width="1.1404" stroke-miterlimit="10" x1="71.7" y1="562.3" x2="106.8" y2="562.3"/>
	<line fill="none" stroke="#000000" stroke-width="1.1404" stroke-miterlimit="10" x1="71.7" y1="567" x2="106.8" y2="567"/>
	<line fill="none" stroke="#000000" stroke-width="1.1404" stroke-miterlimit="10" x1="71.7" y1="576.8" x2="106.8" y2="576.8"/>
	<line fill="none" stroke="#000000" stroke-width="1.1404" stroke-miterlimit="10" x1="71.7" y1="571.8" x2="106.8" y2="571.8"/>
	<line fill="none" stroke="#000000" stroke-width="1.1404" stroke-miterlimit="10" x1="71.7" y1="587" x2="106.8" y2="587"/>
	<line fill="none" stroke="#000000" stroke-width="1.1404" stroke-miterlimit="10" x1="71.7" y1="582" x2="106.8" y2="582"/>
	<line fill="none" stroke="#000000" stroke-width="1.1404" stroke-miterlimit="10" x1="409.3" y1="279.6" x2="445.7" y2="279.6"/>
	<line fill="none" stroke="#000000" stroke-width="1.1404" stroke-miterlimit="10" x1="477.1" y1="279.6" x2="490.5" y2="279.6"/>
	<line fill="none" stroke="#000000" stroke-width="1.1404" stroke-miterlimit="10" x1="427.5" y1="279.6" x2="427.5" y2="251.5"/>
	<polyline fill="none" stroke="#000000" stroke-width="1.1404" stroke-miterlimit="10" points="331.7,452.5 360.4,452.5 
		360.4,418.9 331.7,418.9 331.7,438.3 	"/>
	<polyline fill="none" stroke="#000000" stroke-width="1.1404" stroke-miterlimit="10" points="369,418.9 439.4,418.9 411.9,418.9 
		411.9,482 331.7,482 490.5,482 490.5,510.3 	"/>
	<polyline fill="none" stroke="#000000" stroke-width="1.1404" stroke-miterlimit="10" points="331.7,463 331.7,510.3 353.7,510.3 	
		"/>
	<line fill="none" stroke="#000000" stroke-width="1.1404" stroke-miterlimit="10" x1="363.9" y1="510.3" x2="363.9" y2="482"/>
	<polyline fill="none" stroke="#000000" stroke-width="1.1404" stroke-miterlimit="10" points="374.9,510.3 414.5,510.3 
		394.7,510.3 394.7,482 	"/>
	<line fill="none" stroke="#000000" stroke-width="1.1404" stroke-miterlimit="10" x1="427.5" y1="510.3" x2="427.5" y2="482"/>
	<polyline fill="none" stroke="#000000" stroke-width="1.1404" stroke-miterlimit="10" points="439.9,510.3 480,510.3 459.9,510.3 
		459.9,482 	"/>
	<line fill="none" stroke="#000000" stroke-width="1.1404" stroke-miterlimit="10" x1="452" y1="482" x2="452" y2="418.9"/>
	<polyline fill="none" stroke="#000000" stroke-width="1.1404" stroke-miterlimit="10" points="452,433.6 490.5,433.6 490.5,418.9 
		490.5,468.8 490.5,459.3 452,459.3 	"/>
	<line fill="none" stroke="#000000" stroke-width="1.1404" stroke-miterlimit="10" x1="471.3" y1="459.3" x2="471.3" y2="433.6"/>
	<polyline fill="none" stroke="#000000" stroke-width="1.1404" stroke-miterlimit="10" points="490.5,308.6 490.5,403.6 
		477.1,403.6 	"/>
	<line fill="none" stroke="#000000" stroke-width="1.1404" stroke-miterlimit="10" x1="490.5" y1="334.3" x2="380" y2="334.3"/>
	<polyline fill="none" stroke="#000000" stroke-width="1.1404" stroke-miterlimit="10" points="366,334.3 360.4,334.3 360.4,289.9 	
		"/>
	<polyline fill="none" stroke="#000000" stroke-width="1.1404" stroke-miterlimit="10" points="395.8,277.3 395.8,252.1 
		361.5,252.1 	"/>
	<polyline fill="none" stroke="#000000" stroke-width="1.1404" stroke-miterlimit="10" points="423.8,403.6 442,403.6 442,400 
		451.5,400 451.5,403.6 455.7,403.6 	"/>
	<line fill="none" stroke="#000000" stroke-width="1.1404" stroke-miterlimit="10" x1="442" y1="403.6" x2="442" y2="362.1"/>
	<line fill="none" stroke="#000000" stroke-width="1.1404" stroke-miterlimit="10" x1="411.1" y1="403.6" x2="411.1" y2="334.3"/>
	<path fill="none" stroke="#000000" stroke-width="1.1404" stroke-miterlimit="10" d="M490.5,362.1"/>
	<polyline fill="none" stroke="#000000" stroke-width="1.1404" stroke-miterlimit="10" points="235.1,316.2 235.1,334.3 
		277.3,334.3 	"/>
	<line fill="none" stroke="#000000" stroke-width="1.1404" stroke-miterlimit="10" x1="293.6" y1="334.3" x2="360.4" y2="334.3"/>
	
		<rect x="380" y="82.9" fill="#FFFFFF" stroke="#000000" stroke-width="1.1404" stroke-miterlimit="10" width="69.2" height="68.8"/>
	<polyline fill="none" stroke="#000000" stroke-width="1.1404" stroke-miterlimit="10" points="459.9,278.9 459.9,252.1 
		490.5,252.1 	"/>
	<polyline fill="none" stroke="#000000" stroke-width="1.1404" stroke-miterlimit="10" points="72.7,320.4 72.7,232.2 142.9,232.2 
		142.9,252.1 123.6,252.1 	"/>
	<line fill="none" stroke="#000000" stroke-width="1.1404" stroke-miterlimit="10" x1="94.1" y1="252.1" x2="72.7" y2="252.1"/>
	<line fill="none" stroke="#000000" stroke-width="1.1404" stroke-miterlimit="10" x1="109.9" y1="253.7" x2="109.9" y2="232.2"/>
	<rect x="411.1" y="334.3" width="79.4" height="27.9"/>
	<polyline fill="none" stroke="#000000" stroke-width="1.1404" stroke-miterlimit="10" points="442,391 465.2,391 465.2,403.6 	"/>
	<line fill="none" stroke="#000000" stroke-width="1.1404" stroke-miterlimit="10" x1="643.4" y1="464.1" x2="595.1" y2="464.1"/>
	<line fill="none" stroke="#000000" stroke-width="1.1404" stroke-miterlimit="10" x1="597.5" y1="443.8" x2="628.1" y2="443.8"/>
	<line fill="none" stroke="#000000" stroke-width="1.1404" stroke-miterlimit="10" x1="628.1" y1="464.6" x2="628.1" y2="425.7"/>
	<line fill="none" stroke="#000000" stroke-width="1.1404" stroke-miterlimit="10" x1="623.3" y1="464.6" x2="623.3" y2="425.7"/>
	<line fill="none" stroke="#000000" stroke-width="1.1404" stroke-miterlimit="10" x1="618.3" y1="464.6" x2="618.3" y2="425.7"/>
	<line fill="none" stroke="#000000" stroke-width="1.1404" stroke-miterlimit="10" x1="613.5" y1="464.6" x2="613.5" y2="425.7"/>
	<line fill="none" stroke="#000000" stroke-width="1.1404" stroke-miterlimit="10" x1="608.6" y1="464.6" x2="608.6" y2="425.7"/>
	<line fill="none" stroke="#000000" stroke-width="1.1404" stroke-miterlimit="10" x1="603.7" y1="464.6" x2="603.7" y2="425.7"/>
	<line fill="none" stroke="#000000" stroke-width="1.1404" stroke-miterlimit="10" x1="599" y1="464.6" x2="599" y2="425.7"/>
	<line fill="#FFFFFF" stroke="#000000" stroke-width="1.1404" stroke-miterlimit="10" x1="360.4" y1="351.6" x2="360.4" y2="400"/>
	<line fill="none" stroke="#000000" stroke-width="1.1404" stroke-miterlimit="10" x1="360.4" y1="452.5" x2="360.4" y2="482"/>
</g>
</svg>
