<?xml version="1.0" encoding="utf-8"?>
<!-- Generator: Adobe Illustrator 18.1.1, SVG Export Plug-In . SVG Version: 6.00 Build 0)  -->
<svg version="1.1" xmlns="http://www.w3.org/2000/svg" xmlns:xlink="http://www.w3.org/1999/xlink" x="0px" y="0px"
	 viewBox="0 0 780.6 612" enable-background="new 0 0 780.6 612" xml:space="preserve">
<g id="Layer_2">
	<g id="Layer_2_1_">
		<path fill="none" d="M642.2,74V29H706v13.4c0,0,43.2-1.5,65.9,42.9c22.6,44.5-14,86.3-23.1,92.1c-9.1,5.8-28.7,16-48.4,15v10.3
			l-58.1-1.1v-42l-8.3-14.3C634,145.2,621.8,100.2,642.2,74z"/>
		<rect x="479.1" y="47" fill="none" width="132.4" height="76.7"/>
		<rect x="456.1" y="47" fill="none" width="17.2" height="76.7"/>
		<rect x="495.3" y="138.2" fill="none" width="116.2" height="63.1"/>
		<rect x="355.6" y="47" fill="none" width="17.7" height="65.1"/>
		<rect x="95.7" y="47" fill="none" width="254.4" height="76.7"/>
		<rect x="229.3" y="173.6" fill="none" width="73.2" height="32"/>
		<polygon fill="none" points="593.6,610.4 593.6,485.8 637.6,485.7 637.6,464.2 572.6,464.1 572.6,429.5 641.1,429.4 642.2,231.7 
			591.2,231.7 591.2,253.1 468.6,253.1 468.6,231.7 409.9,231.7 409.9,301.4 343.2,301.4 343.2,284.9 355.6,284.9 355.6,251.5 
			71.3,251.5 71.3,541.6 106.1,541.6 106.1,610.4 		"/>
		<polygon fill="none" points="355.6,231.7 355.6,301.4 409.9,301.4 409.9,231.5 		"/>
		<rect x="166.1" y="230.4" fill="none" width="10.5" height="20.6"/>
		<rect x="229.8" y="230.4" fill="none" width="10.5" height="20.6"/>
		<rect x="524.9" y="231.5" fill="none" width="10.5" height="20.6"/>
		<rect x="285.3" y="230.4" fill="none" width="5.3" height="20.6"/>
		<rect x="468.2" y="231.5" fill="none" width="5.3" height="20.6"/>
		<polygon fill="none" points="641.1,309.2 675.6,309.2 699.2,243.8 699.2,230.6 641.1,230.6 		"/>
		<polygon fill="none" points="572.6,429.5 641.1,429.5 641.1,464.9 572.6,464.9 		"/>
		<rect x="71.3" y="541.6" fill="none" width="34.9" height="68.8"/>
		<rect x="8.6" y="525.2" fill="none" width="18" height="23.4"/>
		<polygon fill="none" points="9.8,610.4 9.8,548.6 26.6,548.6 26.6,520.3 72.1,520.3 72.1,610.4 		"/>
		<rect x="33" y="203.3" fill="none" width="38" height="112.7"/>
	</g>
</g>
<g id="Layer_3">
	<path fill="#FFFFFF" d="M706,42.4V29H461.3V15.6H360V29H70.1v173.7h-36V316h36v204.4H1.7V554h6.9v56.4h584.9V486.2h44v-20.9h4.7
		V309.2h33.3l24.8-65.5v-12.2h-34.1v-28.3h34.1v-10.9c0,0,78.6,0,78.6-75.2C778.9,47,706,42.4,706,42.4z"/>
</g>
<g id="Lines">
	<g id="Lines_1_">
		<path fill="#FFFFFF" stroke="#010101" stroke-width="1.1327" stroke-miterlimit="10" d="M34.5,261.7"/>
		<line fill="none" stroke="#010101" stroke-width="1.1327" stroke-miterlimit="10" x1="641.1" y1="253.8" x2="657.4" y2="253.8"/>
		<line fill="none" stroke="#010101" stroke-width="1.1327" stroke-miterlimit="10" x1="641.1" y1="259" x2="657.4" y2="259"/>
		<line fill="none" stroke="#010101" stroke-width="1.1327" stroke-miterlimit="10" x1="641.1" y1="264" x2="657.4" y2="264"/>
		<line fill="none" stroke="#010101" stroke-width="1.1327" stroke-miterlimit="10" x1="641.1" y1="268.7" x2="657.4" y2="268.7"/>
		<line fill="none" stroke="#010101" stroke-width="1.1327" stroke-miterlimit="10" x1="641.1" y1="274.2" x2="657.4" y2="274.2"/>
		<line fill="none" stroke="#010101" stroke-width="1.1327" stroke-miterlimit="10" x1="641.1" y1="279.4" x2="657.4" y2="279.4"/>
		<line fill="none" stroke="#010101" stroke-width="1.1327" stroke-miterlimit="10" x1="641.1" y1="284.8" x2="657.4" y2="284.8"/>
		<line fill="none" stroke="#010101" stroke-width="1.1327" stroke-miterlimit="10" x1="674.6" y1="254.4" x2="692.4" y2="262.8"/>
		<line fill="none" stroke="#010101" stroke-width="1.1327" stroke-miterlimit="10" x1="672.5" y1="258.8" x2="690.3" y2="267.2"/>
		<line fill="none" stroke="#010101" stroke-width="1.1327" stroke-miterlimit="10" x1="671.3" y1="263.4" x2="689.1" y2="271.8"/>
		<line fill="none" stroke="#010101" stroke-width="1.1327" stroke-miterlimit="10" x1="669.3" y1="267.7" x2="687" y2="276.1"/>
		<line fill="none" stroke="#010101" stroke-width="1.1327" stroke-miterlimit="10" x1="667.8" y1="272.1" x2="685.6" y2="280.5"/>
		<line fill="none" stroke="#010101" stroke-width="1.1327" stroke-miterlimit="10" x1="665.8" y1="276.5" x2="683.5" y2="284.9"/>
		<line fill="none" stroke="#010101" stroke-width="1.1327" stroke-miterlimit="10" x1="664.5" y1="281.1" x2="682.3" y2="289.5"/>
		<line fill="none" stroke="#010101" stroke-width="1.1327" stroke-miterlimit="10" x1="662.5" y1="285.4" x2="680.2" y2="293.8"/>
		<rect x="95.7" y="47" fill="none" stroke="#010101" stroke-width="1.1327" stroke-miterlimit="10" width="254.4" height="76.7"/>
		<rect x="355.6" y="47" fill="none" stroke="#010101" stroke-width="1.1327" stroke-miterlimit="10" width="17.7" height="65.1"/>
		<rect x="456.1" y="47" fill="none" stroke="#010101" stroke-width="1.1327" stroke-miterlimit="10" width="17.2" height="76.7"/>
		<rect x="479.1" y="47" fill="none" stroke="#010101" stroke-width="1.1327" stroke-miterlimit="10" width="132.4" height="76.7"/>
		
			<rect x="495.3" y="138.2" fill="none" stroke="#010101" stroke-width="1.1327" stroke-miterlimit="10" width="116.2" height="63.1"/>
		<polyline fill="none" stroke="#050505" stroke-width="1.1327" stroke-miterlimit="10" points="456.1,301.4 343.2,301.4 
			343.2,309.5 		"/>
		<polyline fill="none" stroke="#050505" stroke-width="1.1327" stroke-miterlimit="10" points="343.2,322.3 343.2,406.5 
			343.2,400.1 373.3,400.1 373.3,406.5 373.3,397.8 393.1,397.8 393.1,406.5 415.8,406.5 415.8,398.4 430.3,398.4 430.3,406.5 
			447.7,406.5 		"/>
		<line fill="none" stroke="#050505" stroke-width="1.1327" stroke-miterlimit="10" x1="409.9" y1="406.5" x2="409.9" y2="301.4"/>
		<line fill="none" stroke="#050505" stroke-width="1.1327" stroke-miterlimit="10" x1="343.2" y1="370.5" x2="409.9" y2="370.5"/>
		<polyline fill="none" stroke="#050505" stroke-width="1.1327" stroke-miterlimit="10" points="409.9,393.7 473.3,393.7 461,393.7 
			461,406.5 456.1,406.5 		"/>
		<polyline fill="none" stroke="#050505" stroke-width="1.1327" stroke-miterlimit="10" points="468.6,301.4 489.5,301.4 
			489.5,305.4 		"/>
		<polyline fill="none" stroke="#050505" stroke-width="1.1327" stroke-miterlimit="10" points="474.4,301.4 474.4,327.2 
			489.5,327.2 489.5,406.5 479.1,406.5 		"/>
		<rect x="409.9" y="333.9" fill="#050505" width="79.6" height="30.5"/>
		<polyline fill="none" stroke="#050505" stroke-width="1.1327" stroke-miterlimit="10" points="510.5,301.4 504,301.4 504,484.3 
			559.9,484.3 559.9,430.3 		"/>
		<polyline fill="none" stroke="#050505" stroke-width="1.1327" stroke-miterlimit="10" points="504,459.3 536.2,459.3 536.2,455.9 
					"/>
		<polyline fill="none" stroke="#050505" stroke-width="1.1327" stroke-miterlimit="10" points="536.2,445.4 536.2,413.5 
			536.2,429.4 504,429.4 		"/>
		<line fill="none" stroke="#050505" stroke-width="1.1327" stroke-miterlimit="10" x1="536.2" y1="400.1" x2="504" y2="400.1"/>
		<polyline fill="none" stroke="#050505" stroke-width="1.1327" stroke-miterlimit="10" points="535,349.1 535,336.8 535,340.3 
			504,340.3 		"/>
		<polyline fill="none" stroke="#050505" stroke-width="1.1327" stroke-miterlimit="10" points="535,385.6 535,364.4 535,370.5 
			504,370.5 		"/>
		<path fill="none" stroke="#050505" stroke-width="1.1327" stroke-miterlimit="10" d="M535,301.4h-4.9H535z"/>
		<line fill="none" stroke="#050505" stroke-width="1.1327" stroke-miterlimit="10" x1="535" y1="327.2" x2="535" y2="301.4"/>
		<line fill="none" stroke="#050505" stroke-width="1.1327" stroke-miterlimit="10" x1="535" y1="309.5" x2="504" y2="309.5"/>
		<polyline fill="none" stroke="#050505" stroke-width="1.1327" stroke-miterlimit="10" points="489.5,422.8 489.5,484.3 
			464.7,484.3 		"/>
		<polyline fill="none" stroke="#050505" stroke-width="1.1327" stroke-miterlimit="10" points="453,484.3 409.9,484.3 409.9,475 
			364.5,475 364.5,484.3 		"/>
		<polyline fill="none" stroke="#050505" stroke-width="1.1327" stroke-miterlimit="10" points="353.8,484.3 343.2,484.3 
			343.2,422.8 363.2,422.8 		"/>
		<polyline fill="none" stroke="#050505" stroke-width="1.1327" stroke-miterlimit="10" points="343.2,453.5 409.9,453.5 409.9,475 
			409.9,422.8 390.2,422.8 435.6,422.8 		"/>
		<polyline fill="none" stroke="#050505" stroke-width="1.1327" stroke-miterlimit="10" points="376.6,453.5 376.6,422.8 
			371.1,422.8 378.6,422.8 		"/>
		<polyline fill="none" stroke="#050505" stroke-width="1.1327" stroke-miterlimit="10" points="449.7,484.3 449.7,422.8 
			449.7,438.1 489.5,438.1 489.5,461.7 449.7,461.6 		"/>
		<line fill="none" stroke="#050505" stroke-width="1.1327" stroke-miterlimit="10" x1="468.6" y1="461.6" x2="468.6" y2="438.1"/>
		<polyline fill="none" stroke="#050505" stroke-width="1.1327" stroke-miterlimit="10" points="572.6,466.3 572.6,429.4 
			642.2,429.4 		"/>
		<line fill="none" stroke="#050505" stroke-width="1.1327" stroke-miterlimit="10" x1="591" y1="463.7" x2="636.3" y2="463.7"/>
		<line fill="none" stroke="#050505" stroke-width="1.1327" stroke-miterlimit="10" x1="593.2" y1="447.9" x2="627.8" y2="447.9"/>
		<line fill="none" stroke="#050505" stroke-width="1.1327" stroke-miterlimit="10" x1="597.5" y1="463.7" x2="597.5" y2="429.4"/>
		<line fill="none" stroke="#050505" stroke-width="1.1327" stroke-miterlimit="10" x1="601.7" y1="463.7" x2="601.7" y2="429.4"/>
		<line fill="none" stroke="#050505" stroke-width="1.1327" stroke-miterlimit="10" x1="606" y1="463.7" x2="606" y2="429.4"/>
		<line fill="none" stroke="#050505" stroke-width="1.1327" stroke-miterlimit="10" x1="610.5" y1="463.7" x2="610.5" y2="429.4"/>
		<line fill="none" stroke="#050505" stroke-width="1.1327" stroke-miterlimit="10" x1="614.7" y1="463.7" x2="614.7" y2="429.4"/>
		<line fill="none" stroke="#050505" stroke-width="1.1327" stroke-miterlimit="10" x1="619" y1="463.7" x2="619" y2="429.4"/>
		<line fill="none" stroke="#050505" stroke-width="1.1327" stroke-miterlimit="10" x1="623.3" y1="463.7" x2="623.3" y2="429.4"/>
		<line fill="none" stroke="#050505" stroke-width="1.1327" stroke-miterlimit="10" x1="627.6" y1="463.7" x2="627.6" y2="429.4"/>
		<polyline fill="none" stroke="#050505" stroke-width="1.1327" stroke-miterlimit="10" points="593.6,485.3 572.6,485.3 
			572.6,491.1 		"/>
		<polyline fill="none" stroke="#050505" stroke-width="1.1327" stroke-miterlimit="10" points="593.6,507.9 567.9,507.9 
			567.9,514.9 		"/>
		<polyline fill="none" stroke="#050505" stroke-width="1.1327" stroke-miterlimit="10" points="553.4,514.9 553.4,507.9 
			343.2,507.9 350.1,507.9 350.1,541.6 371.1,541.6 		"/>
		<polyline fill="none" stroke="#050505" stroke-width="1.1327" stroke-miterlimit="10" points="382,541.6 386.7,541.6 386.7,507.9 
					"/>
		<polyline fill="none" stroke="#050505" stroke-width="1.1327" stroke-miterlimit="10" points="328.6,507.9 115.4,507.9 
			115.4,541.6 		"/>
		<polyline fill="none" stroke="#050505" stroke-width="1.1327" stroke-miterlimit="10" points="243.8,507.9 243.8,541.6 
			297.2,541.6 		"/>
		<polyline fill="none" stroke="#050505" stroke-width="1.1327" stroke-miterlimit="10" points="308.3,541.6 317,541.6 317,507.9 		
			"/>
		<polyline fill="none" stroke="#050505" stroke-width="1.1327" stroke-miterlimit="10" points="317,610.4 317,555.5 308.3,555.5 		
			"/>
		<polyline fill="none" stroke="#050505" stroke-width="1.1327" stroke-miterlimit="10" points="297.2,555.5 286.8,555.5 
			286.8,564.8 273.4,564.8 273.4,555.5 263,555.5 		"/>
		<polyline fill="none" stroke="#050505" stroke-width="1.1327" stroke-miterlimit="10" points="253.1,555.5 243.8,555.5 
			243.8,610.4 		"/>
		<line fill="none" stroke="#050505" stroke-width="1.1327" stroke-miterlimit="10" x1="8.6" y1="552.9" x2="44.6" y2="552.9"/>
		<polyline fill="none" stroke="#050505" stroke-width="1.1327" stroke-miterlimit="10" points="60.2,552.9 70.1,552.9 70.1,541.6 
			70.1,610.4 		"/>
		<polyline fill="none" stroke="#050505" stroke-width="1.1327" stroke-miterlimit="10" points="70.1,601.4 106.1,601.4 
			106.1,541.6 		"/>
		<line fill="none" stroke="#050505" stroke-width="1.1327" stroke-miterlimit="10" x1="88.1" y1="591" x2="88.1" y2="560.2"/>
		<line fill="none" stroke="#050505" stroke-width="1.1327" stroke-miterlimit="10" x1="71" y1="560.9" x2="105.3" y2="560.9"/>
		<line fill="none" stroke="#050505" stroke-width="1.1327" stroke-miterlimit="10" x1="71" y1="565.2" x2="105.3" y2="565.2"/>
		<line fill="none" stroke="#050505" stroke-width="1.1327" stroke-miterlimit="10" x1="71" y1="569.4" x2="105.3" y2="569.4"/>
		<line fill="none" stroke="#050505" stroke-width="1.1327" stroke-miterlimit="10" x1="71" y1="573.9" x2="105.3" y2="573.9"/>
		<line fill="none" stroke="#050505" stroke-width="1.1327" stroke-miterlimit="10" x1="71" y1="578.1" x2="105.3" y2="578.1"/>
		<line fill="none" stroke="#050505" stroke-width="1.1327" stroke-miterlimit="10" x1="71" y1="582.4" x2="105.3" y2="582.4"/>
		<line fill="none" stroke="#050505" stroke-width="1.1327" stroke-miterlimit="10" x1="71" y1="586.7" x2="105.3" y2="586.7"/>
		<line fill="none" stroke="#050505" stroke-width="1.1327" stroke-miterlimit="10" x1="71" y1="591" x2="105.3" y2="591"/>
		<polyline fill="none" stroke="#050505" stroke-width="1.1327" stroke-miterlimit="10" points="328.6,469 328.6,484.3 286.8,484.3 
			286.8,422.8 328.6,422.8 328.6,438.1 		"/>
		<path fill="none" stroke="#050505" stroke-width="1.1327" stroke-miterlimit="10" d="M328.6,406.5v-72.6V406.5z"/>
		<line fill="none" stroke="#050505" stroke-width="1.1327" stroke-miterlimit="10" x1="286.8" y1="385.6" x2="286.8" y2="333.9"/>
		<polyline fill="none" stroke="#050505" stroke-width="1.1327" stroke-miterlimit="10" points="286.8,322.3 286.8,301.4 
			328.6,301.4 328.6,305.1 		"/>
		<line fill="none" stroke="#050505" stroke-width="1.1327" stroke-miterlimit="10" x1="286.8" y1="319.1" x2="328.6" y2="319.1"/>
		<line fill="none" stroke="#050505" stroke-width="1.1327" stroke-miterlimit="10" x1="286.8" y1="380.1" x2="328.6" y2="380.1"/>
		<line fill="none" stroke="#050505" stroke-width="1.1327" stroke-miterlimit="10" x1="328.6" y1="392.8" x2="317" y2="392.8"/>
		<polyline fill="none" stroke="#050505" stroke-width="1.1327" stroke-miterlimit="10" points="328.6,406.5 286.8,406.5 286.8,397 
					"/>
		<polyline fill="none" stroke="#050505" stroke-width="1.1327" stroke-miterlimit="10" points="328.6,448.9 328.6,457.6 
			328.6,453.5 208.9,453.5 208.9,484.3 211.3,484.3 		"/>
		<polyline fill="none" stroke="#050505" stroke-width="1.1327" stroke-miterlimit="10" points="229.3,453.5 229.3,484.3 
			222.9,484.3 235.1,484.3 		"/>
		<polyline fill="none" stroke="#050505" stroke-width="1.1327" stroke-miterlimit="10" points="266.7,453.5 266.7,484.3 
			260.3,484.3 272.5,484.3 		"/>
		<line fill="none" stroke="#050505" stroke-width="1.1327" stroke-miterlimit="10" x1="248.4" y1="484.3" x2="248.4" y2="453.5"/>
		<polyline fill="none" stroke="#050505" stroke-width="1.1327" stroke-miterlimit="10" points="193.8,484.3 196.2,484.3 
			196.2,422.8 196.2,453.5 115.4,453.5 115.4,484.3 130,484.3 		"/>
		<polyline fill="none" stroke="#050505" stroke-width="1.1327" stroke-miterlimit="10" points="143.5,453.5 143.5,484.3 
			139.9,484.3 143.5,484.3 147.4,484.3 		"/>
		<polyline fill="none" stroke="#050505" stroke-width="1.1327" stroke-miterlimit="10" points="155.8,484.3 182.8,484.3 
			169.3,484.3 169.3,453.5 		"/>
		<polyline fill="none" stroke="#050505" stroke-width="1.1327" stroke-miterlimit="10" points="103.2,481.8 97.9,481.8 97.9,492.2 
					"/>
		<polyline fill="none" stroke="#050505" stroke-width="1.1327" stroke-miterlimit="10" points="70.1,507.9 97.9,507.9 97.9,503.3 
			97.9,519.5 		"/>
		<polyline fill="none" stroke="#050505" stroke-width="1.1327" stroke-miterlimit="10" points="97.9,530 71.3,530 71.3,520.3 		"/>
		<rect x="8.6" y="525.2" fill="none" stroke="#050505" stroke-width="1.1327" stroke-miterlimit="10" width="18" height="23.4"/>
		<polyline fill="none" stroke="#050505" stroke-width="1.1327" stroke-miterlimit="10" points="147.4,301.4 139.9,301.4 
			139.9,406.5 196.2,406.5 196.2,367.9 		"/>
		<polyline fill="none" stroke="#050505" stroke-width="1.1327" stroke-miterlimit="10" points="196.2,356.9 196.2,319.1 
			139.9,319.1 		"/>
		<polyline fill="none" stroke="#050505" stroke-width="1.1327" stroke-miterlimit="10" points="196.2,301.4 196.2,319.1 
			162.5,319.1 162.5,301.4 182.8,301.4 		"/>
		<line fill="none" stroke="#050505" stroke-width="1.1327" stroke-miterlimit="10" x1="168" y1="319.1" x2="168" y2="349.1"/>
		<line fill="none" stroke="#050505" stroke-width="1.1327" stroke-miterlimit="10" x1="139.9" y1="351.7" x2="155.8" y2="351.7"/>
		<line fill="none" stroke="#050505" stroke-width="1.1327" stroke-miterlimit="10" x1="139.9" y1="370.5" x2="155.8" y2="370.5"/>
		<line fill="none" stroke="#050505" stroke-width="1.1327" stroke-miterlimit="10" x1="168" y1="406.5" x2="168" y2="375"/>
		<polyline fill="none" stroke="#050505" stroke-width="3.3981" stroke-miterlimit="10" points="700.4,191.7 700.4,202.7 
			666.1,202.7 666.1,210.8 666.1,230.6 700.4,230.6 700.4,243.8 676.7,309.5 642.2,309.5 642.2,343.7 642.2,464.9 647.6,464.9 
			637.7,464.9 637.7,486.4 646.4,486.4 593.6,486.4 593.6,610.4 8.6,610.4 8.6,554 1.7,554 1.7,520.3 70.1,520.3 70.1,345 70.1,316 
			34.1,316 34.1,203.3 70.1,203.3 70.1,29 360,29 360,15.6 386.7,15.6 434.9,15.6 461.3,15.6 461.3,29 706,29 706,42.4 		"/>
		<rect x="447.7" y="150.4" fill="#050505" width="26.8" height="54"/>
		<rect x="229.3" y="173.6" fill="none" stroke="#050505" stroke-width="1.1327" stroke-miterlimit="10" width="23.8" height="32"/>
		<rect x="278.7" y="173.6" fill="none" stroke="#050505" stroke-width="1.1327" stroke-miterlimit="10" width="23.8" height="32"/>
		<line fill="none" stroke="#050505" stroke-width="1.1327" stroke-miterlimit="10" x1="253.1" y1="173.6" x2="278.7" y2="173.6"/>
		<path fill="none" stroke="#050505" stroke-width="1.1327" stroke-miterlimit="10" d="M143.5,249.1"/>
		<path fill="none" stroke="#050505" stroke-width="2.2654" stroke-miterlimit="10" d="M363.2,230.6"/>
		<rect x="350.1" y="150.4" fill="#050505" width="28.5" height="54"/>
		<line fill="none" stroke="#050505" stroke-width="1.1327" stroke-miterlimit="10" x1="71.3" y1="251.5" x2="100.9" y2="251.5"/>
		<polyline fill="none" stroke="#050505" stroke-width="1.1327" stroke-miterlimit="10" points="302.5,205.6 302.5,161.2 
			302.5,140.5 229.3,140.5 229.3,173.6 		"/>
		<polyline fill="none" stroke="#050505" stroke-width="2.2654" stroke-miterlimit="10" points="459.8,29.6 446.1,29.6 446.1,34.6 
					"/>
		<line fill="none" stroke="#050505" stroke-width="2.2654" stroke-miterlimit="10" x1="500.5" y1="29.6" x2="500.5" y2="38.3"/>
		<path fill="none" stroke="#050505" stroke-width="3.3981" stroke-miterlimit="10" d="M661.5,55.1c-13.9,9.5-24.4,23.4-29.5,39.8"
			/>
		<path fill="none" stroke="#050505" stroke-width="3.3981" stroke-miterlimit="10" d="M685.1,190.1c6,1.5,12.2,2.3,18.6,2.3
			c41.5,0,75.2-33.7,75.2-75.2c0-41.5-33.7-75.2-75.2-75.2c-4.9,0-9.7,0.5-14.4,1.4"/>
		<path fill="none" stroke="#050505" stroke-width="3.3981" stroke-miterlimit="10" d="M634,145.2c5.9,14.7,16.3,27.1,29.5,35.5"/>
		<polygon fill="#050505" points="657.4,252.7 675.2,252.7 662.3,289.8 657.4,289.8 		"/>
		<polyline fill="none" stroke="#050505" stroke-width="1.1327" stroke-miterlimit="10" points="642.2,162.3 642.2,201.6 
			666.1,201.6 		"/>
		<line fill="none" stroke="#050505" stroke-width="1.1327" stroke-miterlimit="10" x1="642.2" y1="29" x2="642.2" y2="74"/>
		<polyline fill="none" stroke="#050505" stroke-width="1.1327" stroke-miterlimit="10" points="409.9,284.8 409.9,231.7 
			447.7,231.7 447.7,241.3 447.7,231.7 468.6,231.7 468.6,252.2 		"/>
		<polyline fill="none" stroke="#050505" stroke-width="1.1327" stroke-miterlimit="10" points="422.7,286.9 457,286.9 457,252.7 
			489.5,252.7 489.5,285.4 468.6,285.4 		"/>
		<polyline fill="none" stroke="#050505" stroke-width="1.1327" stroke-miterlimit="10" points="504,252.7 591.2,252.7 572,252.7 
			572,246.5 572,252.7 591.2,252.7 591.2,231.7 572,231.7 572,236.3 572,231.7 641.1,231.7 641.1,309.5 		"/>
		<polyline fill="none" stroke="#050505" stroke-width="1.1327" stroke-miterlimit="10" points="373.3,231.1 373.3,285.4 
			360.6,285.4 360.6,279.4 364.3,279.4 364.3,243.8 355.6,243.8 		"/>
		<line fill="none" stroke="#010101" stroke-width="1.1327" stroke-miterlimit="10" x1="355.6" y1="251.5" x2="355.6" y2="285.4"/>
		<line fill="none" stroke="#010101" stroke-width="1.1327" stroke-miterlimit="10" x1="286.8" y1="251.5" x2="286.8" y2="285.4"/>
		<path fill="none" stroke="#050505" stroke-width="3.3981" stroke-miterlimit="10" d="M121.2,203.3"/>
		<polyline fill="none" stroke="#050505" stroke-width="1.1327" stroke-miterlimit="10" points="100.9,239.2 100.9,231.1 
			71.3,231.1 71.3,316 		"/>
		<polyline fill="none" stroke="#050505" stroke-width="1.1327" stroke-miterlimit="10" points="111.4,238.6 111.4,231.7 141,231.7 
			141,251.5 143.5,251.5 355.6,251.5 355.6,231.7 393.1,231.7 		"/>
		<polyline fill="none" stroke="#050505" stroke-width="1.1327" stroke-miterlimit="10" points="139.9,251.5 111.4,251.5 
			111.4,284.8 139.9,284.8 		"/>
		<polyline fill="none" stroke="#050505" stroke-width="1.1327" stroke-miterlimit="10" points="507.5,252.7 507.5,285.3 
			518.7,285.3 		"/>
		<polyline fill="none" stroke="#050505" stroke-width="1.1327" stroke-miterlimit="10" points="530.2,252.7 530.2,285.3 
			542.2,285.3 		"/>
		<polyline fill="none" stroke="#050505" stroke-width="1.1327" stroke-miterlimit="10" points="558.1,253.1 558.1,284.8 
			572.6,284.8 		"/>
		<line fill="none" stroke="#050505" stroke-width="1.1327" stroke-miterlimit="10" x1="583.6" y1="285.4" x2="583.6" y2="253.1"/>
		<polyline fill="none" stroke="#050505" stroke-width="1.1327" stroke-miterlimit="10" points="640.2,264.6 597.5,264.6 
			597.5,281.1 		"/>
		<polyline fill="none" stroke="#010101" stroke-width="1.1327" stroke-miterlimit="10" points="640.2,297.9 597.5,297.9 
			597.5,293.8 597.5,316.4 		"/>
		<polyline fill="none" stroke="#010101" stroke-width="1.1327" stroke-miterlimit="10" points="597.5,327.2 597.5,333.9 
			642.2,333.9 		"/>
		<polyline fill="none" stroke="#050505" stroke-width="1.1327" stroke-miterlimit="10" points="468.6,231.7 477,231.7 473.1,231.7 
			473.1,252.3 		"/>
		<line fill="none" stroke="#050505" stroke-width="1.1327" stroke-miterlimit="10" x1="468.8" y1="236.9" x2="472.9" y2="236.9"/>
		<line fill="none" stroke="#050505" stroke-width="1.1327" stroke-miterlimit="10" x1="468.8" y1="242.2" x2="472.9" y2="242.2"/>
		<line fill="none" stroke="#050505" stroke-width="1.1327" stroke-miterlimit="10" x1="468.8" y1="247.5" x2="472.9" y2="247.5"/>
		<g>
			<line fill="none" stroke="#050505" stroke-width="1.1327" stroke-miterlimit="10" x1="162.5" y1="230.4" x2="180.5" y2="230.4"/>
			<line fill="none" stroke="#050505" stroke-width="1.1327" stroke-miterlimit="10" x1="162.5" y1="251.4" x2="180.5" y2="251.4"/>
			<line fill="none" stroke="#050505" stroke-width="1.1327" stroke-miterlimit="10" x1="171.5" y1="230.4" x2="171.5" y2="251"/>
			<line fill="none" stroke="#050505" stroke-width="1.1327" stroke-miterlimit="10" x1="176.7" y1="230.4" x2="176.7" y2="251"/>
			<line fill="none" stroke="#050505" stroke-width="1.1327" stroke-miterlimit="10" x1="166.1" y1="230.4" x2="166.1" y2="251"/>
			<line fill="none" stroke="#050505" stroke-width="1.1327" stroke-miterlimit="10" x1="166.3" y1="235.6" x2="176.7" y2="235.6"/>
			<line fill="none" stroke="#050505" stroke-width="1.1327" stroke-miterlimit="10" x1="166.3" y1="240.9" x2="176.7" y2="240.9"/>
			<line fill="none" stroke="#050505" stroke-width="1.1327" stroke-miterlimit="10" x1="166.3" y1="246.2" x2="176.7" y2="246.2"/>
		</g>
		<g>
			<line fill="none" stroke="#050505" stroke-width="1.1327" stroke-miterlimit="10" x1="521.2" y1="231.5" x2="539.2" y2="231.5"/>
			<line fill="none" stroke="#050505" stroke-width="1.1327" stroke-miterlimit="10" x1="521.2" y1="252.5" x2="539.2" y2="252.5"/>
			<line fill="none" stroke="#050505" stroke-width="1.1327" stroke-miterlimit="10" x1="530.2" y1="231.5" x2="530.2" y2="252.2"/>
			<line fill="none" stroke="#050505" stroke-width="1.1327" stroke-miterlimit="10" x1="535.4" y1="231.5" x2="535.4" y2="252.2"/>
			<line fill="none" stroke="#050505" stroke-width="1.1327" stroke-miterlimit="10" x1="524.8" y1="231.5" x2="524.8" y2="252.2"/>
			<line fill="none" stroke="#050505" stroke-width="1.1327" stroke-miterlimit="10" x1="525" y1="236.7" x2="535.4" y2="236.7"/>
			<line fill="none" stroke="#050505" stroke-width="1.1327" stroke-miterlimit="10" x1="525" y1="242" x2="535.4" y2="242"/>
			<line fill="none" stroke="#050505" stroke-width="1.1327" stroke-miterlimit="10" x1="525" y1="247.3" x2="535.4" y2="247.3"/>
		</g>
		<line fill="none" stroke="#050505" stroke-width="1.1327" stroke-miterlimit="10" x1="226.1" y1="230.4" x2="244.1" y2="230.4"/>
		<line fill="none" stroke="#050505" stroke-width="1.1327" stroke-miterlimit="10" x1="226.1" y1="251.4" x2="244.1" y2="251.4"/>
		<line fill="none" stroke="#050505" stroke-width="1.1327" stroke-miterlimit="10" x1="235.1" y1="230.4" x2="235.1" y2="251"/>
		<line fill="none" stroke="#050505" stroke-width="1.1327" stroke-miterlimit="10" x1="240.3" y1="230.4" x2="240.3" y2="251"/>
		<line fill="none" stroke="#050505" stroke-width="1.1327" stroke-miterlimit="10" x1="229.7" y1="230.4" x2="229.7" y2="251"/>
		<line fill="none" stroke="#050505" stroke-width="1.1327" stroke-miterlimit="10" x1="229.9" y1="235.6" x2="240.3" y2="235.6"/>
		<line fill="none" stroke="#050505" stroke-width="1.1327" stroke-miterlimit="10" x1="229.9" y1="240.9" x2="240.3" y2="240.9"/>
		<line fill="none" stroke="#050505" stroke-width="1.1327" stroke-miterlimit="10" x1="229.9" y1="246.2" x2="240.3" y2="246.2"/>
		<line fill="none" stroke="#050505" stroke-width="1.1327" stroke-miterlimit="10" x1="281.6" y1="230.4" x2="298.4" y2="230.4"/>
		<line fill="none" stroke="#050505" stroke-width="1.1327" stroke-miterlimit="10" x1="285.2" y1="230.4" x2="285.2" y2="251"/>
		<line fill="none" stroke="#050505" stroke-width="1.1327" stroke-miterlimit="10" x1="285.4" y1="235.6" x2="290.6" y2="235.6"/>
		<line fill="none" stroke="#050505" stroke-width="1.1327" stroke-miterlimit="10" x1="285.4" y1="240.9" x2="290.6" y2="240.9"/>
		<line fill="none" stroke="#050505" stroke-width="1.1327" stroke-miterlimit="10" x1="285.4" y1="246.2" x2="290.6" y2="246.2"/>
		<line fill="none" stroke="#050505" stroke-width="1.1327" stroke-miterlimit="10" x1="355.6" y1="231.7" x2="343.2" y2="231.7"/>
		<polyline fill="none" stroke="#050505" stroke-width="1.1327" stroke-miterlimit="10" points="290.6,251 290.6,230.4 298.4,230.4 
					"/>
		<polyline fill="none" stroke="#050505" stroke-width="1.1327" stroke-miterlimit="10" points="290.6,242.2 312.6,242.2 312.6,251 
					"/>
		<line fill="none" stroke="#050505" stroke-width="1.1327" stroke-miterlimit="10" x1="53.2" y1="299" x2="53.2" y2="252.3"/>
		<line fill="none" stroke="#050505" stroke-width="1.1327" stroke-miterlimit="10" x1="71" y1="296.5" x2="34.5" y2="296.5"/>
		<line fill="none" stroke="#050505" stroke-width="1.1327" stroke-miterlimit="10" x1="71" y1="291.1" x2="34.5" y2="291.1"/>
		<line fill="none" stroke="#050505" stroke-width="1.1327" stroke-miterlimit="10" x1="71" y1="285.4" x2="34.5" y2="285.4"/>
		<line fill="none" stroke="#050505" stroke-width="1.1327" stroke-miterlimit="10" x1="71" y1="279.4" x2="34.5" y2="279.4"/>
		<line fill="none" stroke="#050505" stroke-width="1.1327" stroke-miterlimit="10" x1="71" y1="273.5" x2="34.5" y2="273.5"/>
		<line fill="none" stroke="#050505" stroke-width="1.1327" stroke-miterlimit="10" x1="71" y1="268.1" x2="34.5" y2="268.1"/>
		<line fill="none" stroke="#050505" stroke-width="1.1327" stroke-miterlimit="10" x1="71" y1="262.4" x2="34.5" y2="262.4"/>
		<line fill="none" stroke="#050505" stroke-width="1.1327" stroke-miterlimit="10" x1="71" y1="256.4" x2="34.5" y2="256.4"/>
	</g>
</g>
</svg>
