<?xml version="1.0" encoding="utf-8"?>
<!-- Generator: Adobe Illustrator 18.1.1, SVG Export Plug-In . SVG Version: 6.00 Build 0)  -->
<svg version="1.1" xmlns="http://www.w3.org/2000/svg" xmlns:xlink="http://www.w3.org/1999/xlink" x="0px" y="0px"
	 viewBox="0 0 780.8 612" enable-background="new 0 0 780.8 612" xml:space="preserve">
<g id="Layer_4">
	<path fill="none" d="M96.5,31.6h263.1V18.2H376v67.7c0,0-21.6,5.2-40.3-6.7c0,0-5.9,57-44.7,86.7v11h-75.5v-22.1h-93.9v52.5H96.5
		V31.6z"/>
	<rect x="68.5" y="33.7" fill="none" width="28" height="27.1"/>
	<polygon fill="none" points="68.5,62.1 96.5,60.8 96.5,88.3 69.7,88.3 	"/>
	<polygon fill="none" points="97.7,151.8 69.7,151.8 69.7,87 97.1,87 	"/>
	<rect x="69.7" y="150.7" fill="none" width="26.8" height="26.2"/>
	<polygon fill="none" points="68.5,206.7 68.5,176.9 96.5,176.9 96.5,207.2 	"/>
	<rect x="121.6" y="154.8" fill="none" width="93.9" height="52.5"/>
	<polygon fill="none" points="228.4,177 228.4,209 301.9,209 301.9,176.9 	"/>
	<polygon fill="none" points="34.6,337.3 69.7,337.3 69.7,235.2 32.7,235.2 	"/>
	<rect x="69.7" y="235.2" fill="none" width="44.9" height="23.2"/>
	<rect x="114.6" y="235.2" fill="none" width="33.3" height="23.2"/>
	<rect x="69.7" y="258.3" fill="none" width="123.1" height="63.5"/>
	<rect x="69.7" y="321.6" fill="none" width="30.9" height="35.8"/>
	<rect x="100.3" y="321.6" fill="none" width="30.9" height="35.8"/>
	<rect x="131.3" y="321.6" fill="none" width="29.4" height="35.8"/>
	<rect x="160.7" y="321.6" fill="none" width="32.1" height="35.8"/>
	<polygon fill="none" points="104.1,609.8 104.1,543.3 68.5,543.3 68.5,357.4 192.8,357.4 192.8,258.3 409.9,258.3 409.9,486.6 
		360.2,486.6 360.2,609.8 	"/>
	<rect x="360.2" y="486.6" fill="none" width="233.8" height="123.2"/>
	<rect x="68.5" y="543.3" fill="none" width="35.6" height="49.3"/>
	<polygon fill="none" points="68.5,594.3 68.5,522.3 25.3,522.3 25.3,549.1 9.6,549.1 9.6,592.6 	"/>
	<polygon fill="none" points="25.3,549.1 6.4,549.1 6.4,525.8 24.8,525.8 	"/>
	<rect x="183.2" y="235.2" fill="none" width="13.9" height="21.1"/>
	<rect x="233.4" y="235.2" fill="none" width="13.9" height="21.1"/>
	<rect x="284.1" y="235.2" fill="none" width="13.9" height="21.1"/>
	<rect x="528.9" y="229.5" fill="none" width="13.9" height="21.1"/>
	<rect x="381.2" y="235" fill="none" width="68.8" height="24"/>
	<polygon fill="none" points="407.6,258.3 450,258.3 450,337.3 407.7,337.3 	"/>
	<rect x="450.1" y="235.7" fill="none" width="40.2" height="54.7"/>
	<rect x="450" y="290.4" fill="none" width="40.3" height="46.8"/>
	<polygon fill="none" points="409.8,394.5 490.3,394.5 490.3,363.9 410.4,363.9 	"/>
	<rect x="409.8" y="423.2" fill="none" width="40.2" height="63.4"/>
	<polyline fill="none" points="490.3,438.9 450.6,438.9 450.6,462.8 490.7,462.8 490.7,440.4 	"/>
	<rect x="575.2" y="429.1" fill="none" width="66.7" height="39.4"/>
	<path fill="none" d="M575.2,486.6v-78.2h-39.4c0,0,0-152.1,0-156.3c-4.7,0-45.1,0-45.1,0v234.5H575.2z"/>
	<polygon fill="none" points="641.9,256.8 641.9,408.4 535.8,408.4 535.8,252 575.2,252 575.2,256.8 	"/>
	<rect x="577.9" y="235.2" fill="none" width="27.6" height="21.6"/>
	<rect x="605.5" y="235.2" fill="none" width="36.4" height="21.6"/>
	<polygon fill="none" points="699.1,230.6 641.9,230.6 641.9,310.5 678,310.5 699.1,245.7 	"/>
	<path fill="none" d="M641.9,204.6v-40.7c0,0,16.9,23.9,59.5,31.1v11.1L641.9,204.6z"/>
	<path fill="none" d="M629.2,119.4c-1.1,40.9,32.9,75.6,72.2,75.6s79.1-35.9,77.6-78.4c-1.6-44.7-38.3-71.5-77.6-71.5
		C658.9,45.1,630.3,80.2,629.2,119.4z"/>
	<path fill="none" d="M641.9,74.2V31.6h65.2v13.4C707.1,45.1,672.9,42.5,641.9,74.2z"/>
	<polygon fill="none" points="556.7,66 641.9,65.8 641.9,31.6 556.9,31.6 	"/>
	<rect x="447.7" y="32.2" fill="none" width="109.1" height="60.6"/>
	<polygon fill="none" points="375.5,71.1 448.3,71.1 448.3,32.2 461.4,32.2 461.4,18.2 376,18.2 	"/>
	<polygon fill="none" points="375.8,69.9 448.3,69.9 448.3,235.1 376.2,235.1 	"/>
	<path fill="none" d="M303,164.4h73.6V91.8c0,0-13,4.5-35.7-4.7C340.9,87,331.6,140.1,303,164.4z"/>
	<path fill="none" d="M447.1,92.9v63.1h28V147h158.6c0,0-8.8-29.8,0.5-54.1H447.1z"/>
	<rect x="475.7" y="146" fill="none" width="71.4" height="63"/>
	<polygon fill="none" points="546.3,207.3 582.1,207.3 582.1,148.4 546,148.4 	"/>
	<path fill="none" d="M633.4,145.6c0,0,6.8,14.2,7.6,17.4l-0.3,44.2l-59.3,0v-61.6H633.4z"/>
	<rect x="556.8" y="64.7" fill="none" width="23.3" height="27.1"/>
</g>
<g id="Layer_3">
	<path fill="#FFFFFF" d="M707.1,31.6H461.4V18.2H359.6v13.4H68.5v175H32.4v113.2h2.3v17.4h33.9v183.7H1.7v33.2h6.5v38.5v17.2H594
		V486.6h45.2v-19h2.7V310.5h35.6l21.6-64.7v-15.2h-32.1v-24.5h34.4V195c0,0,78.7-7,77.6-78.4c0,0,4.8-58.7-69.7-71.2
		c-0.7-0.1-1.5-0.2-2.2-0.4V31.6z"/>
</g>
<g id="Major_Lines">
	<polyline fill="none" stroke="#030302" stroke-width="3.4126" stroke-miterlimit="10" points="386.5,18.2 359.6,18.2 359.6,31.6 
		68.5,31.6 68.5,206.7 32.4,206.7 32.4,319.8 51,319.8 51,258.4 	"/>
	<path fill="none" stroke="#030302" stroke-width="3.4126" stroke-miterlimit="10" d="M696.8,45.1c113.2,0,106.2,148.8,0,148.8"/>
	<polyline fill="none" stroke="#030302" stroke-width="3.4126" stroke-miterlimit="10" points="701.5,195 701.5,206.1 667.1,206.1 
		667.1,214.2 	"/>
	<rect x="447.1" y="154.7" fill="#030302" width="28.6" height="54.3"/>
	
		<rect x="228.4" y="176.9" fill="none" stroke="#030302" stroke-width="1.1375" stroke-miterlimit="10" width="23.9" height="32.1"/>
	<rect x="278" y="176.9" fill="none" stroke="#030302" stroke-width="1.1375" stroke-miterlimit="10" width="23.9" height="32.1"/>
	<line fill="none" stroke="#030302" stroke-width="1.1375" stroke-miterlimit="10" x1="252.3" y1="176.9" x2="278" y2="176.9"/>
	<polyline fill="none" stroke="#030302" stroke-width="1.1375" stroke-miterlimit="10" points="114.6,235.7 114.6,258.4 
		147.9,258.4 	"/>
	<line fill="none" stroke="#030302" stroke-width="2.2751" stroke-miterlimit="10" x1="68.5" y1="207.2" x2="139.7" y2="207.2"/>
	<line fill="none" stroke="#030302" stroke-width="2.2751" stroke-miterlimit="10" x1="349.7" y1="234.1" x2="378.3" y2="234.1"/>
	<path fill="none" stroke="#030302" stroke-width="2.2751" stroke-miterlimit="10" d="M362.9,234.1"/>
	<polyline fill="none" stroke="#030302" stroke-width="3.4126" stroke-miterlimit="10" points="575.2,256.8 641.9,256.8 
		641.9,327.3 641.9,309.9 677.6,309.9 699.1,245.7 699.1,230.6 684.3,230.6 	"/>
	<line fill="none" stroke="#030302" stroke-width="1.1375" stroke-miterlimit="10" x1="475.2" y1="154.7" x2="475.2" y2="143.6"/>
	<line fill="none" stroke="#030302" stroke-width="1.1375" stroke-miterlimit="10" x1="447.7" y1="154.8" x2="447.7" y2="143.7"/>
	<rect x="349.7" y="154.7" fill="#030302" width="28.6" height="54.3"/>
	<polyline fill="none" stroke="#030302" stroke-width="1.1375" stroke-miterlimit="10" points="181.2,234.1 190.1,234.1 199,234.1 	
		"/>
	<polyline fill="none" stroke="#030302" stroke-width="1.1375" stroke-miterlimit="10" points="181.2,235.2 190.1,235.2 199,235.2 	
		"/>
	<polyline fill="none" stroke="#030302" stroke-width="1.1375" stroke-miterlimit="10" points="181.2,256.3 190.1,256.3 199,256.3 	
		"/>
	<polyline fill="none" stroke="#030302" stroke-width="1.1375" stroke-miterlimit="10" points="181.2,257.4 190.1,257.4 199,257.4 	
		"/>
	<line fill="none" stroke="#030302" stroke-width="1.1375" stroke-miterlimit="10" x1="190.1" y1="257.7" x2="190.1" y2="234.1"/>
	<line fill="none" stroke="#030302" stroke-width="1.1375" stroke-miterlimit="10" x1="197.1" y1="235.2" x2="197.1" y2="256.3"/>
	<line fill="none" stroke="#030302" stroke-width="1.1375" stroke-miterlimit="10" x1="183.2" y1="235.2" x2="183.2" y2="256.3"/>
	<line fill="none" stroke="#030302" stroke-width="1.1375" stroke-miterlimit="10" x1="196.9" y1="240.6" x2="183.3" y2="240.6"/>
	<line fill="none" stroke="#030302" stroke-width="1.1375" stroke-miterlimit="10" x1="196.9" y1="246.2" x2="183.3" y2="246.2"/>
	<line fill="none" stroke="#030302" stroke-width="1.1375" stroke-miterlimit="10" x1="196.9" y1="250.4" x2="183.3" y2="250.4"/>
	<polyline fill="none" stroke="#030302" stroke-width="1.1375" stroke-miterlimit="10" points="230.7,234.1 239.5,234.1 
		248.4,234.1 	"/>
	<polyline fill="none" stroke="#030302" stroke-width="1.1375" stroke-miterlimit="10" points="230.7,235.2 239.5,235.2 
		248.4,235.2 	"/>
	<polyline fill="none" stroke="#030302" stroke-width="1.1375" stroke-miterlimit="10" points="230.7,256.3 239.5,256.3 
		248.4,256.3 	"/>
	<polyline fill="none" stroke="#030302" stroke-width="1.1375" stroke-miterlimit="10" points="230.7,257.4 239.5,257.4 
		248.4,257.4 	"/>
	<line fill="none" stroke="#030302" stroke-width="1.1375" stroke-miterlimit="10" x1="239.5" y1="257.7" x2="239.5" y2="234.1"/>
	<line fill="none" stroke="#030302" stroke-width="1.1375" stroke-miterlimit="10" x1="246.5" y1="235.2" x2="246.5" y2="256.3"/>
	<line fill="none" stroke="#030302" stroke-width="1.1375" stroke-miterlimit="10" x1="232.6" y1="235.2" x2="232.6" y2="256.3"/>
	<line fill="none" stroke="#030302" stroke-width="1.1375" stroke-miterlimit="10" x1="284.3" y1="240.6" x2="232.7" y2="240.6"/>
	<line fill="none" stroke="#030302" stroke-width="1.1375" stroke-miterlimit="10" x1="284.3" y1="246.2" x2="232.7" y2="246.2"/>
	<line fill="none" stroke="#030302" stroke-width="1.1375" stroke-miterlimit="10" x1="284.3" y1="250.4" x2="232.7" y2="250.4"/>
	<polyline fill="none" stroke="#030302" stroke-width="1.1375" stroke-miterlimit="10" points="282.2,234.1 291.1,234.1 
		299.9,234.1 	"/>
	<polyline fill="none" stroke="#030302" stroke-width="1.1375" stroke-miterlimit="10" points="282.2,235.2 291.1,235.2 
		299.9,235.2 	"/>
	<polyline fill="none" stroke="#030302" stroke-width="1.1375" stroke-miterlimit="10" points="282.2,256.3 291.1,256.3 
		299.9,256.3 	"/>
	<polyline fill="none" stroke="#030302" stroke-width="1.1375" stroke-miterlimit="10" points="282.2,257.4 291.1,257.4 
		299.9,257.4 	"/>
	<line fill="none" stroke="#030302" stroke-width="1.1375" stroke-miterlimit="10" x1="291.1" y1="257.7" x2="291.1" y2="234.1"/>
	<line fill="none" stroke="#030302" stroke-width="1.1375" stroke-miterlimit="10" x1="298" y1="235.2" x2="298" y2="256.3"/>
	<line fill="none" stroke="#030302" stroke-width="1.1375" stroke-miterlimit="10" x1="284.1" y1="235.2" x2="284.1" y2="256.3"/>
	<line fill="none" stroke="#030302" stroke-width="1.1375" stroke-miterlimit="10" x1="297.8" y1="240.6" x2="284.3" y2="240.6"/>
	<line fill="none" stroke="#030302" stroke-width="1.1375" stroke-miterlimit="10" x1="297.8" y1="246.2" x2="284.3" y2="246.2"/>
	<line fill="none" stroke="#030302" stroke-width="1.1375" stroke-miterlimit="10" x1="297.8" y1="250.4" x2="284.3" y2="250.4"/>
	<polyline fill="none" stroke="#030302" stroke-width="1.1375" stroke-miterlimit="10" points="527.1,228.4 536,228.4 544.9,228.4 	
		"/>
	<polyline fill="none" stroke="#030302" stroke-width="1.1375" stroke-miterlimit="10" points="527.1,229.5 536,229.5 544.9,229.5 	
		"/>
	<polyline fill="none" stroke="#030302" stroke-width="1.1375" stroke-miterlimit="10" points="527.1,250.6 536,250.6 544.9,250.6 	
		"/>
	<polyline fill="none" stroke="#030302" stroke-width="1.1375" stroke-miterlimit="10" points="527.1,251.7 536,251.7 544.9,251.7 	
		"/>
	<line fill="none" stroke="#030302" stroke-width="1.1375" stroke-miterlimit="10" x1="536" y1="252" x2="536" y2="228.4"/>
	<line fill="none" stroke="#030302" stroke-width="1.1375" stroke-miterlimit="10" x1="542.9" y1="229.5" x2="542.9" y2="250.6"/>
	<line fill="none" stroke="#030302" stroke-width="1.1375" stroke-miterlimit="10" x1="529.1" y1="229.5" x2="529.1" y2="250.6"/>
	<line fill="none" stroke="#030302" stroke-width="1.1375" stroke-miterlimit="10" x1="542.7" y1="234.9" x2="529.2" y2="234.9"/>
	<line fill="none" stroke="#030302" stroke-width="1.1375" stroke-miterlimit="10" x1="542.7" y1="240.5" x2="529.2" y2="240.5"/>
	<line fill="none" stroke="#030302" stroke-width="1.1375" stroke-miterlimit="10" x1="542.7" y1="244.7" x2="529.2" y2="244.7"/>
	<line fill="none" stroke="#030302" stroke-width="1.1375" stroke-miterlimit="10" x1="641.9" y1="31.6" x2="641.9" y2="74.2"/>
	
		<path fill="none" stroke="#030302" stroke-width="3.4126" stroke-linecap="round" stroke-linejoin="round" stroke-miterlimit="10" d="
		M650.3,66c-6.4,6.5-9.4,11.7-9.4,11.7"/>
	
		<path fill="none" stroke="#030302" stroke-width="3.4126" stroke-linecap="round" stroke-linejoin="round" stroke-miterlimit="10" d="
		M629.1,108.2c0,0-2.9,13.6,1.2,25.7"/>
	
		<path fill="none" stroke="#030302" stroke-width="3.4126" stroke-linecap="round" stroke-linejoin="round" stroke-miterlimit="10" d="
		M639.3,157.1c0,0,2.7,8,11.1,13.6"/>
	
		<path fill="none" stroke="#030302" stroke-width="3.4126" stroke-linecap="round" stroke-linejoin="round" stroke-miterlimit="10" d="
		M668.1,183.9c0,0,3.9,3.6,13,5.8"/>
	
		<line fill="none" stroke="#030302" stroke-width="1.1375" stroke-linecap="round" stroke-linejoin="round" stroke-miterlimit="10" x1="679" y1="206.1" x2="679" y2="190.9"/>
	<polyline fill="none" stroke="#030302" stroke-width="3.4126" stroke-miterlimit="10" points="434.9,18.2 461.4,18.2 461.4,31.6 
		707.1,31.6 707.1,45.1 	"/>
	<polyline fill="none" stroke="#030302" stroke-width="1.1375" stroke-miterlimit="10" points="69.7,337.3 69.7,235.2 147.9,235.2 
		147.9,240.6 	"/>
	<line fill="none" stroke="#030302" stroke-width="1.1375" stroke-miterlimit="10" x1="70.8" y1="259" x2="100.6" y2="259"/>
	<line fill="none" stroke="#030302" stroke-width="1.1375" stroke-miterlimit="10" x1="192.8" y1="325.1" x2="192.8" y2="257.8"/>
	<polyline fill="none" stroke="#030302" stroke-width="1.1375" stroke-miterlimit="10" points="121.6,207.2 121.6,154.8 
		167.1,154.8 	"/>
	<polyline fill="none" stroke="#030302" stroke-width="1.1375" stroke-miterlimit="10" points="183.3,154.7 215.5,154.7 
		215.5,207.8 160.7,207.8 	"/>
	<line fill="none" stroke="#030302" stroke-width="3.4126" stroke-miterlimit="10" x1="301.9" y1="164.4" x2="301.9" y2="209"/>
	<line fill="none" stroke="#030302" stroke-width="2.2751" stroke-miterlimit="10" x1="376" y1="18.2" x2="376" y2="49.2"/>
	<line fill="none" stroke="#030302" stroke-width="2.2751" stroke-miterlimit="10" x1="376" y1="63.1" x2="376" y2="95.2"/>
	<line fill="none" stroke="#030302" stroke-width="2.2751" stroke-miterlimit="10" x1="376" y1="71.9" x2="386.5" y2="71.9"/>
	<path fill="none" stroke="#030302" stroke-width="2.2751" stroke-miterlimit="10" d="M376,91.7c0,0-21,3.5-36.2-4.7
		c0,0-5.2,46.9-38.9,78.5"/>
	<path fill="none" stroke="#030302" stroke-width="2.2751" stroke-miterlimit="10" d="M291.1,165.9c0,0,38.8-26.3,44.6-86.7
		c0,0,19.6,12.6,40.3,6.7"/>
	<polyline fill="none" stroke="#030302" stroke-width="2.2751" stroke-miterlimit="10" points="69.7,176.9 96.5,176.9 96.5,164.4 
		96.5,198.5 	"/>
	<line fill="none" stroke="#030302" stroke-width="2.2751" stroke-miterlimit="10" x1="69.7" y1="151.8" x2="96.5" y2="151.8"/>
	<polyline fill="none" stroke="#030302" stroke-width="2.2751" stroke-miterlimit="10" points="69.7,87 96.5,87 96.5,71.9 	"/>
	<line fill="none" stroke="#030302" stroke-width="2.2751" stroke-miterlimit="10" x1="68.5" y1="60.8" x2="96.5" y2="60.8"/>
	<line fill="none" stroke="#030302" stroke-width="2.2751" stroke-miterlimit="10" x1="96.5" y1="32.8" x2="96.5" y2="49.2"/>
	<polyline fill="none" stroke="#030302" stroke-width="2.2751" stroke-miterlimit="10" points="461.4,31.6 447.7,31.6 447.7,37.9 	
		"/>
	<line fill="none" stroke="#030302" stroke-width="2.2751" stroke-miterlimit="10" x1="432.5" y1="71.9" x2="447.7" y2="71.9"/>
	<polyline fill="none" stroke="#030302" stroke-width="2.2751" stroke-miterlimit="10" points="447.7,66 447.7,92.9 633.8,92.9 	"/>
	<line fill="none" stroke="#030302" stroke-width="2.2751" stroke-miterlimit="10" x1="500.8" y1="32.2" x2="500.8" y2="41"/>
	<line fill="none" stroke="#030302" stroke-width="2.2751" stroke-miterlimit="10" x1="500.8" y1="69.5" x2="500.8" y2="92.9"/>
	<polyline fill="none" stroke="#030302" stroke-width="2.2751" stroke-miterlimit="10" points="556.8,92.9 556.8,66 581.4,66 
		581.4,92.9 	"/>
	<line fill="none" stroke="#030302" stroke-width="1.1375" stroke-miterlimit="10" x1="605.5" y1="256.3" x2="605.5" y2="235.2"/>
	<polyline fill="none" stroke="#030302" stroke-width="3.4126" stroke-miterlimit="10" points="32.4,337.3 68.5,337.3 68.5,520.9 
		60.5,520.9 	"/>
	<polyline fill="none" stroke="#030302" stroke-width="3.4126" stroke-miterlimit="10" points="32.4,520.9 1.7,520.9 1.7,554.1 
		8.2,554.1 8.2,592.6 85.7,592.6 	"/>
	<polyline fill="none" stroke="#030302" stroke-width="3.4126" stroke-miterlimit="10" points="5.3,609.8 594,609.8 594,486.6 
		650.3,486.6 639.3,486.6 639.3,467.6 650.3,467.6 639.3,467.6 641.9,467.6 641.9,327.3 	"/>
	<polygon points="663,294.7 674.6,257.7 658.9,257.7 658.9,294.7 	"/>
	
		<line stroke="#000000" stroke-width="1.1375" stroke-linecap="round" stroke-miterlimit="10" x1="674.4" y1="258.3" x2="691.1" y2="264.4"/>
	
		<line fill="#FFFFFF" stroke="#000000" stroke-width="1.1375" stroke-miterlimit="10" x1="672.3" y1="261.3" x2="690.2" y2="268.7"/>
	
		<line fill="#FFFFFF" stroke="#000000" stroke-width="1.1375" stroke-miterlimit="10" x1="671.3" y1="264.2" x2="689.2" y2="271.6"/>
	<line fill="#FFFFFF" stroke="#000000" stroke-width="1.1375" stroke-miterlimit="10" x1="670.1" y1="267.2" x2="688" y2="274.6"/>
	<line fill="#FFFFFF" stroke="#000000" stroke-width="1.1375" stroke-miterlimit="10" x1="670.1" y1="270.5" x2="688" y2="277.8"/>
	<line fill="#FFFFFF" stroke="#000000" stroke-width="1.1375" stroke-miterlimit="10" x1="669.1" y1="273.2" x2="687" y2="280.5"/>
	
		<line stroke="#000000" stroke-width="1.1375" stroke-linecap="round" stroke-miterlimit="10" x1="668.7" y1="273.4" x2="685.4" y2="279.5"/>
	
		<line fill="#FFFFFF" stroke="#000000" stroke-width="1.1375" stroke-miterlimit="10" x1="666.6" y1="276.5" x2="684.5" y2="283.8"/>
	
		<line fill="#FFFFFF" stroke="#000000" stroke-width="1.1375" stroke-miterlimit="10" x1="665.6" y1="279.3" x2="683.5" y2="286.7"/>
	
		<line fill="#FFFFFF" stroke="#000000" stroke-width="1.1375" stroke-miterlimit="10" x1="664.4" y1="282.3" x2="682.3" y2="289.7"/>
	
		<line fill="#FFFFFF" stroke="#000000" stroke-width="1.1375" stroke-miterlimit="10" x1="664.4" y1="285.6" x2="682.3" y2="292.9"/>
	
		<line fill="#FFFFFF" stroke="#000000" stroke-width="1.1375" stroke-miterlimit="10" x1="663.4" y1="288.3" x2="681.3" y2="295.6"/>
	
		<line fill="#FFFFFF" stroke="#000000" stroke-width="1.1375" stroke-miterlimit="10" x1="643.6" y1="259.9" x2="660.7" y2="259.9"/>
	
		<line fill="#FFFFFF" stroke="#000000" stroke-width="1.1375" stroke-miterlimit="10" x1="643.6" y1="264.2" x2="660.7" y2="264.2"/>
	
		<line fill="#FFFFFF" stroke="#000000" stroke-width="1.1375" stroke-miterlimit="10" x1="643.6" y1="267.2" x2="660.7" y2="267.2"/>
	
		<line fill="#FFFFFF" stroke="#000000" stroke-width="1.1375" stroke-miterlimit="10" x1="643.6" y1="269.6" x2="660.7" y2="269.6"/>
	
		<line fill="#FFFFFF" stroke="#000000" stroke-width="1.1375" stroke-miterlimit="10" x1="643.6" y1="272.7" x2="660.7" y2="272.7"/>
	
		<line fill="#FFFFFF" stroke="#000000" stroke-width="1.1375" stroke-miterlimit="10" x1="643.6" y1="275.4" x2="660.7" y2="275.4"/>
	
		<line fill="#FFFFFF" stroke="#000000" stroke-width="1.1375" stroke-miterlimit="10" x1="643.6" y1="278.2" x2="660.7" y2="278.2"/>
	
		<line fill="#FFFFFF" stroke="#000000" stroke-width="1.1375" stroke-miterlimit="10" x1="643.6" y1="280.9" x2="660.7" y2="280.9"/>
	<line fill="#FFFFFF" stroke="#000000" stroke-width="1.1375" stroke-miterlimit="10" x1="643.6" y1="284" x2="660.7" y2="284"/>
	
		<line fill="#FFFFFF" stroke="#000000" stroke-width="1.1375" stroke-miterlimit="10" x1="643.6" y1="286.7" x2="660.7" y2="286.7"/>
	
		<line fill="#FFFFFF" stroke="#000000" stroke-width="1.1375" stroke-miterlimit="10" x1="643.6" y1="289.8" x2="660.7" y2="289.8"/>
	
		<line fill="#FFFFFF" stroke="#000000" stroke-width="1.1375" stroke-miterlimit="10" x1="643.6" y1="292.6" x2="660.7" y2="292.6"/>
	<path fill="#FFFFFF" stroke="#000000" stroke-width="1.1375" stroke-miterlimit="10" d="M32.7,265.3"/>
	<line fill="#FFFFFF" stroke="#000000" stroke-width="1.1375" stroke-miterlimit="10" x1="51" y1="265.3" x2="32.4" y2="265.3"/>
	<line fill="#FFFFFF" stroke="#000000" stroke-width="1.1375" stroke-miterlimit="10" x1="51" y1="268.4" x2="32.4" y2="268.4"/>
	<line fill="#FFFFFF" stroke="#000000" stroke-width="1.1375" stroke-miterlimit="10" x1="51" y1="271.3" x2="32.4" y2="271.3"/>
	<line fill="#FFFFFF" stroke="#000000" stroke-width="1.1375" stroke-miterlimit="10" x1="51" y1="275.2" x2="32.4" y2="275.2"/>
	<polyline fill="#FFFFFF" stroke="#000000" stroke-width="1.1375" stroke-miterlimit="10" points="51,278.2 36.1,278.2 32.4,278.2 	
		"/>
	<polyline fill="none" stroke="#000000" stroke-width="1.1375" stroke-miterlimit="10" points="51,283.4 43.3,283.4 38.7,283.4 
		38.7,281.6 	"/>
	<polyline fill="none" stroke="#000000" stroke-width="1.1375" stroke-miterlimit="10" points="35.8,278.6 35.8,281.1 41.2,281.1 
		51,281.1 	"/>
	<line stroke="#030302" stroke-width="1.1375" stroke-miterlimit="10" x1="559.7" y1="66.6" x2="559.7" y2="31.7"/>
	<line stroke="#030302" stroke-width="1.1375" stroke-miterlimit="10" x1="562.9" y1="66.6" x2="562.9" y2="31.7"/>
	<line stroke="#030302" stroke-width="1.1375" stroke-miterlimit="10" x1="568.3" y1="66.6" x2="568.3" y2="31.7"/>
	<line stroke="#030302" stroke-width="1.1375" stroke-miterlimit="10" x1="572.6" y1="66.6" x2="572.6" y2="31.7"/>
	<line stroke="#030302" stroke-width="1.1375" stroke-miterlimit="10" x1="577.9" y1="66.6" x2="577.9" y2="31.7"/>
	<line stroke="#030302" stroke-width="1.1375" stroke-miterlimit="10" x1="582.1" y1="31.7" x2="582.1" y2="66.6"/>
	<line stroke="#030302" stroke-width="1.1375" stroke-miterlimit="10" x1="587.8" y1="66.6" x2="587.8" y2="31.7"/>
	<polyline fill="none" stroke="#030302" stroke-width="1.1375" stroke-miterlimit="10" points="591.7,65.3 591.7,39.1 588.1,39.1 	
		"/>
	<polyline fill="none" stroke="#030302" stroke-width="1.1375" stroke-miterlimit="10" points="596,65.3 596,47.4 592.1,47.4 	"/>
	<polyline fill="none" stroke="#030302" stroke-width="1.1375" stroke-miterlimit="10" points="600.3,64.7 600.3,59.6 596.3,59.6 	
		"/>
	<polyline fill="none" stroke="#030302" stroke-width="2.2751" stroke-miterlimit="10" points="490.3,312.8 490.3,406.5 490.3,284 	
		"/>
	<polyline fill="none" stroke="#030302" stroke-width="1.1375" stroke-miterlimit="10" points="490.3,301.7 490.3,274.2 
		490.3,235.7 450,235.7 450,272.7 	"/>
	<path fill="none" stroke="#030302" stroke-width="2.2751" stroke-miterlimit="10" d="M490.3,278.2"/>
	<line stroke="#030302" stroke-width="1.1375" stroke-miterlimit="10" x1="619.8" y1="65.8" x2="582.1" y2="65.8"/>
	<polyline fill="none" stroke="#000000" stroke-width="2.2751" stroke-miterlimit="10" points="641.9,162.2 641.9,204.6 679,204.6 	
		"/>
	<polyline fill="none" stroke="#000000" stroke-width="2.2751" stroke-miterlimit="10" points="641.9,256.8 641.9,235.2 
		577.9,235.2 577.9,246.2 	"/>
	<polyline fill="none" stroke="#000000" stroke-width="3.4126" stroke-miterlimit="10" points="685.4,230.6 667.1,230.6 
		667.1,214.2 	"/>
	<polyline fill="none" stroke="#030302" stroke-width="1.1375" stroke-miterlimit="10" points="497.3,149.3 497.3,146 475.7,146 	
		"/>
	<polyline fill="none" stroke="#030302" stroke-width="1.1375" stroke-miterlimit="10" points="475.7,209 497.3,209 497.3,204.6 	
		"/>
	<line fill="none" stroke="#030302" stroke-width="2.2751" stroke-miterlimit="10" x1="531.5" y1="147.6" x2="592.1" y2="147.6"/>
	<line fill="none" stroke="#030302" stroke-width="2.2751" stroke-miterlimit="10" x1="531.5" y1="207.2" x2="596.3" y2="207.2"/>
	<line fill="none" stroke="#030302" stroke-width="1.1375" stroke-miterlimit="10" x1="581.4" y1="207.2" x2="581.4" y2="189.8"/>
	<line fill="none" stroke="#030302" stroke-width="1.1375" stroke-miterlimit="10" x1="547.1" y1="207.2" x2="547.1" y2="189.8"/>
	<line fill="none" stroke="#030302" stroke-width="1.1375" stroke-miterlimit="10" x1="581.4" y1="165.9" x2="581.4" y2="148.4"/>
	<line fill="none" stroke="#030302" stroke-width="1.1375" stroke-miterlimit="10" x1="547.1" y1="165.9" x2="547.1" y2="148.4"/>
	<line fill="none" stroke="#030302" stroke-width="1.1375" stroke-miterlimit="10" x1="535.8" y1="251.7" x2="535.8" y2="408.4"/>
	<line fill="none" stroke="#030302" stroke-width="1.1375" stroke-miterlimit="10" x1="450" y1="284" x2="450" y2="294.7"/>
	<line fill="none" stroke="#030302" stroke-width="1.1375" stroke-miterlimit="10" x1="450" y1="290.4" x2="490.3" y2="290.4"/>
	<polyline fill="#030302" stroke="#030302" stroke-width="1.1375" stroke-miterlimit="10" points="450,310.5 450,337.3 409.9,337.3 
		409.9,363.9 490.3,363.9 490.3,337.2 450,337.3 	"/>
	<path fill="none" stroke="#030302" stroke-width="1.1375" stroke-miterlimit="10" d="M362.9,325.1"/>
	<line fill="none" stroke="#030302" stroke-width="1.1375" stroke-miterlimit="10" x1="51" y1="262.7" x2="70" y2="262.7"/>
	<line fill="none" stroke="#030302" stroke-width="1.1375" stroke-miterlimit="10" x1="51" y1="265.3" x2="70" y2="265.3"/>
	<line fill="none" stroke="#030302" stroke-width="1.1375" stroke-miterlimit="10" x1="51" y1="269" x2="70" y2="269"/>
	<line fill="none" stroke="#030302" stroke-width="1.1375" stroke-miterlimit="10" x1="51" y1="272.3" x2="70" y2="272.3"/>
	<line fill="none" stroke="#030302" stroke-width="1.1375" stroke-miterlimit="10" x1="51" y1="275.2" x2="70" y2="275.2"/>
	<polyline fill="none" stroke="#030302" stroke-width="1.1375" stroke-miterlimit="10" points="70.8,321.7 192.8,321.7 192.8,357.4 
		176.5,357.4 	"/>
	<polyline fill="none" stroke="#030302" stroke-width="1.1375" stroke-miterlimit="10" points="147.9,357.4 160.7,357.4 
		160.7,321.7 	"/>
	<polyline fill="none" stroke="#030302" stroke-width="1.1375" stroke-miterlimit="10" points="117.2,357.4 131.2,357.4 
		131.2,321.7 	"/>
	<polyline fill="none" stroke="#030302" stroke-width="1.1375" stroke-miterlimit="10" points="85.7,357.4 100.6,357.4 100.6,321.7 
			"/>
	<line fill="none" stroke="#030302" stroke-width="1.1375" stroke-miterlimit="10" x1="44.8" y1="337.3" x2="44.8" y2="319.8"/>
	<line fill="none" stroke="#030302" stroke-width="1.1375" stroke-miterlimit="10" x1="41.7" y1="338.4" x2="41.7" y2="318.7"/>
	<line fill="none" stroke="#030302" stroke-width="1.1375" stroke-miterlimit="10" x1="38.7" y1="337.3" x2="38.7" y2="319.8"/>
	<line fill="none" stroke="#030302" stroke-width="1.1375" stroke-miterlimit="10" x1="34.6" y1="337.3" x2="34.6" y2="319.8"/>
	<line fill="none" stroke="#030302" stroke-width="1.1375" stroke-miterlimit="10" x1="553.3" y1="408.4" x2="628.1" y2="408.4"/>
	<polyline fill="none" stroke="#030302" stroke-width="1.1375" stroke-miterlimit="10" points="409.9,363.9 409.9,408.4 
		419.9,408.4 419.9,402.4 434.9,402.4 434.9,407.7 447.1,407.7 	"/>
	<polyline fill="none" stroke="#030302" stroke-width="1.1375" stroke-miterlimit="10" points="409.9,394.7 475.7,394.7 465,394.7 
		465,407.2 461.4,407.2 	"/>
	<line fill="none" stroke="#030302" stroke-width="1.1375" stroke-miterlimit="10" x1="490.3" y1="406.5" x2="475.7" y2="406.5"/>
	<line fill="none" stroke="#030302" stroke-width="1.1375" stroke-miterlimit="10" x1="575.2" y1="408.4" x2="575.2" y2="416.6"/>
	<polyline fill="none" stroke="#030302" stroke-width="1.1375" stroke-miterlimit="10" points="575.2,468.5 575.2,429.1 
		641.9,429.1 	"/>
	<line fill="none" stroke="#030302" stroke-width="3.4126" stroke-miterlimit="10" x1="645.7" y1="467.4" x2="592.1" y2="467.4"/>
	<line fill="none" stroke="#030302" stroke-width="2.2751" stroke-miterlimit="10" x1="596" y1="448.8" x2="628.1" y2="448.8"/>
	<line fill="none" stroke="#030302" stroke-width="1.1375" stroke-miterlimit="10" x1="594" y1="486.6" x2="503.1" y2="486.6"/>
	<line fill="none" stroke="#030302" stroke-width="1.1375" stroke-miterlimit="10" x1="360.7" y1="609.8" x2="360.7" y2="537.5"/>
	<polyline fill="none" stroke="#030302" stroke-width="1.1375" stroke-miterlimit="10" points="360.7,507.3 360.7,486.6 
		454.6,486.6 409.9,486.6 409.9,423.2 434.9,423.2 	"/>
	<line fill="none" stroke="#030302" stroke-width="1.1375" stroke-miterlimit="10" x1="450.1" y1="486.6" x2="450.1" y2="423.2"/>
	<path fill="none" stroke="#030302" stroke-width="1.1375" stroke-miterlimit="10" d="M450,438.9h40.3c0,0-0.9-16.6,0-15.7
		c0.9,0.9,0,63.4,0,63.4h-19.9"/>
	<line fill="none" stroke="#030302" stroke-width="1.1375" stroke-miterlimit="10" x1="490.7" y1="462.8" x2="450" y2="462.8"/>
	<line fill="none" stroke="#030302" stroke-width="1.1375" stroke-miterlimit="10" x1="470.4" y1="462.8" x2="470.4" y2="438.9"/>
	<line fill="none" stroke="#030302" stroke-width="1.1375" stroke-miterlimit="10" x1="104.1" y1="543.3" x2="104.1" y2="609.8"/>
	<polyline fill="none" stroke="#030302" stroke-width="1.1375" stroke-miterlimit="10" points="85.7,543.3 68.5,543.3 68.5,592.6 	
		"/>
	<rect x="6.4" y="525.8" fill="none" stroke="#030302" stroke-width="1.1375" stroke-miterlimit="10" width="18.9" height="23.3"/>
	<line fill="none" stroke="#030302" stroke-width="1.1375" stroke-miterlimit="10" x1="85.7" y1="594.3" x2="85.7" y2="556.8"/>
	<line fill="none" stroke="#030302" stroke-width="1.1375" stroke-miterlimit="10" x1="68.5" y1="562.5" x2="104.1" y2="562.5"/>
	<line fill="none" stroke="#030302" stroke-width="1.1375" stroke-miterlimit="10" x1="68.5" y1="566.2" x2="104.1" y2="566.2"/>
	<line fill="none" stroke="#030302" stroke-width="1.1375" stroke-miterlimit="10" x1="68.5" y1="569.9" x2="104.1" y2="569.9"/>
	<line fill="none" stroke="#030302" stroke-width="1.1375" stroke-miterlimit="10" x1="68.5" y1="573.6" x2="104.1" y2="573.6"/>
	<line fill="none" stroke="#030302" stroke-width="1.1375" stroke-miterlimit="10" x1="68.5" y1="577.5" x2="104.1" y2="577.5"/>
	<line fill="none" stroke="#030302" stroke-width="1.1375" stroke-miterlimit="10" x1="68.5" y1="581.3" x2="104.1" y2="581.3"/>
	<line fill="none" stroke="#030302" stroke-width="1.1375" stroke-miterlimit="10" x1="68.5" y1="584.9" x2="104.1" y2="584.9"/>
	<line fill="none" stroke="#030302" stroke-width="1.1375" stroke-miterlimit="10" x1="68.5" y1="588.5" x2="104.1" y2="588.5"/>
	<line fill="none" stroke="#030302" stroke-width="1.1375" stroke-miterlimit="10" x1="627.6" y1="429.1" x2="627.6" y2="467.4"/>
	<line fill="none" stroke="#030302" stroke-width="1.1375" stroke-miterlimit="10" x1="624.6" y1="429.1" x2="624.6" y2="467.4"/>
	<line fill="none" stroke="#030302" stroke-width="1.1375" stroke-miterlimit="10" x1="618.5" y1="429.1" x2="618.5" y2="467.4"/>
	<line fill="none" stroke="#030302" stroke-width="1.1375" stroke-miterlimit="10" x1="612.7" y1="429.1" x2="612.7" y2="467.4"/>
	<line fill="none" stroke="#030302" stroke-width="1.1375" stroke-miterlimit="10" x1="606.3" y1="429.1" x2="606.3" y2="467.4"/>
	<line fill="none" stroke="#030302" stroke-width="1.1375" stroke-miterlimit="10" x1="600.1" y1="429.1" x2="600.1" y2="467.4"/>
	<line fill="none" stroke="#030302" stroke-width="1.1375" stroke-miterlimit="10" x1="621.6" y1="429.1" x2="621.6" y2="467.4"/>
	<line fill="none" stroke="#030302" stroke-width="1.1375" stroke-miterlimit="10" x1="615.6" y1="429.1" x2="615.6" y2="467.4"/>
	<line fill="none" stroke="#030302" stroke-width="1.1375" stroke-miterlimit="10" x1="609.6" y1="429.1" x2="609.6" y2="467.4"/>
	<line fill="none" stroke="#030302" stroke-width="1.1375" stroke-miterlimit="10" x1="603.1" y1="429.1" x2="603.1" y2="467.4"/>
	<line fill="none" stroke="#030302" stroke-width="1.1375" stroke-miterlimit="10" x1="597.1" y1="429.1" x2="597.1" y2="467.4"/>
</g>
</svg>
